<svg width="81" height="21" viewBox="0 0 81 21" fill="none" xmlns="http://www.w3.org/2000/svg">
<path d="M42.8235 13.8918C42.7953 12.6353 43.0415 11.3891 43.5426 10.2515C43.9898 9.26908 44.6829 8.43761 45.5452 7.84897C46.3886 7.28808 47.6274 6.99657 48.6213 7.00891C49.427 6.98916 50.2244 7.18762 50.9388 7.58575C51.5751 7.93107 52.1119 8.45356 52.4926 9.09786V7.21613H56.3403V20.6151H52.4978V18.7166C52.1049 19.358 51.5622 19.8791 50.9231 20.2287C50.2066 20.629 49.4062 20.8276 48.5976 20.8055C47.6115 20.8155 46.3809 20.524 45.5452 19.9655C44.6849 19.3646 43.9929 18.5267 43.5426 17.5405C43.0455 16.3986 42.7995 15.1506 42.8235 13.8918ZM51.3351 13.9142C51.3351 12.8893 51.0727 12.0829 50.5477 11.4892C50.3121 11.2051 50.0217 10.9787 49.6965 10.8255C49.3712 10.6723 49.0188 10.5959 48.6632 10.6016C48.3059 10.5964 47.9515 10.6721 47.6235 10.8237C47.2955 10.9752 47.0014 11.1992 46.7604 11.4808C46.2495 12.0577 45.994 12.8585 45.994 13.8834C45.994 14.9083 46.2495 15.7269 46.7604 16.3392C47.0005 16.6235 47.2946 16.85 47.6232 17.0035C47.9517 17.1571 48.3072 17.2341 48.6659 17.2297C49.0217 17.2355 49.3744 17.1589 49.6998 17.0052C50.0251 16.8515 50.3153 16.6242 50.5504 16.3392C51.0753 15.7483 51.3404 14.9391 51.3404 13.9142H51.3351ZM63.2955 20.8055C62.2916 20.8253 61.2948 20.6212 60.3691 20.2063C59.5743 19.8553 58.8768 19.2933 58.3429 18.5738C57.8572 17.8916 57.5681 17.0733 57.5109 16.2188H61.3139C61.3337 16.4413 61.3983 16.6566 61.5034 16.85C61.6085 17.0433 61.7516 17.2101 61.9229 17.3389C62.3082 17.6367 62.7754 17.7894 63.2509 17.7729C63.6365 17.8013 64.0211 17.7036 64.3533 17.4929C64.4775 17.4075 64.5796 17.2902 64.6502 17.1517C64.7208 17.0132 64.7577 16.8581 64.7575 16.7004C64.7592 16.515 64.7057 16.3338 64.6048 16.1828C64.5039 16.0319 64.3607 15.919 64.1958 15.8604C63.6071 15.5926 62.9965 15.3836 62.3717 15.2359C61.6087 15.055 60.8574 14.8221 60.1224 14.5387C59.5236 14.2852 58.9907 13.8818 58.5686 13.3626C58.1089 12.7436 57.8766 11.967 57.9151 11.1784C57.9087 10.4351 58.1127 9.70708 58.5003 9.08946C58.9405 8.41907 59.5491 7.89492 60.2562 7.57735C61.1323 7.18579 62.0756 6.99499 63.0252 7.01731C64.6 7.01731 65.8379 7.43361 66.739 8.2662C67.1929 8.68132 67.5655 9.1878 67.8357 9.75669C68.106 10.3256 68.2684 10.9457 68.3138 11.5816H64.747C64.7261 11.3623 64.6634 11.1497 64.5627 10.9571C64.4621 10.7645 64.3256 10.5959 64.1617 10.4616C63.7956 10.1831 63.3504 10.0485 62.9018 10.0807C62.5372 10.0541 62.174 10.1522 61.8651 10.3608C61.7504 10.4417 61.6571 10.5527 61.5942 10.6831C61.5312 10.8135 61.5007 10.959 61.5055 11.1056C61.5061 11.2939 61.5604 11.4776 61.6612 11.6322C61.762 11.7867 61.9045 11.9049 62.0698 11.9709C62.651 12.2251 63.254 12.4183 63.8703 12.5477C64.6433 12.7486 65.4027 13.0049 66.1433 13.315C66.7424 13.5669 67.2698 13.9809 67.6734 14.5163C68.149 15.1384 68.397 15.9233 68.3716 16.7256C68.3784 17.4836 68.1567 18.2238 67.739 18.837C67.2851 19.4858 66.6694 19.9855 65.9622 20.2791C65.1158 20.645 64.2086 20.8241 63.2955 20.8055ZM75.2008 20.8055C74.1977 20.8253 73.2018 20.6212 72.277 20.2063C71.4822 19.8553 70.7847 19.2933 70.2508 18.5738C69.7629 17.8928 69.4736 17.0739 69.4188 16.2188H73.2219C73.2416 16.441 73.306 16.656 73.4106 16.8493C73.5152 17.0426 73.6576 17.2096 73.8282 17.3389C74.2136 17.6363 74.6807 17.789 75.1562 17.7729C75.5419 17.8021 75.9266 17.7043 76.2586 17.4929C76.3831 17.4076 76.4856 17.2904 76.5567 17.152C76.6277 17.0135 76.6651 16.8583 76.6654 16.7004C76.6665 16.5148 76.6125 16.3335 76.5111 16.1826C76.4098 16.0317 76.2662 15.9189 76.1011 15.8604C75.5133 15.5926 74.9036 15.3835 74.2796 15.2359C73.5159 15.0546 72.7637 14.8217 72.0277 14.5387C71.4296 14.2852 70.8976 13.8818 70.4765 13.3626C70.0169 12.7436 69.7845 11.967 69.823 11.1784C69.8153 10.4349 70.0194 9.70647 70.4083 9.08946C70.8472 8.41781 71.4562 7.89333 72.1642 7.57735C73.0393 7.18601 73.9818 6.99521 74.9305 7.01731C76.5053 7.01731 77.7432 7.43361 78.6444 8.2662C79.0991 8.68051 79.4723 9.1868 79.7426 9.75585C80.0129 10.3249 80.1749 10.9454 80.2191 11.5816H76.6549C76.6334 11.3624 76.5704 11.1501 76.4698 10.9576C76.3692 10.7651 76.2331 10.5963 76.0696 10.4616C75.707 10.1731 75.2615 10.0286 74.8098 10.0527C74.4451 10.0261 74.0819 10.1242 73.7731 10.3328C73.6584 10.4137 73.5651 10.5247 73.5021 10.6551C73.4392 10.7855 73.4086 10.931 73.4135 11.0776C73.4134 11.2657 73.4672 11.4493 73.5676 11.6039C73.6679 11.7585 73.8101 11.8768 73.9751 11.9429C74.5566 12.1963 75.1595 12.3895 75.7756 12.5197C76.5487 12.7201 77.3081 12.9765 78.0486 13.287C78.6473 13.5477 79.1713 13.9716 79.5682 14.5163C80.0448 15.1377 80.293 15.9231 80.2664 16.7256C80.2742 17.4833 80.0533 18.2235 79.6365 18.837C79.1825 19.4858 78.5668 19.9855 77.8596 20.2791C77.0123 20.6453 76.1043 20.8244 75.1903 20.8055H75.2008Z" fill="#456EFF"/>
<path d="M15.845 0H20.0103C20.152 0.000187622 20.2915 0.03758 20.4165 0.108878C20.5414 0.180177 20.648 0.28319 20.7268 0.40883L26.0574 8.96065C26.1592 9.12526 26.308 9.25043 26.4817 9.31757C26.6555 9.3847 26.8449 9.39021 27.0218 9.33327C27.1988 9.27632 27.3537 9.15997 27.4637 9.00152C27.5737 8.84307 27.6328 8.65098 27.6322 8.45381V0.918467C27.6301 0.795661 27.6515 0.673692 27.6952 0.560041C27.7386 0.454006 27.802 0.358674 27.8816 0.28002C27.961 0.193434 28.0567 0.12569 28.1624 0.0812059C28.2653 0.0303313 28.377 0.00268551 28.4905 0L32.3093 0C32.5376 0 32.7566 0.0967667 32.918 0.269013C33.0795 0.441259 33.1702 0.674874 33.1702 0.918467V19.8478C33.1695 20.0909 33.0785 20.3238 32.9171 20.4955C32.7557 20.6671 32.5372 20.7635 32.3093 20.7635H28.0915C27.9499 20.7635 27.8103 20.727 27.6847 20.6571C27.5603 20.5841 27.4541 20.4804 27.375 20.3547L22.089 11.8841C21.986 11.721 21.8366 11.5975 21.6629 11.5317C21.4892 11.466 21.3003 11.4615 21.124 11.5188C20.9476 11.5762 20.7933 11.6924 20.6835 11.8504C20.5737 12.0084 20.5144 12.1998 20.5142 12.3965V19.8478C20.5132 19.9679 20.491 20.0866 20.4486 20.1979C20.4018 20.3096 20.3349 20.4104 20.2518 20.4947C20.1727 20.5821 20.0782 20.6519 19.9737 20.7C19.8691 20.748 19.7567 20.7734 19.6429 20.7747H15.845C15.7352 20.7703 15.6272 20.7427 15.5274 20.6935C15.3174 20.6 15.1505 20.4219 15.0629 20.1979C15.0193 20.087 14.997 19.968 14.9973 19.8478V0.918467C14.9927 0.796239 15.0114 0.67429 15.0524 0.560041C15.0966 0.45454 15.16 0.359385 15.2387 0.28002C15.319 0.187829 15.4177 0.116056 15.5274 0.0700051C15.628 0.0246725 15.7359 0.000885751 15.845 0V0Z" fill="#456EFF"/>
<path d="M41.9547 1.65772C40.8961 0.552573 39.3038 0 37.1778 0H28.2882C28.1727 0.000240472 28.0584 0.0251387 27.952 0.073229C27.8456 0.121319 27.7493 0.191629 27.6688 0.28002C27.5861 0.36664 27.5204 0.469893 27.4753 0.583806C27.4302 0.697719 27.4068 0.820031 27.4064 0.943668V19.8282C27.406 19.9512 27.4284 20.0729 27.4724 20.1866C27.5163 20.3002 27.5809 20.4035 27.6623 20.4904C27.7438 20.5773 27.8406 20.6462 27.9471 20.6931C28.0536 20.7399 28.1678 20.7639 28.283 20.7635H32.4273C32.5431 20.7627 32.6577 20.7376 32.7644 20.6895C32.8711 20.6415 32.9679 20.5715 33.0493 20.4835C33.1313 20.3961 33.1964 20.2924 33.2409 20.1783C33.2848 20.0646 33.3071 19.9428 33.3065 19.8198V5.15797C33.3089 4.90856 33.4032 4.67016 33.569 4.49433C33.7338 4.3191 33.9558 4.21874 34.1884 4.21431H34.9758C36.0729 4.21431 36.8209 4.44206 37.2198 4.89756C37.4201 5.11735 37.5777 5.3772 37.6835 5.66216C37.7894 5.94713 37.8414 6.25159 37.8366 6.55808C37.8366 7.23012 37.645 7.51295 37.1883 7.94138C36.4193 9.15106 1.21258 8.62183 0.706029 8.72543C0.508595 8.76495 0.330329 8.87689 0.2021 9.04186C0.0718274 9.2052 0.000200493 9.41262 3.98915e-06 9.6271V12.1193C-0.000341354 12.2405 0.021739 12.3606 0.0649794 12.4727C0.10822 12.5848 0.17177 12.6867 0.251988 12.7725C0.332206 12.8584 0.427515 12.9265 0.532451 12.973C0.637387 13.0194 0.749888 13.0433 0.863506 13.0433H1.24408C3.60624 13.0433 36.8629 13.637 39.2119 12.0969C41.1463 11.6572 43.5452 8.84304 43.5452 6.37326C43.5452 4.33471 43.015 2.76287 41.9547 1.65772Z" fill="#456EFF"/>
</svg>
