<svg width="218" height="221" viewBox="0 0 218 221" fill="none" xmlns="http://www.w3.org/2000/svg">
<path fill-rule="evenodd" clip-rule="evenodd" d="M217.419 121.976L216.424 121.875C216.805 118.136 217 114.341 217 110.5C217 106.659 216.805 102.864 216.424 99.1253L217.419 99.024C217.803 102.796 218 106.625 218 110.5C218 114.375 217.803 118.204 217.419 121.976ZM208.713 65.7984L207.796 66.1987C204.733 59.1867 200.965 52.5618 196.583 46.4162L197.397 45.8356C201.819 52.0371 205.621 58.7225 208.713 65.7984ZM173.359 21.3088L172.762 22.1115C166.688 17.5992 160.131 13.7153 153.186 10.554L153.6 9.64382C160.611 12.8348 167.228 16.7548 173.359 21.3088ZM120.475 0.605023L120.369 1.59945C116.633 1.20318 112.84 1 109 1C105.16 1 101.367 1.20318 97.6305 1.59944L97.525 0.605021C101.296 0.205046 105.124 0 109 0C112.876 0 116.704 0.205047 120.475 0.605023ZM64.3995 9.64381L64.8138 10.554C57.8685 13.7153 51.3121 17.5992 45.2376 22.1115L44.6413 21.3088C50.7717 16.7548 57.3891 12.8348 64.3995 9.64381ZM20.6031 45.8356L21.4173 46.4162C17.0352 52.5618 13.267 59.1867 10.2038 66.1987L9.28743 65.7984C12.3786 58.7225 16.1811 52.0371 20.6031 45.8356ZM0.580728 99.024C0.196768 102.796 0 106.625 0 110.5C0 114.375 0.196768 118.204 0.580727 121.976L1.57559 121.875C1.19505 118.136 1 114.341 1 110.5C1 106.659 1.19505 102.864 1.57559 99.1253L0.580728 99.024ZM9.28742 155.202L10.2038 154.801C13.267 161.813 17.0352 168.438 21.4173 174.584L20.6031 175.164C16.1811 168.963 12.3786 162.278 9.28742 155.202ZM44.6413 199.691L45.2376 198.888C51.312 203.401 57.8685 207.285 64.8138 210.446L64.3995 211.356C57.3891 208.165 50.7717 204.245 44.6413 199.691ZM97.525 220.395L97.6305 219.401C101.367 219.797 105.16 220 109 220C112.84 220 116.633 219.797 120.369 219.401L120.475 220.395C116.704 220.795 112.876 221 109 221C105.124 221 101.296 220.795 97.525 220.395ZM153.6 211.356L153.186 210.446C160.131 207.285 166.688 203.401 172.762 198.888L173.359 199.691C167.228 204.245 160.611 208.165 153.6 211.356ZM197.397 175.164L196.583 174.584C200.965 168.438 204.733 161.813 207.796 154.801L208.713 155.202C205.621 162.278 201.819 168.963 197.397 175.164Z" fill="#6A8BFF"/>
</svg>
