<svg width="12" height="12" viewBox="0 0 12 12" fill="none" xmlns="http://www.w3.org/2000/svg">
<path d="M5.83366 10.8525C3.26116 10.8525 1.16699 8.79262 1.16699 6.2623C1.16699 3.73197 3.26116 1.67213 5.83366 1.67213C8.40616 1.67213 10.5003 3.73197 10.5003 6.26229C10.5003 8.79262 8.40616 10.8525 5.83366 10.8525ZM5.83366 12C9.05541 12 11.667 9.43123 11.667 6.26229C11.667 3.09336 9.05541 0.524589 5.83366 0.524589C2.61191 0.524589 0.000326319 3.09336 0.0003266 6.2623C0.000326882 9.43123 2.61191 12 5.83366 12ZM5.25033 4.54098L6.41699 4.54098L6.41699 3.39344L5.25033 3.39344L5.25033 4.54098ZM6.41699 5.68852L5.25033 5.68852L4.95866 9.13115L6.70866 9.13115L6.41699 5.68852Z" fill="black"/>
</svg>
