<svg width="187" height="45" viewBox="0 0 187 45" fill="none" xmlns="http://www.w3.org/2000/svg">
<path d="M107.198 29.6062C107.138 26.9283 107.663 24.2723 108.73 21.8481C109.683 19.7543 111.16 17.9823 112.998 16.7278C114.796 15.5324 117.436 14.9111 119.554 14.9374C121.271 14.8953 122.971 15.3183 124.493 16.1668C125.849 16.9027 126.993 18.0162 127.804 19.3894V15.379H136.005V43.9348H127.816V39.8886C126.978 41.2557 125.822 42.3663 124.459 43.1112C122.933 43.9644 121.227 44.3876 119.504 44.3406C117.402 44.3619 114.779 43.7407 112.998 42.5503C111.165 41.2698 109.69 39.484 108.73 37.3822C107.671 34.9486 107.147 32.2889 107.198 29.6062ZM125.338 29.6539C125.338 27.4697 124.778 25.751 123.66 24.4859C123.157 23.8804 122.539 23.3979 121.845 23.0714C121.152 22.7448 120.401 22.582 119.643 22.5941C118.882 22.5831 118.127 22.7444 117.428 23.0674C116.729 23.3904 116.102 23.8677 115.588 24.4679C114.499 25.6973 113.955 27.4041 113.955 29.5883C113.955 31.7725 114.499 33.5171 115.588 34.822C116.1 35.4279 116.727 35.9106 117.427 36.2378C118.127 36.5651 118.885 36.7293 119.649 36.7198C120.407 36.7323 121.159 36.5691 121.852 36.2414C122.546 35.9138 123.164 35.4295 123.665 34.822C124.784 33.5628 125.349 31.8381 125.349 29.6539H125.338ZM150.828 44.3406C148.688 44.3827 146.564 43.9477 144.591 43.0635C142.897 42.3155 141.41 41.1179 140.273 39.5843C139.237 38.1304 138.621 36.3865 138.499 34.5654H146.604C146.646 35.0396 146.784 35.4986 147.008 35.9106C147.232 36.3227 147.537 36.6781 147.902 36.9525C148.723 37.5873 149.719 37.9127 150.733 37.8775C151.554 37.9381 152.374 37.7299 153.082 37.2807C153.347 37.0988 153.564 36.8487 153.715 36.5536C153.865 36.2585 153.944 35.9278 153.943 35.5919C153.947 35.1967 153.833 34.8105 153.618 34.4888C153.403 34.1671 153.098 33.9265 152.746 33.8015C151.492 33.231 150.19 32.7855 148.859 32.4707C147.233 32.0853 145.631 31.5889 144.065 30.9847C142.789 30.4445 141.653 29.5849 140.754 28.4783C139.774 27.1591 139.279 25.5042 139.361 23.8234C139.347 22.2393 139.782 20.6877 140.608 19.3715C141.546 17.9428 142.843 16.8257 144.35 16.1489C146.217 15.3144 148.228 14.9078 150.251 14.9553C153.608 14.9553 156.246 15.8425 158.166 17.617C159.134 18.5016 159.928 19.5811 160.504 20.7935C161.08 22.0059 161.426 23.3275 161.523 24.6828H153.921C153.876 24.2152 153.743 23.7623 153.528 23.3518C153.314 22.9413 153.023 22.5819 152.673 22.2957C151.893 21.7022 150.945 21.4154 149.989 21.4841C149.211 21.4273 148.437 21.6364 147.779 22.0808C147.535 22.2533 147.336 22.4899 147.202 22.7678C147.068 23.0458 147.002 23.3558 147.013 23.6683C147.014 24.0696 147.13 24.461 147.344 24.7904C147.559 25.1199 147.863 25.3717 148.215 25.5123C149.454 26.0542 150.739 26.4659 152.053 26.7417C153.7 27.1697 155.318 27.716 156.897 28.3768C158.174 28.9137 159.297 29.796 160.158 30.937C161.171 32.2628 161.7 33.9357 161.646 35.6456C161.66 37.2609 161.188 38.8384 160.298 40.1453C159.33 41.528 158.018 42.593 156.511 43.2187C154.707 43.9984 152.774 44.3801 150.828 44.3406ZM176.2 44.3406C174.062 44.3828 171.94 43.9478 169.969 43.0635C168.275 42.3155 166.788 41.1179 165.651 39.5843C164.611 38.1331 163.994 36.3877 163.877 34.5654H171.983C172.025 35.0389 172.162 35.4973 172.385 35.9092C172.608 36.3211 172.911 36.6769 173.275 36.9525C174.096 37.5865 175.092 37.9118 176.105 37.8775C176.927 37.9397 177.747 37.7314 178.454 37.2807C178.72 37.0991 178.938 36.8492 179.09 36.5542C179.241 36.2591 179.321 35.9283 179.321 35.5919C179.324 35.1962 179.209 34.8099 178.993 34.4883C178.777 34.1667 178.471 33.9263 178.119 33.8015C176.866 33.2308 175.566 32.7853 174.237 32.4707C172.609 32.0843 171.006 31.588 169.437 30.9847C168.163 30.4445 167.029 29.5848 166.132 28.4783C165.152 27.1591 164.657 25.5042 164.739 23.8234C164.722 22.2389 165.157 20.6864 165.986 19.3715C166.922 17.9401 168.219 16.8223 169.728 16.1489C171.593 15.3149 173.602 14.9082 175.624 14.9553C178.98 14.9553 181.618 15.8425 183.539 17.617C184.508 18.4999 185.303 19.5789 185.879 20.7917C186.455 22.0044 186.801 23.3269 186.895 24.6828H179.299C179.253 24.2156 179.119 23.7631 178.905 23.3528C178.69 22.9425 178.4 22.5829 178.052 22.2957C177.279 21.681 176.329 21.3729 175.367 21.4244C174.589 21.3676 173.815 21.5767 173.157 22.0212C172.913 22.1936 172.714 22.4302 172.58 22.7081C172.446 22.9861 172.381 23.2961 172.391 23.6086C172.391 24.0094 172.505 24.4007 172.719 24.7302C172.933 25.0597 173.236 25.3117 173.588 25.4526C174.827 25.9928 176.112 26.4044 177.425 26.682C179.073 27.1092 180.691 27.6555 182.269 28.3172C183.545 28.8728 184.662 29.7762 185.508 30.937C186.524 32.2615 187.052 33.9353 186.996 35.6456C187.012 37.2603 186.542 38.8379 185.653 40.1453C184.686 41.528 183.374 42.593 181.866 43.2187C180.061 43.9991 178.126 44.3808 176.178 44.3406H176.2Z" fill="white"/>
<path d="M49.7008 0H58.5778C58.8798 0.000399858 59.177 0.0800901 59.4433 0.23204C59.7097 0.383991 59.9368 0.603531 60.1048 0.871293L71.4654 19.0968C71.6821 19.4476 71.9993 19.7144 72.3696 19.8575C72.7399 20.0006 73.1436 20.0123 73.5207 19.891C73.8977 19.7696 74.228 19.5216 74.4624 19.1839C74.6968 18.8463 74.8227 18.4369 74.8215 18.0167V1.95743C74.817 1.6957 74.8627 1.43576 74.9557 1.19355C75.0482 0.967572 75.1834 0.764402 75.3529 0.596776C75.5223 0.412244 75.7262 0.267869 75.9514 0.173065C76.1708 0.0646418 76.4088 0.00572332 76.6506 0L84.7892 0C85.2758 0 85.7425 0.206228 86.0866 0.573317C86.4306 0.940406 86.6239 1.43828 86.6239 1.95743V42.2995C86.6225 42.8176 86.4285 43.314 86.0846 43.6798C85.7407 44.0456 85.2749 44.251 84.7892 44.251H75.8004C75.4985 44.251 75.201 44.1732 74.9334 44.0242C74.6683 43.8686 74.442 43.6476 74.2733 43.3797L63.0079 25.3272C62.7883 24.9796 62.47 24.7164 62.0998 24.5763C61.7295 24.4362 61.3269 24.4265 60.9512 24.5488C60.5754 24.6711 60.2464 24.9188 60.0125 25.2555C59.7785 25.5922 59.6521 26.0002 59.6517 26.4193V42.2995C59.6496 42.5553 59.6022 42.8084 59.5119 43.0455C59.4121 43.2835 59.2695 43.4984 59.0924 43.6781C58.924 43.8644 58.7225 44.0131 58.4997 44.1156C58.2769 44.218 58.0373 44.2722 57.7947 44.2748H49.7008C49.4666 44.2654 49.2366 44.2066 49.0239 44.1018C48.5764 43.9026 48.2206 43.523 48.0339 43.0455C47.941 42.8093 47.8934 42.5556 47.894 42.2995V1.95743C47.8842 1.69694 47.9242 1.43704 48.0115 1.19355C48.1058 0.968711 48.2408 0.765918 48.4086 0.596776C48.5797 0.400299 48.79 0.247338 49.0239 0.149194C49.2382 0.0525818 49.4682 0.0018877 49.7008 0V0Z" fill="white"/>
<path d="M105.346 3.53292C103.09 1.17764 99.6967 0 95.1659 0H76.2204C75.9742 0.000512491 75.7306 0.0535754 75.5039 0.156065C75.2771 0.258554 75.0719 0.408399 74.9003 0.596776C74.7241 0.781379 74.5839 1.00143 74.4879 1.2442C74.3919 1.48697 74.342 1.74764 74.341 2.01114V42.2577C74.3402 42.5197 74.3881 42.7793 74.4817 43.0214C74.5753 43.2636 74.7129 43.4837 74.8865 43.6689C75.0602 43.8542 75.2664 44.0009 75.4934 44.1008C75.7204 44.2007 75.9637 44.2517 76.2092 44.251H85.0415C85.2884 44.2493 85.5325 44.1957 85.76 44.0933C85.9874 43.9909 86.1938 43.8417 86.3672 43.6542C86.5419 43.468 86.6806 43.247 86.7755 43.0037C86.869 42.7614 86.9165 42.5018 86.9153 42.2398V10.9926C86.9204 10.4611 87.1213 9.953 87.4747 9.57826C87.8259 9.20481 88.299 8.99094 88.7948 8.98148H90.4729C92.811 8.98148 94.4051 9.46686 95.2554 10.4376C95.6821 10.9061 96.018 11.4598 96.2435 12.0671C96.4691 12.6745 96.58 13.3233 96.5698 13.9765C96.5698 15.4088 96.1615 16.0115 95.1882 16.9246C93.5493 19.5026 18.5171 18.3747 17.4375 18.5955C17.0168 18.6798 16.6369 18.9183 16.3636 19.2699C16.0859 19.618 15.9333 20.0601 15.9329 20.5172V25.8285C15.9321 26.0868 15.9792 26.3428 16.0713 26.5817C16.1635 26.8206 16.2989 27.0377 16.4699 27.2207C16.6409 27.4036 16.844 27.5488 17.0676 27.6478C17.2913 27.7469 17.531 27.7978 17.7732 27.7978H18.5842C23.6184 27.7978 94.4946 29.063 99.5009 25.7807C103.623 24.8438 108.736 18.8462 108.736 13.5826C108.736 9.2381 107.606 5.88819 105.346 3.53292Z" fill="white"/>
<ellipse cx="9.38339" cy="23.1773" rx="2.681" ry="4.0215" fill="white"/>
<ellipse cx="1.67562" cy="23.1773" rx="1.67562" ry="2.01075" fill="white"/>
</svg>
