<svg width="102" height="102" viewBox="0 0 102 102" fill="none" xmlns="http://www.w3.org/2000/svg">
<g opacity="0.1">
<mask id="mask0_3510_1929" style="mask-type:alpha" maskUnits="userSpaceOnUse" x="0" y="0" width="102" height="102">
<circle cx="51" cy="51" r="51" transform="rotate(90 51 51)" fill="#3A1C1C"/>
</mask>
<g mask="url(#mask0_3510_1929)">
<rect x="131.079" y="14.7368" width="2.68421" height="146.737" transform="rotate(90 131.079 14.7368)" fill="white"/>
<rect x="131.079" y="85.4211" width="2.68421" height="146.737" transform="rotate(90 131.079 85.4211)" fill="white"/>
<rect x="131.079" y="50.079" width="2.68421" height="146.737" transform="rotate(90 131.079 50.079)" fill="white"/>
<rect x="131.079" y="7.57895" width="3.13158" height="146.737" transform="rotate(90 131.079 7.57895)" fill="white"/>
<rect x="131.079" y="78.2632" width="3.13158" height="146.737" transform="rotate(90 131.079 78.2632)" fill="white"/>
<rect x="131.079" y="42.9211" width="3.13158" height="146.737" transform="rotate(90 131.079 42.9211)" fill="white"/>
<rect x="131.079" y="0.421051" width="3.13158" height="146.737" transform="rotate(90 131.079 0.421051)" fill="white"/>
<rect x="131.079" y="71.1053" width="3.13158" height="146.737" transform="rotate(90 131.079 71.1053)" fill="white"/>
<rect x="131.079" y="35.7632" width="3.13158" height="146.737" transform="rotate(90 131.079 35.7632)" fill="white"/>
<rect x="131.079" y="63.9474" width="3.13158" height="146.737" transform="rotate(90 131.079 63.9474)" fill="white"/>
<rect x="131.079" y="28.6053" width="3.13158" height="146.737" transform="rotate(90 131.079 28.6053)" fill="white"/>
<rect x="131.079" y="99.2895" width="3.13158" height="146.737" transform="rotate(90 131.079 99.2895)" fill="white"/>
<rect x="131.079" y="56.7895" width="3.13158" height="146.737" transform="rotate(90 131.079 56.7895)" fill="white"/>
<rect x="131.079" y="21.4474" width="3.13158" height="146.737" transform="rotate(90 131.079 21.4474)" fill="white"/>
<rect x="131.079" y="92.1316" width="3.13158" height="146.737" transform="rotate(90 131.079 92.1316)" fill="white"/>
</g>
</g>
</svg>
