<svg width="356" height="356" viewBox="0 0 356 356" fill="none" xmlns="http://www.w3.org/2000/svg">
<g opacity="0.2">
<mask id="mask0_3510_1885" style="mask-type:alpha" maskUnits="userSpaceOnUse" x="38" y="38" width="280" height="280">
<circle cx="177.99" cy="177.99" r="139.629" transform="rotate(109.339 177.99 177.99)" fill="#3A1C1C"/>
</mask>
<g mask="url(#mask0_3510_1885)">
<rect x="418.635" y="156.006" width="7.3489" height="401.74" transform="rotate(109.339 418.635 156.006)" fill="white"/>
<rect x="354.548" y="338.608" width="7.3489" height="401.74" transform="rotate(109.339 354.548 338.608)" fill="white"/>
<rect x="386.592" y="247.307" width="7.3489" height="401.74" transform="rotate(109.339 386.592 247.307)" fill="white"/>
<rect x="322.505" y="429.908" width="7.3489" height="401.74" transform="rotate(109.339 322.505 429.908)" fill="white"/>
<rect x="425.125" y="137.515" width="8.57372" height="401.74" transform="rotate(109.339 425.125 137.515)" fill="white"/>
<rect x="361.038" y="320.116" width="8.57372" height="401.74" transform="rotate(109.339 361.038 320.116)" fill="white"/>
<rect x="393.082" y="228.816" width="8.57372" height="401.74" transform="rotate(109.339 393.082 228.816)" fill="white"/>
<rect x="328.995" y="411.417" width="8.57372" height="401.74" transform="rotate(109.339 328.995 411.417)" fill="white"/>
<rect x="431.614" y="119.024" width="8.57372" height="401.74" transform="rotate(109.339 431.614 119.024)" fill="white"/>
<rect x="367.527" y="301.625" width="8.57372" height="401.74" transform="rotate(109.339 367.527 301.625)" fill="white"/>
<rect x="399.571" y="210.324" width="8.57372" height="401.74" transform="rotate(109.339 399.571 210.324)" fill="white"/>
<rect x="335.484" y="392.926" width="8.57372" height="401.74" transform="rotate(109.339 335.484 392.926)" fill="white"/>
<rect x="438.104" y="100.532" width="8.57372" height="401.74" transform="rotate(109.339 438.104 100.532)" fill="white"/>
<rect x="374.018" y="283.134" width="8.57372" height="401.74" transform="rotate(109.339 374.018 283.134)" fill="white"/>
<rect x="406.061" y="191.833" width="8.57372" height="401.74" transform="rotate(109.339 406.061 191.833)" fill="white"/>
<rect x="341.974" y="374.434" width="8.57372" height="401.74" transform="rotate(109.339 341.974 374.434)" fill="white"/>
<rect x="444.594" y="82.041" width="8.57372" height="401.74" transform="rotate(109.339 444.594 82.041)" fill="white"/>
<rect x="380.508" y="264.642" width="8.57372" height="401.74" transform="rotate(109.339 380.508 264.642)" fill="white"/>
<rect x="412.551" y="173.342" width="8.57372" height="401.74" transform="rotate(109.339 412.551 173.342)" fill="white"/>
<rect x="348.464" y="355.943" width="8.57372" height="401.74" transform="rotate(109.339 348.464 355.943)" fill="white"/>
</g>
</g>
</svg>
