<svg width="74" height="74" viewBox="0 0 74 74" fill="none" xmlns="http://www.w3.org/2000/svg">
<g opacity="0.4">
<mask id="mask0_3510_1907" style="mask-type:alpha" maskUnits="userSpaceOnUse" x="0" y="0" width="74" height="74">
<circle cx="37" cy="37" r="37" fill="#3A1C1C"/>
</mask>
<g mask="url(#mask0_3510_1907)">
<rect x="5.78955" y="-21.0965" width="1.94737" height="106.456" fill="white"/>
<rect x="57.0703" y="-21.0965" width="1.94737" height="106.456" fill="white"/>
<rect x="31.4297" y="-21.0965" width="1.94737" height="106.456" fill="white"/>
<rect x="0.59668" y="-21.0965" width="2.27193" height="106.456" fill="white"/>
<rect x="51.877" y="-21.0965" width="2.27193" height="106.456" fill="white"/>
<rect x="26.2368" y="-21.0965" width="2.27193" height="106.456" fill="white"/>
<rect x="46.6841" y="-21.0965" width="2.27193" height="106.456" fill="white"/>
<rect x="21.0439" y="-21.0965" width="2.27193" height="106.456" fill="white"/>
<rect x="72.3247" y="-21.0965" width="2.27193" height="106.456" fill="white"/>
<rect x="41.4912" y="-21.0965" width="2.27193" height="106.456" fill="white"/>
<rect x="15.8511" y="-21.0965" width="2.27193" height="106.456" fill="white"/>
<rect x="67.1313" y="-21.0965" width="2.27193" height="106.456" fill="white"/>
<rect x="36.2983" y="-21.0965" width="2.27193" height="106.456" fill="white"/>
<rect x="10.6577" y="-21.0965" width="2.27193" height="106.456" fill="white"/>
<rect x="61.9385" y="-21.0965" width="2.27193" height="106.456" fill="white"/>
</g>
</g>
</svg>
