<svg width="175" height="175" viewBox="0 0 175 175" fill="none" xmlns="http://www.w3.org/2000/svg">
<g opacity="0.3">
<mask id="mask0_3510_1863" style="mask-type:alpha" maskUnits="userSpaceOnUse" x="0" y="0" width="175" height="175">
<circle cx="87.3032" cy="87.3032" r="87.3032" fill="#3A1C1C"/>
</mask>
<g mask="url(#mask0_3510_1863)">
<rect x="12.3799" y="-49.7784" width="4.59491" height="251.188" fill="#BBBBBB"/>
<rect x="133.379" y="-49.7784" width="4.59491" height="251.188" fill="#BBBBBB"/>
<rect x="72.8794" y="-49.7784" width="4.59491" height="251.188" fill="#BBBBBB"/>
<rect x="0.126465" y="-49.7784" width="5.36072" height="251.188" fill="#BBBBBB"/>
<rect x="121.126" y="-49.7784" width="5.36072" height="251.188" fill="#BBBBBB"/>
<rect x="60.6265" y="-49.7784" width="5.36072" height="251.188" fill="#BBBBBB"/>
<rect x="108.873" y="-49.7784" width="5.36072" height="251.188" fill="#BBBBBB"/>
<rect x="48.373" y="-49.7784" width="5.36072" height="251.188" fill="#BBBBBB"/>
<rect x="169.372" y="-49.7784" width="5.36072" height="251.188" fill="#BBBBBB"/>
<rect x="96.6196" y="-49.7784" width="5.36072" height="251.188" fill="#BBBBBB"/>
<rect x="36.1201" y="-49.7784" width="5.36072" height="251.188" fill="#BBBBBB"/>
<rect x="157.119" y="-49.7784" width="5.36072" height="251.188" fill="#BBBBBB"/>
<rect x="84.3667" y="-49.7784" width="5.36072" height="251.188" fill="#BBBBBB"/>
<rect x="23.8672" y="-49.7784" width="5.36072" height="251.188" fill="#BBBBBB"/>
<rect x="144.866" y="-49.7784" width="5.36072" height="251.188" fill="#BBBBBB"/>
</g>
</g>
</svg>
