<svg width="38" height="38" viewBox="0 0 38 38" fill="none" xmlns="http://www.w3.org/2000/svg">
<rect width="38" height="38" fill="#849AE1"/>
<path d="M14.5 11C14.6326 11 14.7598 11.0527 14.8536 11.1464C14.9473 11.2402 15 11.3674 15 11.5V12H23V11.5C23 11.3674 23.0527 11.2402 23.1464 11.1464C23.2402 11.0527 23.3674 11 23.5 11C23.6326 11 23.7598 11.0527 23.8536 11.1464C23.9473 11.2402 24 11.3674 24 11.5V12H25C25.5304 12 26.0391 12.2107 26.4142 12.5858C26.7893 12.9609 27 13.4696 27 14V25C27 25.5304 26.7893 26.0391 26.4142 26.4142C26.0391 26.7893 25.5304 27 25 27H13C12.4696 27 11.9609 26.7893 11.5858 26.4142C11.2107 26.0391 11 25.5304 11 25V16H27V15H11V14C11 13.4696 11.2107 12.9609 11.5858 12.5858C11.9609 12.2107 12.4696 12 13 12H14V11.5C14 11.3674 14.0527 11.2402 14.1464 11.1464C14.2402 11.0527 14.3674 11 14.5 11V11Z" fill="white"/>
</svg>
