<svg width="20" height="20" viewBox="0 0 20 20" fill="none" xmlns="http://www.w3.org/2000/svg">
<path d="M10 0C4.47 0 0 4.47 0 10C0 15.53 4.47 20 10 20C15.53 20 20 15.53 20 10C20 4.47 15.53 0 10 0ZM14.29 12.89C14.3826 12.9826 14.456 13.0925 14.5061 13.2135C14.5562 13.3344 14.582 13.4641 14.582 13.595C14.582 13.7259 14.5562 13.8556 14.5061 13.9765C14.456 14.0975 14.3826 14.2074 14.29 14.3C14.1974 14.3926 14.0875 14.466 13.9665 14.5161C13.8456 14.5662 13.7159 14.592 13.585 14.592C13.4541 14.592 13.3244 14.5662 13.2035 14.5161C13.0825 14.466 12.9726 14.3926 12.88 14.3L10 11.41L7.11 14.3C6.92302 14.487 6.66943 14.592 6.405 14.592C6.14057 14.592 5.88698 14.487 5.7 14.3C5.51302 14.113 5.40798 13.8594 5.40798 13.595C5.40798 13.4641 5.43377 13.3344 5.48387 13.2135C5.53398 13.0925 5.60742 12.9826 5.7 12.89L8.59 10L5.71 7.11C5.61742 7.01742 5.54398 6.90751 5.49387 6.78654C5.44377 6.66558 5.41798 6.53593 5.41798 6.405C5.41798 6.14057 5.52302 5.88698 5.71 5.7C5.89698 5.51302 6.15057 5.40798 6.415 5.40798C6.67943 5.40798 6.93302 5.51302 7.12 5.7L10 8.59L12.89 5.7C12.9826 5.60742 13.0925 5.53398 13.2135 5.48387C13.3344 5.43377 13.4641 5.40798 13.595 5.40798C13.7259 5.40798 13.8556 5.43377 13.9765 5.48387C14.0975 5.53398 14.2074 5.60742 14.3 5.7C14.3926 5.79258 14.466 5.90249 14.5161 6.02346C14.5662 6.14442 14.592 6.27407 14.592 6.405C14.592 6.53593 14.5662 6.66558 14.5161 6.78654C14.466 6.90751 14.3926 7.01742 14.3 7.11L11.41 10L14.29 12.89Z" fill="white"/>
</svg>
