<svg width="18" height="18" viewBox="0 0 18 18" fill="none" xmlns="http://www.w3.org/2000/svg">
<path d="M10.1932 8.99951L13.533 5.65967C13.6916 5.50144 13.7807 5.28672 13.7809 5.06276C13.7811 4.83879 13.6923 4.62392 13.5341 4.46541C13.3759 4.3069 13.1612 4.21774 12.9372 4.21754C12.7132 4.21735 12.4984 4.30613 12.3398 4.46435L9 7.8042L5.66016 4.46435C5.50165 4.30585 5.28666 4.2168 5.0625 4.2168C4.83833 4.2168 4.62335 4.30585 4.46484 4.46435C4.30633 4.62286 4.21729 4.83785 4.21729 5.06201C4.21729 5.28617 4.30633 5.50116 4.46484 5.65967L7.80469 8.99951L4.46484 12.3394C4.30633 12.4979 4.21729 12.7128 4.21729 12.937C4.21729 13.1612 4.30633 13.3762 4.46484 13.5347C4.62335 13.6932 4.83833 13.7822 5.0625 13.7822C5.28666 13.7822 5.50165 13.6932 5.66016 13.5347L9 10.1948L12.3398 13.5347C12.4984 13.6932 12.7133 13.7822 12.9375 13.7822C13.1617 13.7822 13.3766 13.6932 13.5352 13.5347C13.6937 13.3762 13.7827 13.1612 13.7827 12.937C13.7827 12.7128 13.6937 12.4979 13.5352 12.3394L10.1932 8.99951Z" fill="#838383"/>
</svg>
