<svg width="13" height="17" viewBox="0 0 13 17" fill="none" xmlns="http://www.w3.org/2000/svg">
<path fill-rule="evenodd" clip-rule="evenodd" d="M0.846436 5.38965L1.90055 16.2972C1.90055 16.686 2.21626 16.9995 2.60397 16.9995H10.3992C10.5826 17.0026 10.7597 16.9304 10.8916 16.7987C11.0235 16.667 11.0994 16.4866 11.1027 16.2972L12.1568 5.38965H0.846436ZM7.06928 14.9467H5.96684V7.42538H7.06928V14.9467ZM9.12608 14.9467H8.02364L9.05204 7.42538H10.1545L9.12608 14.9467ZM5.01248 14.9467H3.91004L2.88164 7.42538H3.98408L5.01248 14.9467Z" fill="#BDC1D2"/>
<path fill-rule="evenodd" clip-rule="evenodd" d="M12.2544 2.23654H9.02729V0.753305C9.02729 0.336809 8.55834 0 8.14698 0H4.96409C4.55273 0 3.98196 0.23906 3.98196 0.653431V2.13667L0.747647 2.23654C0.650727 2.23514 0.55449 2.25349 0.464442 2.29055C0.374393 2.3276 0.292301 2.38264 0.22286 2.45251C0.153419 2.52238 0.0979929 2.6057 0.0597523 2.69772C0.0215117 2.78974 0.00120715 2.88865 0 2.98878V4.21596H13V2.98878C12.9991 2.88875 12.979 2.78989 12.941 2.69788C12.903 2.60588 12.8477 2.52253 12.7785 2.45264C12.7092 2.38274 12.6272 2.32767 12.5373 2.29059C12.4474 2.2535 12.3512 2.23514 12.2544 2.23654ZM4.92398 1.52999C4.92398 1.19849 5.28495 0.929679 5.72921 0.929679H7.33763C7.7819 0.929679 8.14184 1.19955 8.14184 1.52999V2.23654H4.92295V1.52999H4.92398Z" fill="#BDC1D2"/>
</svg>
