<svg width="15" height="17" viewBox="0 0 15 17" fill="none" xmlns="http://www.w3.org/2000/svg">
<path d="M7.5002 0.1875C8.15202 0.187408 8.78034 0.43099 9.26177 0.870417C9.74321 1.30984 10.043 1.91337 10.1022 2.5625H14.1502C14.3307 2.56256 14.5045 2.63113 14.6364 2.75437C14.7683 2.87762 14.8485 3.04633 14.8608 3.22644C14.8731 3.40654 14.8166 3.5846 14.7027 3.72463C14.5888 3.86467 14.4259 3.95624 14.2471 3.98085L14.1502 3.9875H13.5963L12.3927 14.4185C12.3391 14.8815 12.1172 15.3087 11.7691 15.6187C11.421 15.9288 10.9712 16.1001 10.505 16.1H4.49535C4.02923 16.1001 3.57935 15.9288 3.23129 15.6187C2.88324 15.3087 2.6613 14.8815 2.6077 14.4185L1.4031 3.9875H0.850195C0.67802 3.98749 0.51167 3.92514 0.381911 3.81197C0.252152 3.6988 0.167761 3.54248 0.144345 3.3719L0.137695 3.275C0.137703 3.10282 0.200056 2.93648 0.313224 2.80672C0.426392 2.67696 0.582719 2.59257 0.753295 2.56915L0.850195 2.5625H4.89815C4.9574 1.91337 5.25718 1.30984 5.73862 0.870417C6.22005 0.43099 6.84837 0.187408 7.5002 0.1875ZM6.0752 6.125C5.84245 6.125 5.6477 6.27225 5.6078 6.46605L5.6002 6.5411V12.3598L5.6078 12.434C5.6477 12.6278 5.84245 12.775 6.0752 12.775C6.30795 12.775 6.5027 12.6278 6.54259 12.434L6.5502 12.3589V6.54205L6.54259 6.46605C6.5027 6.2732 6.30795 6.125 6.0752 6.125ZM8.92519 6.125C8.69244 6.125 8.4977 6.27225 8.4578 6.46605L8.4502 6.5411V12.3598L8.4578 12.434C8.4977 12.6278 8.69244 12.775 8.92519 12.775C9.15795 12.775 9.35269 12.6278 9.3926 12.434L9.4002 12.3589V6.54205L9.3926 6.46605C9.35269 6.2732 9.15795 6.12595 8.92519 6.12595V6.125ZM7.5002 1.6125C6.92545 1.6125 6.44569 2.021 6.33644 2.5625H8.66395C8.55375 2.021 8.07495 1.6125 7.5002 1.6125Z" fill="white"/>
</svg>
