<svg width="18" height="18" viewBox="0 0 18 18" fill="none" xmlns="http://www.w3.org/2000/svg">
<path d="M16.3415 1.1102L16.784 1.5527C17.3937 2.1632 17.3015 3.24545 16.5762 3.96995L7.45098 13.0952L4.49448 14.1767C4.12323 14.3132 3.76173 14.1362 3.68823 13.783C3.6634 13.6548 3.67509 13.5223 3.72198 13.4005L4.82448 10.4185L13.9242 1.31795C14.6495 0.593452 15.7317 0.500452 16.3415 1.11095V1.1102ZM7.05273 2.0177C7.15123 2.0177 7.24875 2.0371 7.33975 2.07479C7.43074 2.11248 7.51342 2.16773 7.58307 2.23737C7.65271 2.30702 7.70795 2.3897 7.74564 2.48069C7.78334 2.57168 7.80273 2.66921 7.80273 2.7677C7.80273 2.86619 7.78334 2.96372 7.74564 3.05471C7.70795 3.14571 7.65271 3.22839 7.58307 3.29803C7.51342 3.36768 7.43074 3.42292 7.33975 3.46061C7.24875 3.4983 7.15123 3.5177 7.05273 3.5177H4.05273C3.65491 3.5177 3.27338 3.67574 2.99207 3.95704C2.71077 4.23835 2.55273 4.61988 2.55273 5.0177V14.0177C2.55273 14.4155 2.71077 14.7971 2.99207 15.0784C3.27338 15.3597 3.65491 15.5177 4.05273 15.5177H13.0527C13.4506 15.5177 13.8321 15.3597 14.1134 15.0784C14.3947 14.7971 14.5527 14.4155 14.5527 14.0177V11.0177C14.5527 10.8188 14.6318 10.628 14.7724 10.4874C14.9131 10.3467 15.1038 10.2677 15.3027 10.2677C15.5016 10.2677 15.6924 10.3467 15.8331 10.4874C15.9737 10.628 16.0527 10.8188 16.0527 11.0177V14.0177C16.0527 14.8134 15.7367 15.5764 15.1741 16.139C14.6114 16.7016 13.8484 17.0177 13.0527 17.0177H4.05273C3.25708 17.0177 2.49402 16.7016 1.93141 16.139C1.3688 15.5764 1.05273 14.8134 1.05273 14.0177V5.0177C1.05273 4.22205 1.3688 3.45899 1.93141 2.89638C2.49402 2.33377 3.25708 2.0177 4.05273 2.0177H7.05273Z" fill="#849AE1"/>
</svg>
