<svg width="11" height="11" viewBox="0 0 11 11" fill="none" xmlns="http://www.w3.org/2000/svg">
<rect x="11" y="11" width="11" height="11" rx="1" transform="rotate(-180 11 11)" fill="#8087A1"/>
<path d="M4.872 4.16C4.87733 4.14933 4.88 4.14133 4.88 4.136C4.88 4.13067 4.88267 4.12533 4.888 4.12C4.89867 4.10933 4.93867 4.104 5.008 4.104L5.6 4.104C5.62133 4.104 5.632 4.10933 5.632 4.12C5.648 4.136 5.656 4.18133 5.656 4.256L5.768 8.48C5.77333 8.592 5.768 8.65867 5.752 8.68C5.736 8.70133 5.69067 8.712 5.616 8.712L4.904 8.712C4.82933 8.712 4.78667 8.70133 4.776 8.68C4.76 8.65867 4.75467 8.592 4.76 8.48L4.872 4.256L4.872 4.16ZM5.264 2.496C5.424 2.496 5.55733 2.552 5.664 2.664C5.77067 2.77067 5.824 2.90133 5.824 3.056C5.824 3.21067 5.77067 3.344 5.664 3.456C5.55733 3.568 5.424 3.624 5.264 3.624C5.104 3.624 4.97067 3.568 4.864 3.456C4.752 3.344 4.696 3.21067 4.696 3.056C4.696 2.90133 4.752 2.77067 4.864 2.664C4.97067 2.552 5.104 2.496 5.264 2.496Z" fill="white"/>
</svg>
