<svg width="22" height="22" viewBox="0 0 22 22" fill="none" xmlns="http://www.w3.org/2000/svg">
<path d="M11 19.8C6.149 19.8 2.2 15.851 2.2 11C2.2 6.149 6.149 2.2 11 2.2C15.851 2.2 19.8 6.149 19.8 11C19.8 15.851 15.851 19.8 11 19.8ZM11 22C17.0753 22 22 17.0753 22 11C22 4.9247 17.0753 1.47682e-06 11 9.45698e-07C4.9247 4.14578e-07 -2.32193e-06 4.9247 -2.85305e-06 11C-3.38417e-06 17.0753 4.9247 22 11 22ZM9.9 7.7L12.1 7.7L12.1 5.5L9.9 5.5L9.9 7.7ZM12.1 9.9L9.9 9.9L9.35 16.5L12.65 16.5L12.1 9.9Z" fill="#A0A6BC"/>
</svg>
