<svg width="40" height="40" viewBox="0 0 40 40" fill="none" xmlns="http://www.w3.org/2000/svg">
<path d="M20 9.99984V14.9998L26.6667 8.33317L20 1.6665V6.6665C12.6334 6.6665 6.66669 12.6332 6.66669 19.9998C6.66669 22.6165 7.43335 25.0498 8.73335 27.0998L11.1667 24.6665C10.4167 23.2832 10 21.6832 10 19.9998C10 14.4832 14.4834 9.99984 20 9.99984ZM31.2667 12.8998L28.8334 15.3332C29.5667 16.7332 30 18.3165 30 19.9998C30 25.5165 25.5167 29.9998 20 29.9998V24.9998L13.3334 31.6665L20 38.3332V33.3332C27.3667 33.3332 33.3334 27.3665 33.3334 19.9998C33.3334 17.3832 32.5667 14.9498 31.2667 12.8998V12.8998Z" fill="white"/>
</svg>
