<svg width="40" height="40" viewBox="0 0 40 40" fill="none" xmlns="http://www.w3.org/2000/svg">
<path d="M28.4479 26.9688L24.9063 23.4375C26.0489 21.9817 26.669 20.184 26.6667 18.3333C26.6667 16.6852 26.1779 15.074 25.2622 13.7036C24.3466 12.3332 23.0451 11.2651 21.5224 10.6343C19.9996 10.0036 18.3241 9.83858 16.7076 10.1601C15.0911 10.4817 13.6062 11.2753 12.4408 12.4408C11.2753 13.6062 10.4817 15.0911 10.1601 16.7076C9.83858 18.3241 10.0036 19.9996 10.6343 21.5224C11.2651 23.0451 12.3332 24.3466 13.7036 25.2622C15.074 26.1779 16.6852 26.6667 18.3333 26.6667C20.184 26.669 21.9817 26.0489 23.4375 24.9063L26.9688 28.4479C27.0656 28.5456 27.1808 28.623 27.3077 28.6759C27.4347 28.7288 27.5708 28.756 27.7083 28.756C27.8458 28.756 27.982 28.7288 28.1089 28.6759C28.2359 28.623 28.3511 28.5456 28.4479 28.4479C28.5456 28.3511 28.623 28.2359 28.6759 28.1089C28.7288 27.982 28.756 27.8458 28.756 27.7083C28.756 27.5708 28.7288 27.4347 28.6759 27.3077C28.623 27.1808 28.5456 27.0656 28.4479 26.9688ZM12.0833 18.3333C12.0833 17.0972 12.4499 15.8888 13.1367 14.861C13.8234 13.8332 14.7995 13.0321 15.9416 12.5591C17.0836 12.086 18.3403 11.9623 19.5527 12.2034C20.765 12.4446 21.8787 13.0398 22.7528 13.9139C23.6268 14.788 24.2221 15.9016 24.4632 17.114C24.7044 18.3264 24.5806 19.5831 24.1076 20.7251C23.6345 21.8671 22.8335 22.8433 21.8057 23.53C20.7778 24.2168 19.5695 24.5833 18.3333 24.5833C16.6757 24.5833 15.086 23.9249 13.9139 22.7528C12.7418 21.5807 12.0833 19.9909 12.0833 18.3333Z" fill="#CACACA"/>
</svg>
