<svg width="20" height="20" viewBox="0 0 20 20" fill="none" xmlns="http://www.w3.org/2000/svg">
<path fill-rule="evenodd" clip-rule="evenodd" d="M11.7389 12.4438C9.28467 14.5084 5.62146 14.1926 3.55685 11.7384C1.49224 9.28419 1.80806 5.62097 4.26226 3.55636C6.71646 1.49175 10.3797 1.80757 12.4443 4.26177C14.5089 6.71597 14.1931 10.3792 11.7389 12.4438ZM12.7685 14.1822C9.47486 16.7262 4.73063 16.2404 2.02638 13.0259C-0.7493 9.72645 -0.324703 4.80158 2.97475 2.0259C6.2742 -0.749788 11.1991 -0.325191 13.9747 2.97426C16.3836 5.83769 16.3822 9.92534 14.1831 12.77C14.1911 12.7775 14.199 12.7851 14.2068 12.793L18.7901 17.3763C19.1807 17.7668 19.1807 18.4 18.7901 18.7905C18.3996 19.181 17.7665 19.181 17.3759 18.7905L12.7926 14.2072C12.7844 14.199 12.7763 14.1906 12.7685 14.1822Z" fill="white"/>
</svg>
