<svg width="58" height="43" viewBox="0 0 58 43" fill="none" xmlns="http://www.w3.org/2000/svg">
<path d="M22.2343 8H34.7448C35.4351 8 36 8.53061 36 9.20408V17C36 17.6735 35.4351 18.2449 34.7448 18.2449H29.8703V20.2653H33.4268C33.9498 20.2653 33.9916 21.9388 34.0544 22H22.9456C22.9456 22 22.9456 20.2653 23.5732 20.2653H27.1297V18.2449H22.2343C21.5439 18.2449 21 17.6735 21 17V9.20408C21 8.53061 21.5439 8 22.2343 8ZM22.2343 17H34.7448V9.20408H22.2343V17Z" fill="white"/>
<path d="M26.78 30.18C26.78 30.5533 26.69 30.9033 26.51 31.23C26.3367 31.5567 26.06 31.82 25.68 32.02C25.3067 32.22 24.8333 32.32 24.26 32.32H23.09V35H21.69V28.02H24.26C24.8 28.02 25.26 28.1133 25.64 28.3C26.02 28.4867 26.3033 28.7433 26.49 29.07C26.6833 29.3967 26.78 29.7667 26.78 30.18ZM24.2 31.19C24.5867 31.19 24.8733 31.1033 25.06 30.93C25.2467 30.75 25.34 30.5 25.34 30.18C25.34 29.5 24.96 29.16 24.2 29.16H23.09V31.19H24.2ZM28.384 31.5C28.384 30.8133 28.5373 30.2 28.844 29.66C29.1573 29.1133 29.5807 28.69 30.114 28.39C30.654 28.0833 31.2573 27.93 31.924 27.93C32.704 27.93 33.3873 28.13 33.974 28.53C34.5607 28.93 34.9707 29.4833 35.204 30.19H33.594C33.434 29.8567 33.2073 29.6067 32.914 29.44C32.6273 29.2733 32.294 29.19 31.914 29.19C31.5073 29.19 31.144 29.2867 30.824 29.48C30.5107 29.6667 30.264 29.9333 30.084 30.28C29.9107 30.6267 29.824 31.0333 29.824 31.5C29.824 31.96 29.9107 32.3667 30.084 32.72C30.264 33.0667 30.5107 33.3367 30.824 33.53C31.144 33.7167 31.5073 33.81 31.914 33.81C32.294 33.81 32.6273 33.7267 32.914 33.56C33.2073 33.3867 33.434 33.1333 33.594 32.8H35.204C34.9707 33.5133 34.5607 34.07 33.974 34.47C33.394 34.8633 32.7107 35.06 31.924 35.06C31.2573 35.06 30.654 34.91 30.114 34.61C29.5807 34.3033 29.1573 33.88 28.844 33.34C28.5373 32.8 28.384 32.1867 28.384 31.5Z" fill="white"/>
</svg>
