<svg width="23" height="20" viewBox="0 0 23 20" fill="none" xmlns="http://www.w3.org/2000/svg">
<path d="M21.5625 20H1.4375C1.0332 20 0.692546 19.8796 0.415527 19.6387C0.138509 19.3978 0 19.1016 0 18.75V6.25C0 5.91146 0.138509 5.61849 0.415527 5.37109C0.692546 5.1237 1.0332 5 1.4375 5H8.625V6.25C8.625 7.09635 8.89079 7.72461 9.42236 8.13477C9.95394 8.54492 10.6465 8.75 11.5 8.75C12.3385 8.75 13.0273 8.53516 13.5664 8.10547C14.1055 7.67578 14.375 7.05729 14.375 6.25V5H21.5625C21.9518 5 22.2887 5.1237 22.5732 5.37109C22.8577 5.61849 23 5.91146 23 6.25V18.75C23 19.1016 22.8615 19.3978 22.5845 19.6387C22.3075 19.8796 21.9668 20 21.5625 20ZM7.90625 15.7422V15.3906C9.34375 14.8828 10.0625 13.5026 10.0625 11.25C10.0625 10.4297 9.72933 9.80794 9.06299 9.38477C8.39665 8.96159 7.53564 8.75 6.47998 8.75C5.42432 8.75 4.55957 8.96159 3.88574 9.38477C3.21191 9.80794 2.875 10.4297 2.875 11.25C2.875 13.4375 3.59375 14.8047 5.03125 15.3516V15.7422C3.99805 15.8984 3.14453 16.1914 2.4707 16.6211C1.79688 17.0508 1.45247 17.5391 1.4375 18.0859C1.4375 18.2422 1.59847 18.3691 1.92041 18.4668C2.24235 18.5645 2.71403 18.6328 3.33545 18.6719C3.95687 18.7109 4.46973 18.7337 4.87402 18.7402C5.27832 18.7467 5.8099 18.75 6.46875 18.75C7.1276 18.75 7.65918 18.7467 8.06348 18.7402C8.46777 18.7337 8.98063 18.7109 9.60205 18.6719C10.2235 18.6328 10.6951 18.5645 11.0171 18.4668C11.339 18.3691 11.5 18.2422 11.5 18.0859C11.485 17.5391 11.1444 17.0508 10.478 16.6211C9.81169 16.1914 8.95443 15.8984 7.90625 15.7422ZM19.4062 11.25H13.6562C13.4616 11.25 13.2931 11.3118 13.1509 11.4355C13.0086 11.5592 12.9375 11.7057 12.9375 11.875C12.9375 12.0443 13.0086 12.1908 13.1509 12.3145C13.2931 12.4382 13.4616 12.5 13.6562 12.5H19.4062C19.6009 12.5 19.7694 12.4382 19.9116 12.3145C20.0539 12.1908 20.125 12.0443 20.125 11.875C20.125 11.7057 20.0539 11.5592 19.9116 11.4355C19.7694 11.3118 19.6009 11.25 19.4062 11.25ZM12.9375 14.375C12.9375 14.5443 13.0086 14.6908 13.1509 14.8145C13.2931 14.9382 13.4616 15 13.6562 15H16.5312C16.7259 15 16.8944 14.9382 17.0366 14.8145C17.1789 14.6908 17.25 14.5443 17.25 14.375C17.25 14.2057 17.1789 14.0592 17.0366 13.9355C16.8944 13.8118 16.7259 13.75 16.5312 13.75H13.6562C13.4616 13.75 13.2931 13.8118 13.1509 13.9355C13.0086 14.0592 12.9375 14.2057 12.9375 14.375ZM19.4062 16.25H13.6562C13.4616 16.25 13.2931 16.3118 13.1509 16.4355C13.0086 16.5592 12.9375 16.7057 12.9375 16.875C12.9375 17.0443 13.0086 17.1908 13.1509 17.3145C13.2931 17.4382 13.4616 17.5 13.6562 17.5H19.4062C19.6009 17.5 19.7694 17.4382 19.9116 17.3145C20.0539 17.1908 20.125 17.0443 20.125 16.875C20.125 16.7057 20.0539 16.5592 19.9116 16.4355C19.7694 16.3118 19.6009 16.25 19.4062 16.25ZM12.9375 2.5V6.25C12.9375 6.60156 12.7952 6.89779 12.5107 7.13867C12.2262 7.37956 11.8856 7.5 11.4888 7.5C11.092 7.5 10.755 7.37956 10.478 7.13867C10.201 6.89779 10.0625 6.60156 10.0625 6.25V2.5C9.6582 2.5 9.31755 2.37956 9.04053 2.13867C8.76351 1.89779 8.625 1.60482 8.625 1.25977C8.625 0.914714 8.76351 0.61849 9.04053 0.371094C9.31755 0.123698 9.6582 0 10.0625 0H12.9375C13.3268 0 13.6637 0.123698 13.9482 0.371094C14.2327 0.61849 14.375 0.914714 14.375 1.25977C14.375 1.60482 14.2365 1.89779 13.9595 2.13867C13.6825 2.37956 13.3418 2.5 12.9375 2.5Z" fill="white"/>
</svg>
