<svg width="62" height="43" viewBox="0 0 62 43" fill="none" xmlns="http://www.w3.org/2000/svg">
<rect x="26" y="8" width="9" height="13.177" rx="2" fill="white"/>
<rect x="26.8975" y="9.2749" width="7.17889" height="9.77651" fill="#0E2477"/>
<ellipse cx="30.4877" cy="19.9021" rx="0.44868" ry="0.425066" fill="#797C89"/>
<path d="M19.3 28.02V35H17.9V30.46L16.03 35H14.97L13.09 30.46V35H11.69V28.02H13.28L15.5 33.21L17.72 28.02H19.3ZM24.0941 35.09C23.5608 35.09 23.0808 34.9733 22.6541 34.74C22.2275 34.5 21.8908 34.1633 21.6441 33.73C21.4041 33.2967 21.2841 32.7967 21.2841 32.23C21.2841 31.6633 21.4075 31.1633 21.6541 30.73C21.9075 30.2967 22.2508 29.9633 22.6841 29.73C23.1175 29.49 23.6008 29.37 24.1341 29.37C24.6675 29.37 25.1508 29.49 25.5841 29.73C26.0175 29.9633 26.3575 30.2967 26.6041 30.73C26.8575 31.1633 26.9841 31.6633 26.9841 32.23C26.9841 32.7967 26.8541 33.2967 26.5941 33.73C26.3408 34.1633 25.9941 34.5 25.5541 34.74C25.1208 34.9733 24.6341 35.09 24.0941 35.09ZM24.0941 33.87C24.3475 33.87 24.5841 33.81 24.8041 33.69C25.0308 33.5633 25.2108 33.3767 25.3441 33.13C25.4775 32.8833 25.5441 32.5833 25.5441 32.23C25.5441 31.7033 25.4041 31.3 25.1241 31.02C24.8508 30.7333 24.5141 30.59 24.1141 30.59C23.7141 30.59 23.3775 30.7333 23.1041 31.02C22.8375 31.3 22.7041 31.7033 22.7041 32.23C22.7041 32.7567 22.8341 33.1633 23.0941 33.45C23.3608 33.73 23.6941 33.87 24.0941 33.87ZM30.3611 30.27C30.5411 30.0033 30.7878 29.7867 31.1011 29.62C31.4211 29.4533 31.7844 29.37 32.1911 29.37C32.6644 29.37 33.0911 29.4867 33.4711 29.72C33.8578 29.9533 34.1611 30.2867 34.3811 30.72C34.6078 31.1467 34.7211 31.6433 34.7211 32.21C34.7211 32.7767 34.6078 33.28 34.3811 33.72C34.1611 34.1533 33.8578 34.49 33.4711 34.73C33.0911 34.97 32.6644 35.09 32.1911 35.09C31.7778 35.09 31.4144 35.01 31.1011 34.85C30.7944 34.6833 30.5478 34.47 30.3611 34.21V35H28.9611V27.6H30.3611V30.27ZM33.2911 32.21C33.2911 31.8767 33.2211 31.59 33.0811 31.35C32.9478 31.1033 32.7678 30.9167 32.5411 30.79C32.3211 30.6633 32.0811 30.6 31.8211 30.6C31.5678 30.6 31.3278 30.6667 31.1011 30.8C30.8811 30.9267 30.7011 31.1133 30.5611 31.36C30.4278 31.6067 30.3611 31.8967 30.3611 32.23C30.3611 32.5633 30.4278 32.8533 30.5611 33.1C30.7011 33.3467 30.8811 33.5367 31.1011 33.67C31.3278 33.7967 31.5678 33.86 31.8211 33.86C32.0811 33.86 32.3211 33.7933 32.5411 33.66C32.7678 33.5267 32.9478 33.3367 33.0811 33.09C33.2211 32.8433 33.2911 32.55 33.2911 32.21ZM37.3984 28.8C37.1518 28.8 36.9451 28.7233 36.7784 28.57C36.6184 28.41 36.5384 28.2133 36.5384 27.98C36.5384 27.7467 36.6184 27.5533 36.7784 27.4C36.9451 27.24 37.1518 27.16 37.3984 27.16C37.6451 27.16 37.8484 27.24 38.0084 27.4C38.1751 27.5533 38.2584 27.7467 38.2584 27.98C38.2584 28.2133 38.1751 28.41 38.0084 28.57C37.8484 28.7233 37.6451 28.8 37.3984 28.8ZM38.0884 29.46V35H36.6884V29.46H38.0884ZM41.8216 27.6V35H40.4216V27.6H41.8216ZM49.3048 32.11C49.3048 32.31 49.2915 32.49 49.2648 32.65H45.2148C45.2482 33.05 45.3882 33.3633 45.6348 33.59C45.8815 33.8167 46.1848 33.93 46.5448 33.93C47.0648 33.93 47.4348 33.7067 47.6548 33.26H49.1648C49.0048 33.7933 48.6982 34.2333 48.2448 34.58C47.7915 34.92 47.2348 35.09 46.5748 35.09C46.0415 35.09 45.5615 34.9733 45.1348 34.74C44.7148 34.5 44.3848 34.1633 44.1448 33.73C43.9115 33.2967 43.7948 32.7967 43.7948 32.23C43.7948 31.6567 43.9115 31.1533 44.1448 30.72C44.3782 30.2867 44.7048 29.9533 45.1248 29.72C45.5448 29.4867 46.0282 29.37 46.5748 29.37C47.1015 29.37 47.5715 29.4833 47.9848 29.71C48.4048 29.9367 48.7282 30.26 48.9548 30.68C49.1882 31.0933 49.3048 31.57 49.3048 32.11ZM47.8548 31.71C47.8482 31.35 47.7182 31.0633 47.4648 30.85C47.2115 30.63 46.9015 30.52 46.5348 30.52C46.1882 30.52 45.8948 30.6267 45.6548 30.84C45.4215 31.0467 45.2782 31.3367 45.2248 31.71H47.8548Z" fill="white"/>
</svg>
