<svg fill="none" height="20" viewBox="0 0 24 20" width="24" xmlns="http://www.w3.org/2000/svg"><path d="m21.625 20h-19.25c-.38672 0-.71257-.1204-.97754-.3613s-.39746-.5371-.39746-.8887v-12.5c0-.33854.13249-.63151.39746-.87891.26497-.24739.59082-.37109.97754-.37109h6.875v1.25c0 .84635.25423 1.47461.7627 1.88477.5085.41015 1.1709.61523 1.9873.61523.8021 0 1.4609-.21484 1.9766-.64453.5156-.42969.7734-1.04818.7734-1.85547v-1.25h6.875c.3724 0 .6947.1237.9668.37109.2721.2474.4082.54037.4082.87891v12.5c0 .3516-.1325.6478-.3975.8887-.2649.2409-.5908.3613-.9775.3613zm-13.0625-4.2578v-.3516c1.375-.5078 2.0625-1.888 2.0625-4.1406 0-.8203-.3187-1.44206-.95605-1.86523-.63737-.42318-1.46094-.63477-2.47071-.63477-1.00976 0-1.83691.21159-2.48144.63477-.64453.42317-.9668 1.04493-.9668 1.86523 0 2.1875.6875 3.5547 2.0625 4.1016v.3906c-.98828.1562-1.80469.4492-2.44922.8789s-.97396.918-.98828 1.4648c0 .1563.15397.2832.46191.3809.30795.0977.75912.166 1.35352.2051.5944.039 1.08496.0618 1.47168.0683s.89518.0098 1.52539.0098 1.13867-.0033 1.52539-.0098.87728-.0293 1.47171-.0683c.5944-.0391 1.0455-.1074 1.3535-.2051.3079-.0977.4619-.2246.4619-.3809-.0143-.5468-.3402-1.0351-.9775-1.4648-.6374-.4297-1.4574-.7227-2.46-.8789zm11-4.4922h-5.5c-.1862 0-.3473.0618-.4834.1855s-.2041.2702-.2041.4395.068.3158.2041.4395.2972.1855.4834.1855h5.5c.1862 0 .3473-.0618.4834-.1855s.2041-.2702.2041-.4395-.068-.3158-.2041-.4395-.2972-.1855-.4834-.1855zm-6.1875 3.125c0 .1693.068.3158.2041.4395s.2972.1855.4834.1855h2.75c.1862 0 .3473-.0618.4834-.1855s.2041-.2702.2041-.4395-.068-.3158-.2041-.4395-.2972-.1855-.4834-.1855h-2.75c-.1862 0-.3473.0618-.4834.1855s-.2041.2702-.2041.4395zm6.1875 1.875h-5.5c-.1862 0-.3473.0618-.4834.1855s-.2041.2702-.2041.4395.068.3158.2041.4395.2972.1855.4834.1855h5.5c.1862 0 .3473-.0618.4834-.1855s.2041-.2702.2041-.4395-.068-.3158-.2041-.4395-.2972-.1855-.4834-.1855zm-6.1875-13.75v3.75c0 .35156-.1361.64779-.4082.88867-.2721.24089-.598.36133-.9775.36133-.3796 0-.7019-.12044-.9668-.36133-.265-.24088-.3975-.53711-.3975-.88867v-3.75c-.3867 0-.71257-.12044-.97754-.36133-.26497-.24088-.39746-.53385-.39746-.8789 0-.345056.13249-.64128.39746-.888676s.59084-.371094.97754-.371094h2.75c.3724 0 .6947.123698.9668.371094s.4082.54362.4082.888676c0 .34505-.1325.63802-.3975.8789-.2649.24089-.5908.36133-.9775.36133z" fill="#6176c0"/></svg>