<svg width="25" height="25" viewBox="0 0 25 25" fill="none" xmlns="http://www.w3.org/2000/svg">
<rect x="25" y="25" width="25" height="25" rx="3" transform="rotate(-180 25 25)" fill="#A94B4B"/>
<path d="M12.788 15.39C12.776 15.414 12.77 15.432 12.77 15.444C12.77 15.456 12.764 15.468 12.752 15.48C12.728 15.504 12.638 15.516 12.482 15.516L11.15 15.516C11.102 15.516 11.078 15.504 11.078 15.48C11.042 15.444 11.024 15.342 11.024 15.174L10.772 5.67C10.76 5.418 10.772 5.268 10.808 5.22C10.844 5.172 10.946 5.148 11.114 5.148L12.716 5.148C12.884 5.148 12.98 5.172 13.004 5.22C13.04 5.268 13.052 5.418 13.04 5.67L12.788 15.174L12.788 15.39ZM11.906 19.134C11.546 19.134 11.246 19.008 11.006 18.756C10.766 18.516 10.646 18.222 10.646 17.874C10.646 17.526 10.766 17.226 11.006 16.974C11.246 16.722 11.546 16.596 11.906 16.596C12.266 16.596 12.566 16.722 12.806 16.974C13.058 17.226 13.184 17.526 13.184 17.874C13.184 18.222 13.058 18.516 12.806 18.756C12.566 19.008 12.266 19.134 11.906 19.134Z" fill="white"/>
</svg>
