<svg width="24" height="24" viewBox="0 0 24 24" fill="none" xmlns="http://www.w3.org/2000/svg">
<rect width="24" height="24" rx="3" fill="#8A8A8A"/>
<path d="M11.212 8.61C11.224 8.586 11.23 8.568 11.23 8.556C11.23 8.544 11.236 8.532 11.248 8.52C11.272 8.496 11.362 8.484 11.518 8.484L12.85 8.484C12.898 8.484 12.922 8.496 12.922 8.52C12.958 8.556 12.976 8.658 12.976 8.826L13.228 18.33C13.24 18.582 13.228 18.732 13.192 18.78C13.156 18.828 13.054 18.852 12.886 18.852L11.284 18.852C11.116 18.852 11.02 18.828 10.996 18.78C10.96 18.732 10.948 18.582 10.96 18.33L11.212 8.826L11.212 8.61ZM12.094 4.866C12.454 4.866 12.754 4.992 12.994 5.244C13.234 5.484 13.354 5.778 13.354 6.126C13.354 6.474 13.234 6.774 12.994 7.026C12.754 7.278 12.454 7.404 12.094 7.404C11.734 7.404 11.434 7.278 11.194 7.026C10.942 6.774 10.816 6.474 10.816 6.126C10.816 5.778 10.942 5.484 11.194 5.244C11.434 4.992 11.734 4.866 12.094 4.866Z" fill="white"/>
</svg>
