<svg width="18" height="18" viewBox="0 0 18 18" fill="none" xmlns="http://www.w3.org/2000/svg">
<path d="M10.1927 9L13.5326 5.66015C13.6911 5.50193 13.7802 5.28721 13.7804 5.06324C13.7806 4.83928 13.6918 4.62441 13.5336 4.4659C13.3754 4.30739 13.1607 4.21823 12.9367 4.21803C12.7127 4.21783 12.4979 4.30661 12.3394 4.46484L8.99951 7.80469L5.65967 4.46484C5.50116 4.30633 5.28618 4.21729 5.06201 4.21729C4.83785 4.21729 4.62286 4.30633 4.46435 4.46484C4.30585 4.62335 4.2168 4.83833 4.2168 5.0625C4.2168 5.28666 4.30585 5.50165 4.46435 5.66015L7.8042 9L4.46435 12.3398C4.30585 12.4983 4.2168 12.7133 4.2168 12.9375C4.2168 13.1617 4.30585 13.3766 4.46435 13.5352C4.62286 13.6937 4.83785 13.7827 5.06201 13.7827C5.28618 13.7827 5.50116 13.6937 5.65967 13.5352L8.99951 10.1953L12.3394 13.5352C12.4979 13.6937 12.7128 13.7827 12.937 13.7827C13.1612 13.7827 13.3762 13.6937 13.5347 13.5352C13.6932 13.3766 13.7822 13.1617 13.7822 12.9375C13.7822 12.7133 13.6932 12.4983 13.5347 12.3398L10.1927 9Z" fill="#838383"/>
</svg>
