<svg width="271" height="205" viewBox="0 0 271 205" fill="none" xmlns="http://www.w3.org/2000/svg">
<circle cx="183.5" cy="87.5" r="87.5" fill="#E9EEFF" fill-opacity="0.4"/>
<path d="M123.243 94.9791C123.162 91.3629 123.87 87.7762 125.312 84.5025C126.599 81.675 128.594 79.2821 131.076 77.588C133.503 75.9738 137.068 75.1349 139.928 75.1704C142.247 75.1135 144.542 75.6847 146.598 76.8305C148.429 77.8243 149.974 79.328 151.07 81.1823V75.7667H162.143V114.328H151.085V108.865C149.954 110.711 148.392 112.21 146.553 113.216C144.491 114.368 142.187 114.94 139.86 114.876C137.022 114.905 133.481 114.066 131.076 112.459C128.6 110.73 126.608 108.318 125.312 105.48C123.882 102.193 123.174 98.6018 123.243 94.9791ZM147.739 95.0436C147.739 92.094 146.983 89.7731 145.473 88.0646C144.795 87.247 143.959 86.5954 143.023 86.1544C142.087 85.7135 141.072 85.4936 140.049 85.5099C139.021 85.4951 138.001 85.7129 137.057 86.1491C136.113 86.5853 135.266 87.2298 134.573 88.0404C133.102 89.7005 132.367 92.0054 132.367 94.9549C132.367 97.9045 133.102 100.26 134.573 102.023C135.264 102.841 136.11 103.493 137.056 103.934C138.002 104.376 139.025 104.598 140.057 104.585C141.081 104.602 142.096 104.382 143.032 103.939C143.969 103.497 144.804 102.843 145.48 102.023C146.991 100.322 147.754 97.9931 147.754 95.0436H147.739ZM182.16 114.876C179.271 114.933 176.402 114.346 173.738 113.152C171.451 112.142 169.443 110.524 167.907 108.454C166.509 106.49 165.677 104.135 165.512 101.676H176.457C176.514 102.316 176.7 102.936 177.003 103.493C177.305 104.049 177.717 104.529 178.21 104.9C179.319 105.757 180.663 106.196 182.032 106.149C183.142 106.231 184.248 105.949 185.205 105.343C185.562 105.097 185.856 104.759 186.059 104.361C186.262 103.962 186.368 103.516 186.368 103.062C186.373 102.529 186.219 102.007 185.928 101.573C185.638 101.138 185.226 100.813 184.751 100.644C183.057 99.874 181.3 99.2724 179.502 98.8473C177.306 98.3268 175.144 97.6566 173.028 96.8407C171.305 96.1112 169.771 94.9503 168.556 93.456C167.234 91.6746 166.565 89.4397 166.676 87.17C166.657 85.0309 167.244 82.9356 168.36 81.1581C169.627 79.2288 171.378 77.7203 173.413 76.8063C175.935 75.6794 178.65 75.1303 181.382 75.1945C185.915 75.1945 189.477 76.3926 192.071 78.7888C193.377 79.9835 194.449 81.4411 195.227 83.0784C196.005 84.7156 196.472 86.5004 196.603 88.3305H186.338C186.277 87.6991 186.097 87.0875 185.807 86.5332C185.518 85.9788 185.125 85.4935 184.653 85.107C183.6 84.3055 182.318 83.9182 181.027 84.011C179.978 83.9343 178.933 84.2166 178.044 84.8168C177.714 85.0498 177.445 85.3692 177.264 85.7445C177.083 86.1199 176.995 86.5386 177.009 86.9605C177.01 87.5024 177.167 88.031 177.457 88.4759C177.747 88.9207 178.157 89.2608 178.633 89.4507C180.305 90.1825 182.041 90.7385 183.815 91.1108C186.039 91.6889 188.225 92.4266 190.356 93.319C192.08 94.0439 193.598 95.2354 194.76 96.7762C196.128 98.5666 196.842 100.826 196.769 103.135C196.789 105.316 196.151 107.446 194.949 109.211C193.642 111.078 191.87 112.516 189.835 113.361C187.399 114.414 184.788 114.93 182.16 114.876ZM216.423 114.876C213.537 114.933 210.67 114.346 208.009 113.152C205.721 112.142 203.714 110.524 202.177 108.454C200.773 106.494 199.941 104.137 199.783 101.676H210.728C210.785 102.315 210.97 102.934 211.271 103.491C211.572 104.047 211.982 104.527 212.473 104.9C213.582 105.756 214.927 106.195 216.295 106.149C217.405 106.233 218.512 105.951 219.468 105.343C219.826 105.097 220.121 104.76 220.325 104.362C220.53 103.963 220.638 103.516 220.638 103.062C220.642 102.528 220.486 102.006 220.194 101.572C219.903 101.138 219.49 100.813 219.014 100.644C217.323 99.8738 215.568 99.2721 213.772 98.8473C211.574 98.3256 209.409 97.6554 207.291 96.8407C205.57 96.1112 204.039 94.9502 202.827 93.456C201.504 91.6746 200.835 89.4397 200.946 87.17C200.924 85.0303 201.511 82.9339 202.631 81.1581C203.894 79.2251 205.646 77.7157 207.684 76.8063C210.203 75.6801 212.915 75.1309 215.645 75.1945C220.178 75.1945 223.74 76.3926 226.334 78.7888C227.642 79.9812 228.717 81.4382 229.494 83.076C230.272 84.7137 230.738 86.4996 230.866 88.3305H220.608C220.546 87.6996 220.365 87.0886 220.076 86.5345C219.786 85.9805 219.394 85.4948 218.924 85.107C217.88 84.2769 216.598 83.8608 215.298 83.9304C214.248 83.8537 213.203 84.136 212.314 84.7363C211.984 84.9692 211.716 85.2886 211.535 85.6639C211.353 86.0393 211.266 86.458 211.279 86.8799C211.279 87.4212 211.434 87.9496 211.723 88.3945C212.012 88.8395 212.421 89.1799 212.896 89.3701C214.569 90.0995 216.305 90.6554 218.078 91.0302C220.303 91.6071 222.488 92.3448 224.619 93.2384C226.342 93.9888 227.85 95.2087 228.993 96.7762C230.364 98.5648 231.079 100.825 231.002 103.135C231.024 105.315 230.389 107.446 229.189 109.211C227.883 111.078 226.111 112.516 224.075 113.361C221.637 114.415 219.024 114.931 216.393 114.876H216.423Z" fill="#456EFF"/>
<path d="M45.6 55H57.5875C57.9953 55.0005 58.3968 55.1082 58.7564 55.3133C59.116 55.5185 59.4228 55.815 59.6496 56.1766L74.9909 80.7884C75.2837 81.2621 75.7119 81.6224 76.212 81.8156C76.7121 82.0088 77.2572 82.0247 77.7664 81.8608C78.2756 81.6969 78.7216 81.3621 79.0381 80.906C79.3546 80.45 79.5247 79.8972 79.5231 79.3298V57.6433C79.517 57.2899 79.5787 56.9389 79.7043 56.6118C79.8292 56.3066 80.0118 56.0323 80.2407 55.8059C80.4694 55.5567 80.7448 55.3617 81.0489 55.2337C81.3452 55.0873 81.6666 55.0077 81.9931 55H92.9835C93.6406 55 94.2708 55.2785 94.7354 55.7742C95.2001 56.2699 95.4611 56.9423 95.4611 57.6433V112.121C95.4591 112.821 95.1972 113.491 94.7328 113.985C94.2684 114.479 93.6393 114.757 92.9835 114.757H80.8449C80.4372 114.757 80.0356 114.652 79.6741 114.45C79.3162 114.24 79.0106 113.942 78.7828 113.58L63.5699 89.2019C63.2735 88.7325 62.8436 88.3771 62.3436 88.1879C61.8437 87.9987 61.3 87.9857 60.7926 88.1508C60.2851 88.3159 59.8408 88.6504 59.5249 89.1051C59.209 89.5598 59.0383 90.1107 59.0378 90.6767V112.121C59.0349 112.467 58.9708 112.809 58.8489 113.129C58.7141 113.45 58.5217 113.74 58.2824 113.983C58.055 114.235 57.783 114.435 57.4821 114.574C57.1812 114.712 56.8576 114.785 56.53 114.789H45.6C45.2838 114.776 44.9732 114.697 44.686 114.555C44.0816 114.286 43.6011 113.774 43.349 113.129C43.2236 112.81 43.1594 112.467 43.1602 112.121V57.6433C43.1469 57.2915 43.2009 56.9406 43.3188 56.6118C43.4462 56.3081 43.6284 56.0343 43.8551 55.8059C44.0861 55.5406 44.3701 55.334 44.686 55.2015C44.9753 55.071 45.2859 55.0025 45.6 55V55Z" fill="#456EFF"/>
<path d="M120.744 59.7709C117.697 56.5903 113.115 55 106.996 55H81.4124C81.0799 55.0007 80.7509 55.0723 80.4448 55.2108C80.1386 55.3492 79.8615 55.5515 79.6298 55.8059C79.3918 56.0552 79.2025 56.3523 79.0729 56.6802C78.9432 57.008 78.8758 57.36 78.8744 57.7158V112.065C78.8734 112.419 78.938 112.769 79.0644 113.096C79.1909 113.423 79.3767 113.72 79.6112 113.971C79.8456 114.221 80.1241 114.419 80.4307 114.554C80.7372 114.689 81.0657 114.758 81.3973 114.757H93.3244C93.6578 114.754 93.9875 114.682 94.2947 114.544C94.6018 114.405 94.8805 114.204 95.1146 113.951C95.3506 113.699 95.5379 113.401 95.666 113.072C95.7923 112.745 95.8565 112.395 95.8549 112.041V69.8445C95.8617 69.1266 96.133 68.4405 96.6102 67.9345C97.0845 67.4302 97.7234 67.1414 98.3929 67.1286H100.659C103.816 67.1286 105.969 67.7841 107.117 69.095C107.694 69.7276 108.147 70.4754 108.452 71.2955C108.756 72.1156 108.906 72.9918 108.892 73.8739C108.892 75.808 108.341 76.622 107.027 77.855C104.813 81.3364 3.48976 79.8133 2.03192 80.1115C1.46372 80.2252 0.950675 80.5473 0.581637 81.0221C0.206716 81.4922 0.000577012 82.0892 1.14806e-05 82.7064V89.8788C-0.000982404 90.2277 0.0625639 90.5733 0.187008 90.8959C0.311452 91.2185 0.494348 91.5118 0.725212 91.7588C0.956076 92.0059 1.23037 92.2019 1.53237 92.3357C1.83438 92.4694 2.15815 92.5383 2.48514 92.5383H3.58041C10.3786 92.5383 106.09 94.2467 112.85 89.8144C118.417 88.5491 125.321 80.4499 125.321 73.342C125.321 67.4751 123.796 62.9514 120.744 59.7709Z" fill="#456EFF"/>
<path d="M82.92 153.344V155.232H76.136V153.344H82.92ZM89.2881 160.112C88.5095 160.112 87.8055 159.979 87.1761 159.712C86.5575 159.445 86.0668 159.061 85.7041 158.56C85.3415 158.059 85.1548 157.467 85.1441 156.784H87.5441C87.5761 157.243 87.7361 157.605 88.0241 157.872C88.3228 158.139 88.7281 158.272 89.2401 158.272C89.7628 158.272 90.1735 158.149 90.4721 157.904C90.7708 157.648 90.9201 157.317 90.9201 156.912C90.9201 156.581 90.8188 156.309 90.6161 156.096C90.4135 155.883 90.1575 155.717 89.8481 155.6C89.5495 155.472 89.1335 155.333 88.6001 155.184C87.8748 154.971 87.2828 154.763 86.8241 154.56C86.3761 154.347 85.9868 154.032 85.6561 153.616C85.3361 153.189 85.1761 152.624 85.1761 151.92C85.1761 151.259 85.3415 150.683 85.6721 150.192C86.0028 149.701 86.4668 149.328 87.0641 149.072C87.6615 148.805 88.3441 148.672 89.1121 148.672C90.2641 148.672 91.1975 148.955 91.9121 149.52C92.6375 150.075 93.0375 150.853 93.1121 151.856H90.6481C90.6268 151.472 90.4615 151.157 90.1521 150.912C89.8535 150.656 89.4535 150.528 88.9521 150.528C88.5148 150.528 88.1628 150.64 87.8961 150.864C87.6401 151.088 87.5121 151.413 87.5121 151.84C87.5121 152.139 87.6081 152.389 87.8001 152.592C88.0028 152.784 88.2481 152.944 88.5361 153.072C88.8348 153.189 89.2508 153.328 89.7841 153.488C90.5095 153.701 91.1015 153.915 91.5601 154.128C92.0188 154.341 92.4135 154.661 92.7441 155.088C93.0748 155.515 93.2401 156.075 93.2401 156.768C93.2401 157.365 93.0855 157.92 92.7761 158.432C92.4668 158.944 92.0135 159.355 91.4161 159.664C90.8188 159.963 90.1095 160.112 89.2881 160.112ZM106.19 151.008C107.278 151.008 108.153 151.344 108.814 152.016C109.486 152.677 109.822 153.605 109.822 154.8V160H107.582V155.104C107.582 154.411 107.406 153.883 107.054 153.52C106.702 153.147 106.222 152.96 105.614 152.96C105.006 152.96 104.521 153.147 104.158 153.52C103.806 153.883 103.63 154.411 103.63 155.104V160H101.39V155.104C101.39 154.411 101.214 153.883 100.862 153.52C100.51 153.147 100.03 152.96 99.4221 152.96C98.8035 152.96 98.3128 153.147 97.9501 153.52C97.5981 153.883 97.4221 154.411 97.4221 155.104V160H95.1821V151.136H97.4221V152.208C97.7101 151.835 98.0781 151.541 98.5261 151.328C98.9848 151.115 99.4861 151.008 100.03 151.008C100.723 151.008 101.342 151.157 101.886 151.456C102.43 151.744 102.851 152.16 103.15 152.704C103.438 152.192 103.854 151.781 104.398 151.472C104.953 151.163 105.55 151.008 106.19 151.008ZM111.372 155.536C111.372 154.64 111.548 153.845 111.9 153.152C112.262 152.459 112.748 151.925 113.356 151.552C113.974 151.179 114.662 150.992 115.42 150.992C116.081 150.992 116.657 151.125 117.148 151.392C117.649 151.659 118.049 151.995 118.348 152.4V151.136H120.604V160H118.348V158.704C118.06 159.12 117.66 159.467 117.148 159.744C116.646 160.011 116.065 160.144 115.404 160.144C114.657 160.144 113.974 159.952 113.356 159.568C112.748 159.184 112.262 158.645 111.9 157.952C111.548 157.248 111.372 156.443 111.372 155.536ZM118.348 155.568C118.348 155.024 118.241 154.56 118.028 154.176C117.814 153.781 117.526 153.483 117.164 153.28C116.801 153.067 116.412 152.96 115.996 152.96C115.58 152.96 115.196 153.061 114.844 153.264C114.492 153.467 114.204 153.765 113.98 154.16C113.766 154.544 113.66 155.003 113.66 155.536C113.66 156.069 113.766 156.539 113.98 156.944C114.204 157.339 114.492 157.643 114.844 157.856C115.206 158.069 115.59 158.176 115.996 158.176C116.412 158.176 116.801 158.075 117.164 157.872C117.526 157.659 117.814 157.36 118.028 156.976C118.241 156.581 118.348 156.112 118.348 155.568ZM125.032 152.512C125.32 152.043 125.693 151.675 126.152 151.408C126.621 151.141 127.154 151.008 127.752 151.008V153.36H127.16C126.456 153.36 125.922 153.525 125.56 153.856C125.208 154.187 125.032 154.763 125.032 155.584V160H122.792V151.136H125.032V152.512ZM131.868 152.976V157.264C131.868 157.563 131.938 157.781 132.076 157.92C132.226 158.048 132.471 158.112 132.812 158.112H133.852V160H132.444C130.556 160 129.612 159.083 129.612 157.248V152.976H128.556V151.136H129.612V148.944H131.868V151.136H133.852V152.976H131.868ZM151.564 151.136L148.972 160H146.556L144.94 153.808L143.324 160H140.892L138.284 151.136H140.556L142.124 157.888L143.82 151.136H146.188L147.852 157.872L149.42 151.136H151.564ZM156.712 160.144C155.859 160.144 155.091 159.957 154.408 159.584C153.725 159.2 153.187 158.661 152.792 157.968C152.408 157.275 152.216 156.475 152.216 155.568C152.216 154.661 152.413 153.861 152.808 153.168C153.213 152.475 153.763 151.941 154.456 151.568C155.149 151.184 155.923 150.992 156.776 150.992C157.629 150.992 158.403 151.184 159.096 151.568C159.789 151.941 160.333 152.475 160.728 153.168C161.133 153.861 161.336 154.661 161.336 155.568C161.336 156.475 161.128 157.275 160.712 157.968C160.307 158.661 159.752 159.2 159.048 159.584C158.355 159.957 157.576 160.144 156.712 160.144ZM156.712 158.192C157.117 158.192 157.496 158.096 157.848 157.904C158.211 157.701 158.499 157.403 158.712 157.008C158.925 156.613 159.032 156.133 159.032 155.568C159.032 154.725 158.808 154.08 158.36 153.632C157.923 153.173 157.384 152.944 156.744 152.944C156.104 152.944 155.565 153.173 155.128 153.632C154.701 154.08 154.488 154.725 154.488 155.568C154.488 156.411 154.696 157.061 155.112 157.52C155.539 157.968 156.072 158.192 156.712 158.192ZM165.219 152.512C165.507 152.043 165.88 151.675 166.339 151.408C166.808 151.141 167.342 151.008 167.939 151.008V153.36H167.347C166.643 153.36 166.11 153.525 165.747 153.856C165.395 154.187 165.219 154.763 165.219 155.584V160H162.979V151.136H165.219V152.512ZM174.696 160L171.688 156.224V160H169.448V148.16H171.688V154.896L174.664 151.136H177.576L173.672 155.584L177.608 160H174.696ZM184.844 152.416C185.132 152.011 185.527 151.675 186.028 151.408C186.54 151.131 187.121 150.992 187.772 150.992C188.529 150.992 189.212 151.179 189.82 151.552C190.439 151.925 190.924 152.459 191.276 153.152C191.639 153.835 191.82 154.629 191.82 155.536C191.82 156.443 191.639 157.248 191.276 157.952C190.924 158.645 190.439 159.184 189.82 159.568C189.212 159.952 188.529 160.144 187.772 160.144C187.121 160.144 186.545 160.011 186.044 159.744C185.553 159.477 185.153 159.141 184.844 158.736V164.224H182.604V151.136H184.844V152.416ZM189.532 155.536C189.532 155.003 189.42 154.544 189.196 154.16C188.983 153.765 188.695 153.467 188.332 153.264C187.98 153.061 187.596 152.96 187.18 152.96C186.775 152.96 186.391 153.067 186.028 153.28C185.676 153.483 185.388 153.781 185.164 154.176C184.951 154.571 184.844 155.035 184.844 155.568C184.844 156.101 184.951 156.565 185.164 156.96C185.388 157.355 185.676 157.659 186.028 157.872C186.391 158.075 186.775 158.176 187.18 158.176C187.596 158.176 187.98 158.069 188.332 157.856C188.695 157.643 188.983 157.339 189.196 156.944C189.42 156.549 189.532 156.08 189.532 155.536ZM197.384 160.144C196.53 160.144 195.762 159.957 195.08 159.584C194.397 159.2 193.858 158.661 193.464 157.968C193.08 157.275 192.888 156.475 192.888 155.568C192.888 154.661 193.085 153.861 193.48 153.168C193.885 152.475 194.434 151.941 195.128 151.568C195.821 151.184 196.594 150.992 197.448 150.992C198.301 150.992 199.074 151.184 199.768 151.568C200.461 151.941 201.005 152.475 201.4 153.168C201.805 153.861 202.008 154.661 202.008 155.568C202.008 156.475 201.8 157.275 201.384 157.968C200.978 158.661 200.424 159.2 199.72 159.584C199.026 159.957 198.248 160.144 197.384 160.144ZM197.384 158.192C197.789 158.192 198.168 158.096 198.52 157.904C198.882 157.701 199.17 157.403 199.384 157.008C199.597 156.613 199.704 156.133 199.704 155.568C199.704 154.725 199.48 154.08 199.032 153.632C198.594 153.173 198.056 152.944 197.416 152.944C196.776 152.944 196.237 153.173 195.8 153.632C195.373 154.08 195.16 154.725 195.16 155.568C195.16 156.411 195.368 157.061 195.784 157.52C196.21 157.968 196.744 158.192 197.384 158.192ZM205.891 152.512C206.179 152.043 206.552 151.675 207.011 151.408C207.48 151.141 208.014 151.008 208.611 151.008V153.36H208.019C207.315 153.36 206.782 153.525 206.419 153.856C206.067 154.187 205.891 154.763 205.891 155.584V160H203.651V151.136H205.891V152.512ZM212.728 152.976V157.264C212.728 157.563 212.797 157.781 212.936 157.92C213.085 158.048 213.33 158.112 213.672 158.112H214.712V160H213.304C211.416 160 210.472 159.083 210.472 157.248V152.976H209.416V151.136H210.472V148.944H212.728V151.136H214.712V152.976H212.728ZM215.747 155.536C215.747 154.64 215.923 153.845 216.275 153.152C216.637 152.459 217.123 151.925 217.731 151.552C218.349 151.179 219.037 150.992 219.795 150.992C220.456 150.992 221.032 151.125 221.523 151.392C222.024 151.659 222.424 151.995 222.723 152.4V151.136H224.979V160H222.723V158.704C222.435 159.12 222.035 159.467 221.523 159.744C221.021 160.011 220.44 160.144 219.779 160.144C219.032 160.144 218.349 159.952 217.731 159.568C217.123 159.184 216.637 158.645 216.275 157.952C215.923 157.248 215.747 156.443 215.747 155.536ZM222.723 155.568C222.723 155.024 222.616 154.56 222.403 154.176C222.189 153.781 221.901 153.483 221.539 153.28C221.176 153.067 220.787 152.96 220.371 152.96C219.955 152.96 219.571 153.061 219.219 153.264C218.867 153.467 218.579 153.765 218.355 154.16C218.141 154.544 218.035 155.003 218.035 155.536C218.035 156.069 218.141 156.539 218.355 156.944C218.579 157.339 218.867 157.643 219.219 157.856C219.581 158.069 219.965 158.176 220.371 158.176C220.787 158.176 221.176 158.075 221.539 157.872C221.901 157.659 222.189 157.36 222.403 156.976C222.616 156.581 222.723 156.112 222.723 155.568ZM229.407 148.16V160H227.167V148.16H229.407Z" fill="#8A8A8A"/>
<path d="M65.322 182H64.622L60.752 176.12V182H60.052V175.01H60.752L64.622 180.88V175.01H65.322V182ZM71.3774 177.02C71.3774 177.62 71.1808 178.103 70.7874 178.47C70.3941 178.837 69.8041 179.02 69.0174 179.02H67.6074V182H66.9074V175.01H69.0174C69.7974 175.01 70.3841 175.193 70.7774 175.56C71.1774 175.927 71.3774 176.413 71.3774 177.02ZM69.0174 178.42C70.1108 178.42 70.6574 177.953 70.6574 177.02C70.6574 176.553 70.5274 176.2 70.2674 175.96C70.0074 175.72 69.5908 175.6 69.0174 175.6H67.6074V178.42H69.0174ZM72.232 179.26C72.232 178.7 72.342 178.21 72.562 177.79C72.7886 177.363 73.0986 177.037 73.492 176.81C73.892 176.577 74.342 176.46 74.842 176.46C75.362 176.46 75.8086 176.58 76.182 176.82C76.562 177.06 76.8353 177.367 77.002 177.74V176.54H77.702V182H77.002V180.79C76.8286 181.163 76.552 181.473 76.172 181.72C75.7986 181.96 75.352 182.08 74.832 182.08C74.3386 182.08 73.892 181.963 73.492 181.73C73.0986 181.497 72.7886 181.167 72.562 180.74C72.342 180.313 72.232 179.82 72.232 179.26ZM77.002 179.27C77.002 178.83 76.912 178.443 76.732 178.11C76.552 177.777 76.3053 177.52 75.992 177.34C75.6853 177.16 75.3453 177.07 74.972 177.07C74.5853 177.07 74.2386 177.157 73.932 177.33C73.6253 177.503 73.382 177.757 73.202 178.09C73.0286 178.417 72.942 178.807 72.942 179.26C72.942 179.707 73.0286 180.1 73.202 180.44C73.382 180.773 73.6253 181.03 73.932 181.21C74.2386 181.383 74.5853 181.47 74.972 181.47C75.3453 181.47 75.6853 181.38 75.992 181.2C76.3053 181.02 76.552 180.763 76.732 180.43C76.912 180.097 77.002 179.71 77.002 179.27ZM81.18 182.08C80.5533 182.08 80.04 181.937 79.64 181.65C79.2467 181.357 79.0267 180.96 78.98 180.46H79.7C79.7333 180.767 79.8767 181.017 80.13 181.21C80.39 181.397 80.7367 181.49 81.17 181.49C81.55 181.49 81.8467 181.4 82.06 181.22C82.28 181.04 82.39 180.817 82.39 180.55C82.39 180.363 82.33 180.21 82.21 180.09C82.09 179.97 81.9367 179.877 81.75 179.81C81.57 179.737 81.3233 179.66 81.01 179.58C80.6033 179.473 80.2733 179.367 80.02 179.26C79.7667 179.153 79.55 178.997 79.37 178.79C79.1967 178.577 79.11 178.293 79.11 177.94C79.11 177.673 79.19 177.427 79.35 177.2C79.51 176.973 79.7367 176.793 80.03 176.66C80.3233 176.527 80.6567 176.46 81.03 176.46C81.6167 176.46 82.09 176.61 82.45 176.91C82.81 177.203 83.0033 177.61 83.03 178.13H82.33C82.31 177.81 82.1833 177.553 81.95 177.36C81.7233 177.16 81.41 177.06 81.01 177.06C80.6567 177.06 80.37 177.143 80.15 177.31C79.93 177.477 79.82 177.683 79.82 177.93C79.82 178.143 79.8833 178.32 80.01 178.46C80.1433 178.593 80.3067 178.7 80.5 178.78C80.6933 178.853 80.9533 178.937 81.28 179.03C81.6733 179.137 81.9867 179.24 82.22 179.34C82.4533 179.44 82.6533 179.587 82.82 179.78C82.9867 179.973 83.0733 180.23 83.08 180.55C83.08 180.843 83 181.107 82.84 181.34C82.68 181.567 82.4567 181.747 82.17 181.88C81.8833 182.013 81.5533 182.08 81.18 182.08ZM86.2777 182.08C85.651 182.08 85.1377 181.937 84.7377 181.65C84.3443 181.357 84.1243 180.96 84.0777 180.46H84.7977C84.831 180.767 84.9743 181.017 85.2277 181.21C85.4877 181.397 85.8343 181.49 86.2677 181.49C86.6477 181.49 86.9443 181.4 87.1577 181.22C87.3777 181.04 87.4877 180.817 87.4877 180.55C87.4877 180.363 87.4277 180.21 87.3077 180.09C87.1877 179.97 87.0343 179.877 86.8477 179.81C86.6677 179.737 86.421 179.66 86.1077 179.58C85.701 179.473 85.371 179.367 85.1177 179.26C84.8643 179.153 84.6477 178.997 84.4677 178.79C84.2943 178.577 84.2077 178.293 84.2077 177.94C84.2077 177.673 84.2877 177.427 84.4477 177.2C84.6077 176.973 84.8343 176.793 85.1277 176.66C85.421 176.527 85.7543 176.46 86.1277 176.46C86.7143 176.46 87.1877 176.61 87.5477 176.91C87.9077 177.203 88.101 177.61 88.1277 178.13H87.4277C87.4077 177.81 87.281 177.553 87.0477 177.36C86.821 177.16 86.5077 177.06 86.1077 177.06C85.7543 177.06 85.4677 177.143 85.2477 177.31C85.0277 177.477 84.9177 177.683 84.9177 177.93C84.9177 178.143 84.981 178.32 85.1077 178.46C85.241 178.593 85.4043 178.7 85.5977 178.78C85.791 178.853 86.051 178.937 86.3777 179.03C86.771 179.137 87.0843 179.24 87.3177 179.34C87.551 179.44 87.751 179.587 87.9177 179.78C88.0843 179.973 88.171 180.23 88.1777 180.55C88.1777 180.843 88.0977 181.107 87.9377 181.34C87.7777 181.567 87.5543 181.747 87.2677 181.88C86.981 182.013 86.651 182.08 86.2777 182.08ZM92.9295 177.74C93.1028 177.373 93.3761 177.07 93.7495 176.83C94.1295 176.583 94.5795 176.46 95.0995 176.46C95.5928 176.46 96.0361 176.577 96.4295 176.81C96.8295 177.037 97.1395 177.363 97.3595 177.79C97.5861 178.21 97.6995 178.7 97.6995 179.26C97.6995 179.82 97.5861 180.313 97.3595 180.74C97.1395 181.167 96.8295 181.497 96.4295 181.73C96.0361 181.963 95.5928 182.08 95.0995 182.08C94.5861 182.08 94.1395 181.96 93.7595 181.72C93.3795 181.473 93.1028 181.167 92.9295 180.8V184.58H92.2395V176.54H92.9295V177.74ZM96.9895 179.26C96.9895 178.807 96.8995 178.417 96.7195 178.09C96.5461 177.757 96.3061 177.503 95.9995 177.33C95.6928 177.157 95.3461 177.07 94.9595 177.07C94.5861 177.07 94.2428 177.16 93.9295 177.34C93.6228 177.52 93.3795 177.777 93.1995 178.11C93.0195 178.443 92.9295 178.83 92.9295 179.27C92.9295 179.71 93.0195 180.097 93.1995 180.43C93.3795 180.763 93.6228 181.02 93.9295 181.2C94.2428 181.38 94.5861 181.47 94.9595 181.47C95.3461 181.47 95.6928 181.383 95.9995 181.21C96.3061 181.03 96.5461 180.773 96.7195 180.44C96.8995 180.1 96.9895 179.707 96.9895 179.26ZM99.6875 177.51C99.8408 177.17 100.074 176.907 100.388 176.72C100.708 176.533 101.098 176.44 101.558 176.44V177.17H101.368C100.861 177.17 100.454 177.307 100.148 177.58C99.8408 177.853 99.6875 178.31 99.6875 178.95V182H98.9875V176.54H99.6875V177.51ZM105.001 182.08C104.487 182.08 104.024 181.967 103.611 181.74C103.204 181.507 102.881 181.18 102.641 180.76C102.407 180.333 102.291 179.837 102.291 179.27C102.291 178.703 102.411 178.21 102.651 177.79C102.891 177.363 103.217 177.037 103.631 176.81C104.044 176.577 104.507 176.46 105.021 176.46C105.534 176.46 105.997 176.577 106.411 176.81C106.831 177.037 107.157 177.363 107.391 177.79C107.631 178.21 107.751 178.703 107.751 179.27C107.751 179.83 107.631 180.323 107.391 180.75C107.151 181.177 106.821 181.507 106.401 181.74C105.981 181.967 105.514 182.08 105.001 182.08ZM105.001 181.47C105.361 181.47 105.694 181.39 106.001 181.23C106.307 181.063 106.554 180.817 106.741 180.49C106.934 180.157 107.031 179.75 107.031 179.27C107.031 178.79 106.937 178.387 106.751 178.06C106.564 177.727 106.317 177.48 106.011 177.32C105.704 177.153 105.371 177.07 105.011 177.07C104.651 177.07 104.317 177.153 104.011 177.32C103.704 177.48 103.457 177.727 103.271 178.06C103.091 178.387 103.001 178.79 103.001 179.27C103.001 179.75 103.091 180.157 103.271 180.49C103.457 180.817 103.701 181.063 104.001 181.23C104.307 181.39 104.641 181.47 105.001 181.47ZM109.937 177.13V180.52C109.937 180.853 110 181.083 110.127 181.21C110.253 181.337 110.477 181.4 110.797 181.4H111.437V182H110.687C110.193 182 109.827 181.887 109.587 181.66C109.347 181.427 109.227 181.047 109.227 180.52V177.13H108.467V176.54H109.227V175.17H109.937V176.54H111.437V177.13H109.937ZM117.531 178.99C117.531 179.23 117.524 179.413 117.511 179.54H112.981C113.001 179.953 113.101 180.307 113.281 180.6C113.461 180.893 113.698 181.117 113.991 181.27C114.284 181.417 114.604 181.49 114.951 181.49C115.404 181.49 115.784 181.38 116.091 181.16C116.404 180.94 116.611 180.643 116.711 180.27H117.451C117.318 180.803 117.031 181.24 116.591 181.58C116.158 181.913 115.611 182.08 114.951 182.08C114.438 182.08 113.978 181.967 113.571 181.74C113.164 181.507 112.844 181.18 112.611 180.76C112.384 180.333 112.271 179.837 112.271 179.27C112.271 178.703 112.384 178.207 112.611 177.78C112.838 177.353 113.154 177.027 113.561 176.8C113.968 176.573 114.431 176.46 114.951 176.46C115.471 176.46 115.924 176.573 116.311 176.8C116.704 177.027 117.004 177.333 117.211 177.72C117.424 178.1 117.531 178.523 117.531 178.99ZM116.821 178.97C116.828 178.563 116.744 178.217 116.571 177.93C116.404 177.643 116.174 177.427 115.881 177.28C115.588 177.133 115.268 177.06 114.921 177.06C114.401 177.06 113.958 177.227 113.591 177.56C113.224 177.893 113.021 178.363 112.981 178.97H116.821ZM118.492 179.27C118.492 178.703 118.605 178.21 118.832 177.79C119.058 177.363 119.372 177.037 119.772 176.81C120.172 176.577 120.628 176.46 121.142 176.46C121.815 176.46 122.368 176.627 122.802 176.96C123.242 177.293 123.525 177.747 123.652 178.32H122.902C122.808 177.927 122.605 177.62 122.292 177.4C121.985 177.173 121.602 177.06 121.142 177.06C120.775 177.06 120.445 177.143 120.152 177.31C119.858 177.477 119.625 177.727 119.452 178.06C119.285 178.387 119.202 178.79 119.202 179.27C119.202 179.75 119.285 180.157 119.452 180.49C119.625 180.823 119.858 181.073 120.152 181.24C120.445 181.407 120.775 181.49 121.142 181.49C121.602 181.49 121.985 181.38 122.292 181.16C122.605 180.933 122.808 180.62 122.902 180.22H123.652C123.525 180.78 123.242 181.23 122.802 181.57C122.362 181.91 121.808 182.08 121.142 182.08C120.628 182.08 120.172 181.967 119.772 181.74C119.372 181.507 119.058 181.18 118.832 180.76C118.605 180.333 118.492 179.837 118.492 179.27ZM125.855 177.13V180.52C125.855 180.853 125.918 181.083 126.045 181.21C126.171 181.337 126.395 181.4 126.715 181.4H127.355V182H126.605C126.111 182 125.745 181.887 125.505 181.66C125.265 181.427 125.145 181.047 125.145 180.52V177.13H124.385V176.54H125.145V175.17H125.855V176.54H127.355V177.13H125.855ZM130.389 182.08C129.762 182.08 129.249 181.937 128.849 181.65C128.456 181.357 128.236 180.96 128.189 180.46H128.909C128.942 180.767 129.086 181.017 129.339 181.21C129.599 181.397 129.946 181.49 130.379 181.49C130.759 181.49 131.056 181.4 131.269 181.22C131.489 181.04 131.599 180.817 131.599 180.55C131.599 180.363 131.539 180.21 131.419 180.09C131.299 179.97 131.146 179.877 130.959 179.81C130.779 179.737 130.532 179.66 130.219 179.58C129.812 179.473 129.482 179.367 129.229 179.26C128.976 179.153 128.759 178.997 128.579 178.79C128.406 178.577 128.319 178.293 128.319 177.94C128.319 177.673 128.399 177.427 128.559 177.2C128.719 176.973 128.946 176.793 129.239 176.66C129.532 176.527 129.866 176.46 130.239 176.46C130.826 176.46 131.299 176.61 131.659 176.91C132.019 177.203 132.212 177.61 132.239 178.13H131.539C131.519 177.81 131.392 177.553 131.159 177.36C130.932 177.16 130.619 177.06 130.219 177.06C129.866 177.06 129.579 177.143 129.359 177.31C129.139 177.477 129.029 177.683 129.029 177.93C129.029 178.143 129.092 178.32 129.219 178.46C129.352 178.593 129.516 178.7 129.709 178.78C129.902 178.853 130.162 178.937 130.489 179.03C130.882 179.137 131.196 179.24 131.429 179.34C131.662 179.44 131.862 179.587 132.029 179.78C132.196 179.973 132.282 180.23 132.289 180.55C132.289 180.843 132.209 181.107 132.049 181.34C131.889 181.567 131.666 181.747 131.379 181.88C131.092 182.013 130.762 182.08 130.389 182.08ZM137.041 177.75C137.221 177.37 137.497 177.06 137.871 176.82C138.251 176.58 138.697 176.46 139.211 176.46C139.711 176.46 140.157 176.577 140.551 176.81C140.944 177.037 141.251 177.363 141.471 177.79C141.697 178.21 141.811 178.7 141.811 179.26C141.811 179.82 141.697 180.313 141.471 180.74C141.251 181.167 140.941 181.497 140.541 181.73C140.147 181.963 139.704 182.08 139.211 182.08C138.691 182.08 138.241 181.963 137.861 181.73C137.487 181.49 137.214 181.18 137.041 180.8V182H136.351V174.6H137.041V177.75ZM141.101 179.26C141.101 178.807 141.011 178.417 140.831 178.09C140.657 177.757 140.417 177.503 140.111 177.33C139.804 177.157 139.457 177.07 139.071 177.07C138.697 177.07 138.354 177.16 138.041 177.34C137.734 177.52 137.491 177.777 137.311 178.11C137.131 178.443 137.041 178.83 137.041 179.27C137.041 179.71 137.131 180.097 137.311 180.43C137.491 180.763 137.734 181.02 138.041 181.2C138.354 181.38 138.697 181.47 139.071 181.47C139.457 181.47 139.804 181.383 140.111 181.21C140.417 181.03 140.657 180.773 140.831 180.44C141.011 180.1 141.101 179.707 141.101 179.26ZM145.489 182.08C144.975 182.08 144.512 181.967 144.099 181.74C143.692 181.507 143.369 181.18 143.129 180.76C142.895 180.333 142.779 179.837 142.779 179.27C142.779 178.703 142.899 178.21 143.139 177.79C143.379 177.363 143.705 177.037 144.119 176.81C144.532 176.577 144.995 176.46 145.509 176.46C146.022 176.46 146.485 176.577 146.899 176.81C147.319 177.037 147.645 177.363 147.879 177.79C148.119 178.21 148.239 178.703 148.239 179.27C148.239 179.83 148.119 180.323 147.879 180.75C147.639 181.177 147.309 181.507 146.889 181.74C146.469 181.967 146.002 182.08 145.489 182.08ZM145.489 181.47C145.849 181.47 146.182 181.39 146.489 181.23C146.795 181.063 147.042 180.817 147.229 180.49C147.422 180.157 147.519 179.75 147.519 179.27C147.519 178.79 147.425 178.387 147.239 178.06C147.052 177.727 146.805 177.48 146.499 177.32C146.192 177.153 145.859 177.07 145.499 177.07C145.139 177.07 144.805 177.153 144.499 177.32C144.192 177.48 143.945 177.727 143.759 178.06C143.579 178.387 143.489 178.79 143.489 179.27C143.489 179.75 143.579 180.157 143.759 180.49C143.945 180.817 144.189 181.063 144.489 181.23C144.795 181.39 145.129 181.47 145.489 181.47ZM150.425 177.13V180.52C150.425 180.853 150.488 181.083 150.615 181.21C150.742 181.337 150.965 181.4 151.285 181.4H151.925V182H151.175C150.682 182 150.315 181.887 150.075 181.66C149.835 181.427 149.715 181.047 149.715 180.52V177.13H148.955V176.54H149.715V175.17H150.425V176.54H151.925V177.13H150.425ZM155.679 176.44C156.093 176.44 156.463 176.527 156.789 176.7C157.123 176.873 157.383 177.14 157.569 177.5C157.763 177.853 157.859 178.287 157.859 178.8V182H157.169V178.88C157.169 178.287 157.019 177.833 156.719 177.52C156.426 177.207 156.023 177.05 155.509 177.05C154.983 177.05 154.563 177.217 154.249 177.55C153.936 177.883 153.779 178.373 153.779 179.02V182H153.079V174.6H153.779V177.47C153.953 177.143 154.206 176.89 154.539 176.71C154.879 176.53 155.259 176.44 155.679 176.44ZM163.062 177.13V180.52C163.062 180.853 163.125 181.083 163.252 181.21C163.378 181.337 163.602 181.4 163.922 181.4H164.562V182H163.812C163.318 182 162.952 181.887 162.712 181.66C162.472 181.427 162.352 181.047 162.352 180.52V177.13H161.592V176.54H162.352V175.17H163.062V176.54H164.562V177.13H163.062ZM168.316 176.44C168.729 176.44 169.099 176.527 169.426 176.7C169.759 176.873 170.019 177.14 170.206 177.5C170.399 177.853 170.496 178.287 170.496 178.8V182H169.806V178.88C169.806 178.287 169.656 177.833 169.356 177.52C169.063 177.207 168.659 177.05 168.146 177.05C167.619 177.05 167.199 177.217 166.886 177.55C166.573 177.883 166.416 178.373 166.416 179.02V182H165.716V174.6H166.416V177.47C166.589 177.143 166.843 176.89 167.176 176.71C167.516 176.53 167.896 176.44 168.316 176.44ZM176.984 178.99C176.984 179.23 176.977 179.413 176.964 179.54H172.434C172.454 179.953 172.554 180.307 172.734 180.6C172.914 180.893 173.151 181.117 173.444 181.27C173.737 181.417 174.057 181.49 174.404 181.49C174.857 181.49 175.237 181.38 175.544 181.16C175.857 180.94 176.064 180.643 176.164 180.27H176.904C176.771 180.803 176.484 181.24 176.044 181.58C175.611 181.913 175.064 182.08 174.404 182.08C173.891 182.08 173.431 181.967 173.024 181.74C172.617 181.507 172.297 181.18 172.064 180.76C171.837 180.333 171.724 179.837 171.724 179.27C171.724 178.703 171.837 178.207 172.064 177.78C172.291 177.353 172.607 177.027 173.014 176.8C173.421 176.573 173.884 176.46 174.404 176.46C174.924 176.46 175.377 176.573 175.764 176.8C176.157 177.027 176.457 177.333 176.664 177.72C176.877 178.1 176.984 178.523 176.984 178.99ZM176.274 178.97C176.281 178.563 176.197 178.217 176.024 177.93C175.857 177.643 175.627 177.427 175.334 177.28C175.041 177.133 174.721 177.06 174.374 177.06C173.854 177.06 173.411 177.227 173.044 177.56C172.677 177.893 172.474 178.363 172.434 178.97H176.274ZM180.689 179.27C180.689 178.703 180.802 178.21 181.029 177.79C181.256 177.363 181.569 177.037 181.969 176.81C182.369 176.577 182.826 176.46 183.339 176.46C184.012 176.46 184.566 176.627 184.999 176.96C185.439 177.293 185.722 177.747 185.849 178.32H185.099C185.006 177.927 184.802 177.62 184.489 177.4C184.182 177.173 183.799 177.06 183.339 177.06C182.972 177.06 182.642 177.143 182.349 177.31C182.056 177.477 181.822 177.727 181.649 178.06C181.482 178.387 181.399 178.79 181.399 179.27C181.399 179.75 181.482 180.157 181.649 180.49C181.822 180.823 182.056 181.073 182.349 181.24C182.642 181.407 182.972 181.49 183.339 181.49C183.799 181.49 184.182 181.38 184.489 181.16C184.802 180.933 185.006 180.62 185.099 180.22H185.849C185.722 180.78 185.439 181.23 184.999 181.57C184.559 181.91 184.006 182.08 183.339 182.08C182.826 182.08 182.369 181.967 181.969 181.74C181.569 181.507 181.256 181.18 181.029 180.76C180.802 180.333 180.689 179.837 180.689 179.27ZM189.532 182.08C189.018 182.08 188.555 181.967 188.142 181.74C187.735 181.507 187.412 181.18 187.172 180.76C186.938 180.333 186.822 179.837 186.822 179.27C186.822 178.703 186.942 178.21 187.182 177.79C187.422 177.363 187.748 177.037 188.162 176.81C188.575 176.577 189.038 176.46 189.552 176.46C190.065 176.46 190.528 176.577 190.942 176.81C191.362 177.037 191.688 177.363 191.922 177.79C192.162 178.21 192.282 178.703 192.282 179.27C192.282 179.83 192.162 180.323 191.922 180.75C191.682 181.177 191.352 181.507 190.932 181.74C190.512 181.967 190.045 182.08 189.532 182.08ZM189.532 181.47C189.892 181.47 190.225 181.39 190.532 181.23C190.838 181.063 191.085 180.817 191.272 180.49C191.465 180.157 191.562 179.75 191.562 179.27C191.562 178.79 191.468 178.387 191.282 178.06C191.095 177.727 190.848 177.48 190.542 177.32C190.235 177.153 189.902 177.07 189.542 177.07C189.182 177.07 188.848 177.153 188.542 177.32C188.235 177.48 187.988 177.727 187.802 178.06C187.622 178.387 187.532 178.79 187.532 179.27C187.532 179.75 187.622 180.157 187.802 180.49C187.988 180.817 188.232 181.063 188.532 181.23C188.838 181.39 189.172 181.47 189.532 181.47ZM200.058 176.44C200.698 176.44 201.218 176.643 201.618 177.05C202.024 177.45 202.228 178.033 202.228 178.8V182H201.538V178.88C201.538 178.287 201.394 177.833 201.108 177.52C200.821 177.207 200.431 177.05 199.938 177.05C199.424 177.05 199.014 177.22 198.708 177.56C198.401 177.9 198.248 178.393 198.248 179.04V182H197.558V178.88C197.558 178.287 197.414 177.833 197.128 177.52C196.841 177.207 196.448 177.05 195.948 177.05C195.434 177.05 195.024 177.22 194.718 177.56C194.411 177.9 194.258 178.393 194.258 179.04V182H193.558V176.54H194.258V177.48C194.431 177.14 194.678 176.883 194.998 176.71C195.318 176.53 195.674 176.44 196.068 176.44C196.541 176.44 196.954 176.553 197.308 176.78C197.668 177.007 197.928 177.34 198.088 177.78C198.234 177.347 198.484 177.017 198.838 176.79C199.198 176.557 199.604 176.44 200.058 176.44ZM204.472 177.74C204.646 177.373 204.919 177.07 205.292 176.83C205.672 176.583 206.122 176.46 206.642 176.46C207.136 176.46 207.579 176.577 207.972 176.81C208.372 177.037 208.682 177.363 208.902 177.79C209.129 178.21 209.242 178.7 209.242 179.26C209.242 179.82 209.129 180.313 208.902 180.74C208.682 181.167 208.372 181.497 207.972 181.73C207.579 181.963 207.136 182.08 206.642 182.08C206.129 182.08 205.682 181.96 205.302 181.72C204.922 181.473 204.646 181.167 204.472 180.8V184.58H203.782V176.54H204.472V177.74ZM208.532 179.26C208.532 178.807 208.442 178.417 208.262 178.09C208.089 177.757 207.849 177.503 207.542 177.33C207.236 177.157 206.889 177.07 206.502 177.07C206.129 177.07 205.786 177.16 205.472 177.34C205.166 177.52 204.922 177.777 204.742 178.11C204.562 178.443 204.472 178.83 204.472 179.27C204.472 179.71 204.562 180.097 204.742 180.43C204.922 180.763 205.166 181.02 205.472 181.2C205.786 181.38 206.129 181.47 206.502 181.47C206.889 181.47 207.236 181.383 207.542 181.21C207.849 181.03 208.089 180.773 208.262 180.44C208.442 180.1 208.532 179.707 208.532 179.26ZM210.21 179.26C210.21 178.7 210.32 178.21 210.54 177.79C210.767 177.363 211.077 177.037 211.47 176.81C211.87 176.577 212.32 176.46 212.82 176.46C213.34 176.46 213.787 176.58 214.16 176.82C214.54 177.06 214.814 177.367 214.98 177.74V176.54H215.68V182H214.98V180.79C214.807 181.163 214.53 181.473 214.15 181.72C213.777 181.96 213.33 182.08 212.81 182.08C212.317 182.08 211.87 181.963 211.47 181.73C211.077 181.497 210.767 181.167 210.54 180.74C210.32 180.313 210.21 179.82 210.21 179.26ZM214.98 179.27C214.98 178.83 214.89 178.443 214.71 178.11C214.53 177.777 214.284 177.52 213.97 177.34C213.664 177.16 213.324 177.07 212.95 177.07C212.564 177.07 212.217 177.157 211.91 177.33C211.604 177.503 211.36 177.757 211.18 178.09C211.007 178.417 210.92 178.807 210.92 179.26C210.92 179.707 211.007 180.1 211.18 180.44C211.36 180.773 211.604 181.03 211.91 181.21C212.217 181.383 212.564 181.47 212.95 181.47C213.324 181.47 213.664 181.38 213.97 181.2C214.284 181.02 214.53 180.763 214.71 180.43C214.89 180.097 214.98 179.71 214.98 179.27ZM219.839 176.44C220.492 176.44 221.025 176.643 221.439 177.05C221.852 177.45 222.059 178.033 222.059 178.8V182H221.369V178.88C221.369 178.287 221.219 177.833 220.919 177.52C220.625 177.207 220.222 177.05 219.709 177.05C219.182 177.05 218.762 177.217 218.449 177.55C218.135 177.883 217.979 178.373 217.979 179.02V182H217.279V176.54H217.979V177.47C218.152 177.137 218.402 176.883 218.729 176.71C219.055 176.53 219.425 176.44 219.839 176.44ZM228.107 176.54L224.867 184.57H224.137L225.197 181.97L222.957 176.54H223.727L225.587 181.2L227.387 176.54H228.107ZM38.9409 197.26C38.9409 196.7 39.0509 196.21 39.2709 195.79C39.4976 195.363 39.8076 195.037 40.2009 194.81C40.6009 194.577 41.0509 194.46 41.5509 194.46C42.0709 194.46 42.5176 194.58 42.8909 194.82C43.2709 195.06 43.5443 195.367 43.7109 195.74V194.54H44.4109V200H43.7109V198.79C43.5376 199.163 43.2609 199.473 42.8809 199.72C42.5076 199.96 42.0609 200.08 41.5409 200.08C41.0476 200.08 40.6009 199.963 40.2009 199.73C39.8076 199.497 39.4976 199.167 39.2709 198.74C39.0509 198.313 38.9409 197.82 38.9409 197.26ZM43.7109 197.27C43.7109 196.83 43.6209 196.443 43.4409 196.11C43.2609 195.777 43.0143 195.52 42.7009 195.34C42.3943 195.16 42.0543 195.07 41.6809 195.07C41.2943 195.07 40.9476 195.157 40.6409 195.33C40.3343 195.503 40.0909 195.757 39.9109 196.09C39.7376 196.417 39.6509 196.807 39.6509 197.26C39.6509 197.707 39.7376 198.1 39.9109 198.44C40.0909 198.773 40.3343 199.03 40.6409 199.21C40.9476 199.383 41.2943 199.47 41.6809 199.47C42.0543 199.47 42.3943 199.38 42.7009 199.2C43.0143 199.02 43.2609 198.763 43.4409 198.43C43.6209 198.097 43.7109 197.71 43.7109 197.27ZM48.569 194.44C49.2223 194.44 49.7557 194.643 50.169 195.05C50.5823 195.45 50.789 196.033 50.789 196.8V200H50.099V196.88C50.099 196.287 49.949 195.833 49.649 195.52C49.3557 195.207 48.9523 195.05 48.439 195.05C47.9123 195.05 47.4923 195.217 47.179 195.55C46.8657 195.883 46.709 196.373 46.709 197.02V200H46.009V194.54H46.709V195.47C46.8823 195.137 47.1323 194.883 47.459 194.71C47.7857 194.53 48.1557 194.44 48.569 194.44ZM52.0171 197.26C52.0171 196.7 52.1304 196.21 52.3571 195.79C52.5838 195.363 52.8938 195.037 53.2871 194.81C53.6871 194.577 54.1371 194.46 54.6371 194.46C55.1171 194.46 55.5504 194.577 55.9371 194.81C56.3238 195.043 56.6071 195.347 56.7871 195.72V192.6H57.4871V200H56.7871V198.78C56.6204 199.16 56.3471 199.473 55.9671 199.72C55.5871 199.96 55.1404 200.08 54.6271 200.08C54.1271 200.08 53.6771 199.963 53.2771 199.73C52.8838 199.497 52.5738 199.167 52.3471 198.74C52.1271 198.313 52.0171 197.82 52.0171 197.26ZM56.7871 197.27C56.7871 196.83 56.6971 196.443 56.5171 196.11C56.3371 195.777 56.0904 195.52 55.7771 195.34C55.4704 195.16 55.1304 195.07 54.7571 195.07C54.3704 195.07 54.0238 195.157 53.7171 195.33C53.4104 195.503 53.1671 195.757 52.9871 196.09C52.8138 196.417 52.7271 196.807 52.7271 197.26C52.7271 197.707 52.8138 198.1 52.9871 198.44C53.1671 198.773 53.4104 199.03 53.7171 199.21C54.0238 199.383 54.3704 199.47 54.7571 199.47C55.1304 199.47 55.4704 199.38 55.7771 199.2C56.0904 199.02 56.3371 198.763 56.5171 198.43C56.6971 198.097 56.7871 197.71 56.7871 197.27ZM62.7393 195.13V198.52C62.7393 198.853 62.8026 199.083 62.9293 199.21C63.056 199.337 63.2793 199.4 63.5993 199.4H64.2393V200H63.4893C62.996 200 62.6293 199.887 62.3893 199.66C62.1493 199.427 62.0293 199.047 62.0293 198.52V195.13H61.2693V194.54H62.0293V193.17H62.7393V194.54H64.2393V195.13H62.7393ZM67.9938 194.44C68.4071 194.44 68.7771 194.527 69.1038 194.7C69.4371 194.873 69.6971 195.14 69.8838 195.5C70.0771 195.853 70.1738 196.287 70.1738 196.8V200H69.4838V196.88C69.4838 196.287 69.3338 195.833 69.0338 195.52C68.7404 195.207 68.3371 195.05 67.8238 195.05C67.2971 195.05 66.8771 195.217 66.5638 195.55C66.2504 195.883 66.0938 196.373 66.0938 197.02V200H65.3938V192.6H66.0938V195.47C66.2671 195.143 66.5204 194.89 66.8538 194.71C67.1938 194.53 67.5738 194.44 67.9938 194.44ZM76.6619 196.99C76.6619 197.23 76.6552 197.413 76.6419 197.54H72.1119C72.1319 197.953 72.2319 198.307 72.4119 198.6C72.5919 198.893 72.8285 199.117 73.1219 199.27C73.4152 199.417 73.7352 199.49 74.0819 199.49C74.5352 199.49 74.9152 199.38 75.2219 199.16C75.5352 198.94 75.7419 198.643 75.8419 198.27H76.5819C76.4485 198.803 76.1619 199.24 75.7219 199.58C75.2885 199.913 74.7419 200.08 74.0819 200.08C73.5685 200.08 73.1085 199.967 72.7019 199.74C72.2952 199.507 71.9752 199.18 71.7419 198.76C71.5152 198.333 71.4019 197.837 71.4019 197.27C71.4019 196.703 71.5152 196.207 71.7419 195.78C71.9685 195.353 72.2852 195.027 72.6919 194.8C73.0985 194.573 73.5619 194.46 74.0819 194.46C74.6019 194.46 75.0552 194.573 75.4419 194.8C75.8352 195.027 76.1352 195.333 76.3419 195.72C76.5552 196.1 76.6619 196.523 76.6619 196.99ZM75.9519 196.97C75.9585 196.563 75.8752 196.217 75.7019 195.93C75.5352 195.643 75.3052 195.427 75.0119 195.28C74.7185 195.133 74.3985 195.06 74.0519 195.06C73.5319 195.06 73.0885 195.227 72.7219 195.56C72.3552 195.893 72.1519 196.363 72.1119 196.97H75.9519ZM85.4167 194.54V200H84.7167V199.04C84.5567 199.38 84.3101 199.64 83.9767 199.82C83.6434 200 83.2701 200.09 82.8567 200.09C82.2034 200.09 81.6701 199.89 81.2567 199.49C80.8434 199.083 80.6367 198.497 80.6367 197.73V194.54H81.3267V197.65C81.3267 198.243 81.4734 198.697 81.7667 199.01C82.0667 199.323 82.4734 199.48 82.9867 199.48C83.5134 199.48 83.9334 199.313 84.2467 198.98C84.5601 198.647 84.7167 198.157 84.7167 197.51V194.54H85.4167ZM88.8948 200.08C88.2682 200.08 87.7548 199.937 87.3548 199.65C86.9615 199.357 86.7415 198.96 86.6948 198.46H87.4148C87.4482 198.767 87.5915 199.017 87.8448 199.21C88.1048 199.397 88.4515 199.49 88.8848 199.49C89.2648 199.49 89.5615 199.4 89.7748 199.22C89.9948 199.04 90.1048 198.817 90.1048 198.55C90.1048 198.363 90.0448 198.21 89.9248 198.09C89.8048 197.97 89.6515 197.877 89.4648 197.81C89.2848 197.737 89.0382 197.66 88.7248 197.58C88.3182 197.473 87.9882 197.367 87.7348 197.26C87.4815 197.153 87.2648 196.997 87.0848 196.79C86.9115 196.577 86.8248 196.293 86.8248 195.94C86.8248 195.673 86.9048 195.427 87.0648 195.2C87.2248 194.973 87.4515 194.793 87.7448 194.66C88.0382 194.527 88.3715 194.46 88.7448 194.46C89.3315 194.46 89.8048 194.61 90.1648 194.91C90.5248 195.203 90.7182 195.61 90.7448 196.13H90.0448C90.0248 195.81 89.8982 195.553 89.6648 195.36C89.4382 195.16 89.1248 195.06 88.7248 195.06C88.3715 195.06 88.0848 195.143 87.8648 195.31C87.6448 195.477 87.5348 195.683 87.5348 195.93C87.5348 196.143 87.5982 196.32 87.7248 196.46C87.8582 196.593 88.0215 196.7 88.2148 196.78C88.4082 196.853 88.6682 196.937 88.9948 197.03C89.3882 197.137 89.7015 197.24 89.9348 197.34C90.1682 197.44 90.3682 197.587 90.5348 197.78C90.7015 197.973 90.7882 198.23 90.7948 198.55C90.7948 198.843 90.7148 199.107 90.5548 199.34C90.3948 199.567 90.1715 199.747 89.8848 199.88C89.5982 200.013 89.2682 200.08 88.8948 200.08ZM97.0525 196.99C97.0525 197.23 97.0458 197.413 97.0325 197.54H92.5025C92.5225 197.953 92.6225 198.307 92.8025 198.6C92.9825 198.893 93.2192 199.117 93.5125 199.27C93.8058 199.417 94.1258 199.49 94.4725 199.49C94.9258 199.49 95.3058 199.38 95.6125 199.16C95.9258 198.94 96.1325 198.643 96.2325 198.27H96.9725C96.8392 198.803 96.5525 199.24 96.1125 199.58C95.6792 199.913 95.1325 200.08 94.4725 200.08C93.9592 200.08 93.4992 199.967 93.0925 199.74C92.6858 199.507 92.3658 199.18 92.1325 198.76C91.9058 198.333 91.7925 197.837 91.7925 197.27C91.7925 196.703 91.9058 196.207 92.1325 195.78C92.3592 195.353 92.6758 195.027 93.0825 194.8C93.4892 194.573 93.9525 194.46 94.4725 194.46C94.9925 194.46 95.4458 194.573 95.8325 194.8C96.2258 195.027 96.5258 195.333 96.7325 195.72C96.9458 196.1 97.0525 196.523 97.0525 196.99ZM96.3425 196.97C96.3492 196.563 96.2658 196.217 96.0925 195.93C95.9258 195.643 95.6958 195.427 95.4025 195.28C95.1092 195.133 94.7892 195.06 94.4425 195.06C93.9225 195.06 93.4792 195.227 93.1125 195.56C92.7458 195.893 92.5425 196.363 92.5025 196.97H96.3425ZM99.0332 195.51C99.1865 195.17 99.4199 194.907 99.7332 194.72C100.053 194.533 100.443 194.44 100.903 194.44V195.17H100.713C100.207 195.17 99.7999 195.307 99.4932 195.58C99.1865 195.853 99.0332 196.31 99.0332 196.95V200H98.3332V194.54H99.0332V195.51ZM107.09 200.08C106.577 200.08 106.114 199.967 105.7 199.74C105.294 199.507 104.97 199.18 104.73 198.76C104.497 198.333 104.38 197.837 104.38 197.27C104.38 196.703 104.5 196.21 104.74 195.79C104.98 195.363 105.307 195.037 105.72 194.81C106.134 194.577 106.597 194.46 107.11 194.46C107.624 194.46 108.087 194.577 108.5 194.81C108.92 195.037 109.247 195.363 109.48 195.79C109.72 196.21 109.84 196.703 109.84 197.27C109.84 197.83 109.72 198.323 109.48 198.75C109.24 199.177 108.91 199.507 108.49 199.74C108.07 199.967 107.604 200.08 107.09 200.08ZM107.09 199.47C107.45 199.47 107.784 199.39 108.09 199.23C108.397 199.063 108.644 198.817 108.83 198.49C109.024 198.157 109.12 197.75 109.12 197.27C109.12 196.79 109.027 196.387 108.84 196.06C108.654 195.727 108.407 195.48 108.1 195.32C107.794 195.153 107.46 195.07 107.1 195.07C106.74 195.07 106.407 195.153 106.1 195.32C105.794 195.48 105.547 195.727 105.36 196.06C105.18 196.387 105.09 196.79 105.09 197.27C105.09 197.75 105.18 198.157 105.36 198.49C105.547 198.817 105.79 199.063 106.09 199.23C106.397 199.39 106.73 199.47 107.09 199.47ZM111.806 195.74C111.98 195.373 112.253 195.07 112.626 194.83C113.006 194.583 113.456 194.46 113.976 194.46C114.47 194.46 114.913 194.577 115.306 194.81C115.706 195.037 116.016 195.363 116.236 195.79C116.463 196.21 116.576 196.7 116.576 197.26C116.576 197.82 116.463 198.313 116.236 198.74C116.016 199.167 115.706 199.497 115.306 199.73C114.913 199.963 114.47 200.08 113.976 200.08C113.463 200.08 113.016 199.96 112.636 199.72C112.256 199.473 111.98 199.167 111.806 198.8V202.58H111.116V194.54H111.806V195.74ZM115.866 197.26C115.866 196.807 115.776 196.417 115.596 196.09C115.423 195.757 115.183 195.503 114.876 195.33C114.57 195.157 114.223 195.07 113.836 195.07C113.463 195.07 113.12 195.16 112.806 195.34C112.5 195.52 112.256 195.777 112.076 196.11C111.896 196.443 111.806 196.83 111.806 197.27C111.806 197.71 111.896 198.097 112.076 198.43C112.256 198.763 112.5 199.02 112.806 199.2C113.12 199.38 113.463 199.47 113.836 199.47C114.223 199.47 114.57 199.383 114.876 199.21C115.183 199.03 115.423 198.773 115.596 198.44C115.776 198.1 115.866 197.707 115.866 197.26ZM122.804 196.99C122.804 197.23 122.798 197.413 122.784 197.54H118.254C118.274 197.953 118.374 198.307 118.554 198.6C118.734 198.893 118.971 199.117 119.264 199.27C119.558 199.417 119.878 199.49 120.224 199.49C120.678 199.49 121.058 199.38 121.364 199.16C121.678 198.94 121.884 198.643 121.984 198.27H122.724C122.591 198.803 122.304 199.24 121.864 199.58C121.431 199.913 120.884 200.08 120.224 200.08C119.711 200.08 119.251 199.967 118.844 199.74C118.438 199.507 118.118 199.18 117.884 198.76C117.658 198.333 117.544 197.837 117.544 197.27C117.544 196.703 117.658 196.207 117.884 195.78C118.111 195.353 118.428 195.027 118.834 194.8C119.241 194.573 119.704 194.46 120.224 194.46C120.744 194.46 121.198 194.573 121.584 194.8C121.978 195.027 122.278 195.333 122.484 195.72C122.698 196.1 122.804 196.523 122.804 196.99ZM122.094 196.97C122.101 196.563 122.018 196.217 121.844 195.93C121.678 195.643 121.448 195.427 121.154 195.28C120.861 195.133 120.541 195.06 120.194 195.06C119.674 195.06 119.231 195.227 118.864 195.56C118.498 195.893 118.294 196.363 118.254 196.97H122.094ZM124.785 195.51C124.938 195.17 125.172 194.907 125.485 194.72C125.805 194.533 126.195 194.44 126.655 194.44V195.17H126.465C125.958 195.17 125.552 195.307 125.245 195.58C124.938 195.853 124.785 196.31 124.785 196.95V200H124.085V194.54H124.785V195.51ZM127.388 197.26C127.388 196.7 127.498 196.21 127.718 195.79C127.945 195.363 128.255 195.037 128.648 194.81C129.048 194.577 129.498 194.46 129.998 194.46C130.518 194.46 130.965 194.58 131.338 194.82C131.718 195.06 131.992 195.367 132.158 195.74V194.54H132.858V200H132.158V198.79C131.985 199.163 131.708 199.473 131.328 199.72C130.955 199.96 130.508 200.08 129.988 200.08C129.495 200.08 129.048 199.963 128.648 199.73C128.255 199.497 127.945 199.167 127.718 198.74C127.498 198.313 127.388 197.82 127.388 197.26ZM132.158 197.27C132.158 196.83 132.068 196.443 131.888 196.11C131.708 195.777 131.462 195.52 131.148 195.34C130.842 195.16 130.502 195.07 130.128 195.07C129.742 195.07 129.395 195.157 129.088 195.33C128.782 195.503 128.538 195.757 128.358 196.09C128.185 196.417 128.098 196.807 128.098 197.26C128.098 197.707 128.185 198.1 128.358 198.44C128.538 198.773 128.782 199.03 129.088 199.21C129.395 199.383 129.742 199.47 130.128 199.47C130.502 199.47 130.842 199.38 131.148 199.2C131.462 199.02 131.708 198.763 131.888 198.43C132.068 198.097 132.158 197.71 132.158 197.27ZM135.366 195.13V198.52C135.366 198.853 135.43 199.083 135.556 199.21C135.683 199.337 135.906 199.4 136.226 199.4H136.866V200H136.116C135.623 200 135.256 199.887 135.016 199.66C134.776 199.427 134.656 199.047 134.656 198.52V195.13H133.896V194.54H134.656V193.17H135.366V194.54H136.866V195.13H135.366ZM138.371 193.51C138.231 193.51 138.111 193.46 138.011 193.36C137.911 193.26 137.861 193.137 137.861 192.99C137.861 192.843 137.911 192.723 138.011 192.63C138.111 192.53 138.231 192.48 138.371 192.48C138.511 192.48 138.631 192.53 138.731 192.63C138.831 192.723 138.881 192.843 138.881 192.99C138.881 193.137 138.831 193.26 138.731 193.36C138.631 193.46 138.511 193.51 138.371 193.51ZM138.721 194.54V200H138.021V194.54H138.721ZM142.866 194.44C143.519 194.44 144.053 194.643 144.466 195.05C144.879 195.45 145.086 196.033 145.086 196.8V200H144.396V196.88C144.396 196.287 144.246 195.833 143.946 195.52C143.653 195.207 143.249 195.05 142.736 195.05C142.209 195.05 141.789 195.217 141.476 195.55C141.163 195.883 141.006 196.373 141.006 197.02V200H140.306V194.54H141.006V195.47C141.179 195.137 141.429 194.883 141.756 194.71C142.083 194.53 142.453 194.44 142.866 194.44ZM148.924 194.46C149.437 194.46 149.884 194.58 150.264 194.82C150.644 195.06 150.917 195.363 151.084 195.73V194.54H151.784V200.14C151.784 200.64 151.674 201.083 151.454 201.47C151.241 201.857 150.941 202.153 150.554 202.36C150.167 202.573 149.727 202.68 149.234 202.68C148.534 202.68 147.951 202.513 147.484 202.18C147.024 201.847 146.737 201.393 146.624 200.82H147.314C147.434 201.2 147.661 201.503 147.994 201.73C148.334 201.957 148.747 202.07 149.234 202.07C149.587 202.07 149.904 201.993 150.184 201.84C150.464 201.693 150.684 201.473 150.844 201.18C151.004 200.887 151.084 200.54 151.084 200.14V198.79C150.911 199.163 150.634 199.473 150.254 199.72C149.881 199.96 149.437 200.08 148.924 200.08C148.424 200.08 147.974 199.963 147.574 199.73C147.181 199.497 146.871 199.167 146.644 198.74C146.424 198.313 146.314 197.82 146.314 197.26C146.314 196.7 146.424 196.21 146.644 195.79C146.871 195.363 147.181 195.037 147.574 194.81C147.974 194.577 148.424 194.46 148.924 194.46ZM151.084 197.27C151.084 196.83 150.994 196.443 150.814 196.11C150.634 195.777 150.387 195.52 150.074 195.34C149.767 195.16 149.427 195.07 149.054 195.07C148.667 195.07 148.321 195.157 148.014 195.33C147.707 195.503 147.464 195.757 147.284 196.09C147.111 196.417 147.024 196.807 147.024 197.26C147.024 197.707 147.111 198.1 147.284 198.44C147.464 198.773 147.707 199.03 148.014 199.21C148.321 199.383 148.667 199.47 149.054 199.47C149.427 199.47 149.767 199.38 150.074 199.2C150.387 199.02 150.634 198.763 150.814 198.43C150.994 198.097 151.084 197.71 151.084 197.27ZM157.036 195.13V198.52C157.036 198.853 157.1 199.083 157.226 199.21C157.353 199.337 157.576 199.4 157.896 199.4H158.536V200H157.786C157.293 200 156.926 199.887 156.686 199.66C156.446 199.427 156.326 199.047 156.326 198.52V195.13H155.566V194.54H156.326V193.17H157.036V194.54H158.536V195.13H157.036ZM162.291 194.44C162.704 194.44 163.074 194.527 163.401 194.7C163.734 194.873 163.994 195.14 164.181 195.5C164.374 195.853 164.471 196.287 164.471 196.8V200H163.781V196.88C163.781 196.287 163.631 195.833 163.331 195.52C163.037 195.207 162.634 195.05 162.121 195.05C161.594 195.05 161.174 195.217 160.861 195.55C160.547 195.883 160.391 196.373 160.391 197.02V200H159.691V192.6H160.391V195.47C160.564 195.143 160.817 194.89 161.151 194.71C161.491 194.53 161.871 194.44 162.291 194.44ZM170.959 196.99C170.959 197.23 170.952 197.413 170.939 197.54H166.409C166.429 197.953 166.529 198.307 166.709 198.6C166.889 198.893 167.125 199.117 167.419 199.27C167.712 199.417 168.032 199.49 168.379 199.49C168.832 199.49 169.212 199.38 169.519 199.16C169.832 198.94 170.039 198.643 170.139 198.27H170.879C170.745 198.803 170.459 199.24 170.019 199.58C169.585 199.913 169.039 200.08 168.379 200.08C167.865 200.08 167.405 199.967 166.999 199.74C166.592 199.507 166.272 199.18 166.039 198.76C165.812 198.333 165.699 197.837 165.699 197.27C165.699 196.703 165.812 196.207 166.039 195.78C166.265 195.353 166.582 195.027 166.989 194.8C167.395 194.573 167.859 194.46 168.379 194.46C168.899 194.46 169.352 194.573 169.739 194.8C170.132 195.027 170.432 195.333 170.639 195.72C170.852 196.1 170.959 196.523 170.959 196.99ZM170.249 196.97C170.255 196.563 170.172 196.217 169.999 195.93C169.832 195.643 169.602 195.427 169.309 195.28C169.015 195.133 168.695 195.06 168.349 195.06C167.829 195.06 167.385 195.227 167.019 195.56C166.652 195.893 166.449 196.363 166.409 196.97H170.249ZM176.864 200.08C176.237 200.08 175.724 199.937 175.324 199.65C174.93 199.357 174.71 198.96 174.664 198.46H175.384C175.417 198.767 175.56 199.017 175.814 199.21C176.074 199.397 176.42 199.49 176.854 199.49C177.234 199.49 177.53 199.4 177.744 199.22C177.964 199.04 178.074 198.817 178.074 198.55C178.074 198.363 178.014 198.21 177.894 198.09C177.774 197.97 177.62 197.877 177.434 197.81C177.254 197.737 177.007 197.66 176.694 197.58C176.287 197.473 175.957 197.367 175.704 197.26C175.45 197.153 175.234 196.997 175.054 196.79C174.88 196.577 174.794 196.293 174.794 195.94C174.794 195.673 174.874 195.427 175.034 195.2C175.194 194.973 175.42 194.793 175.714 194.66C176.007 194.527 176.34 194.46 176.714 194.46C177.3 194.46 177.774 194.61 178.134 194.91C178.494 195.203 178.687 195.61 178.714 196.13H178.014C177.994 195.81 177.867 195.553 177.634 195.36C177.407 195.16 177.094 195.06 176.694 195.06C176.34 195.06 176.054 195.143 175.834 195.31C175.614 195.477 175.504 195.683 175.504 195.93C175.504 196.143 175.567 196.32 175.694 196.46C175.827 196.593 175.99 196.7 176.184 196.78C176.377 196.853 176.637 196.937 176.964 197.03C177.357 197.137 177.67 197.24 177.904 197.34C178.137 197.44 178.337 197.587 178.504 197.78C178.67 197.973 178.757 198.23 178.764 198.55C178.764 198.843 178.684 199.107 178.524 199.34C178.364 199.567 178.14 199.747 177.854 199.88C177.567 200.013 177.237 200.08 176.864 200.08ZM186.581 194.44C187.221 194.44 187.741 194.643 188.141 195.05C188.548 195.45 188.751 196.033 188.751 196.8V200H188.061V196.88C188.061 196.287 187.918 195.833 187.631 195.52C187.345 195.207 186.955 195.05 186.461 195.05C185.948 195.05 185.538 195.22 185.231 195.56C184.925 195.9 184.771 196.393 184.771 197.04V200H184.081V196.88C184.081 196.287 183.938 195.833 183.651 195.52C183.365 195.207 182.971 195.05 182.471 195.05C181.958 195.05 181.548 195.22 181.241 195.56C180.935 195.9 180.781 196.393 180.781 197.04V200H180.081V194.54H180.781V195.48C180.955 195.14 181.201 194.883 181.521 194.71C181.841 194.53 182.198 194.44 182.591 194.44C183.065 194.44 183.478 194.553 183.831 194.78C184.191 195.007 184.451 195.34 184.611 195.78C184.758 195.347 185.008 195.017 185.361 194.79C185.721 194.557 186.128 194.44 186.581 194.44ZM189.986 197.26C189.986 196.7 190.096 196.21 190.316 195.79C190.543 195.363 190.853 195.037 191.246 194.81C191.646 194.577 192.096 194.46 192.596 194.46C193.116 194.46 193.563 194.58 193.936 194.82C194.316 195.06 194.589 195.367 194.756 195.74V194.54H195.456V200H194.756V198.79C194.583 199.163 194.306 199.473 193.926 199.72C193.553 199.96 193.106 200.08 192.586 200.08C192.093 200.08 191.646 199.963 191.246 199.73C190.853 199.497 190.543 199.167 190.316 198.74C190.096 198.313 189.986 197.82 189.986 197.26ZM194.756 197.27C194.756 196.83 194.666 196.443 194.486 196.11C194.306 195.777 194.059 195.52 193.746 195.34C193.439 195.16 193.099 195.07 192.726 195.07C192.339 195.07 191.993 195.157 191.686 195.33C191.379 195.503 191.136 195.757 190.956 196.09C190.783 196.417 190.696 196.807 190.696 197.26C190.696 197.707 190.783 198.1 190.956 198.44C191.136 198.773 191.379 199.03 191.686 199.21C191.993 199.383 192.339 199.47 192.726 199.47C193.099 199.47 193.439 199.38 193.746 199.2C194.059 199.02 194.306 198.763 194.486 198.43C194.666 198.097 194.756 197.71 194.756 197.27ZM197.754 195.51C197.907 195.17 198.141 194.907 198.454 194.72C198.774 194.533 199.164 194.44 199.624 194.44V195.17H199.434C198.927 195.17 198.521 195.307 198.214 195.58C197.907 195.853 197.754 196.31 197.754 196.95V200H197.054V194.54H197.754V195.51ZM201.587 195.13V198.52C201.587 198.853 201.65 199.083 201.777 199.21C201.904 199.337 202.127 199.4 202.447 199.4H203.087V200H202.337C201.844 200 201.477 199.887 201.237 199.66C200.997 199.427 200.877 199.047 200.877 198.52V195.13H200.117V194.54H200.877V193.17H201.587V194.54H203.087V195.13H201.587ZM214.186 194.54L212.476 200H211.776L210.266 195.42L208.756 200H208.046L206.336 194.54H207.046L208.406 199.29L209.936 194.54H210.636L212.146 199.3L213.496 194.54H214.186ZM217.53 200.08C217.017 200.08 216.553 199.967 216.14 199.74C215.733 199.507 215.41 199.18 215.17 198.76C214.937 198.333 214.82 197.837 214.82 197.27C214.82 196.703 214.94 196.21 215.18 195.79C215.42 195.363 215.747 195.037 216.16 194.81C216.573 194.577 217.037 194.46 217.55 194.46C218.063 194.46 218.527 194.577 218.94 194.81C219.36 195.037 219.687 195.363 219.92 195.79C220.16 196.21 220.28 196.703 220.28 197.27C220.28 197.83 220.16 198.323 219.92 198.75C219.68 199.177 219.35 199.507 218.93 199.74C218.51 199.967 218.043 200.08 217.53 200.08ZM217.53 199.47C217.89 199.47 218.223 199.39 218.53 199.23C218.837 199.063 219.083 198.817 219.27 198.49C219.463 198.157 219.56 197.75 219.56 197.27C219.56 196.79 219.467 196.387 219.28 196.06C219.093 195.727 218.847 195.48 218.54 195.32C218.233 195.153 217.9 195.07 217.54 195.07C217.18 195.07 216.847 195.153 216.54 195.32C216.233 195.48 215.987 195.727 215.8 196.06C215.62 196.387 215.53 196.79 215.53 197.27C215.53 197.75 215.62 198.157 215.8 198.49C215.987 198.817 216.23 199.063 216.53 199.23C216.837 199.39 217.17 199.47 217.53 199.47ZM222.256 195.51C222.409 195.17 222.643 194.907 222.956 194.72C223.276 194.533 223.666 194.44 224.126 194.44V195.17H223.936C223.429 195.17 223.023 195.307 222.716 195.58C222.409 195.853 222.256 196.31 222.256 196.95V200H221.556V194.54H222.256V195.51ZM228.129 200L225.879 197.55V200H225.179V192.6H225.879V196.98L228.079 194.54H229.059L226.469 197.26L229.079 200H228.129ZM230.104 200.05C229.957 200.05 229.834 200 229.734 199.9C229.64 199.8 229.594 199.677 229.594 199.53C229.594 199.383 229.64 199.263 229.734 199.17C229.834 199.07 229.957 199.02 230.104 199.02C230.244 199.02 230.36 199.07 230.454 199.17C230.554 199.263 230.604 199.383 230.604 199.53C230.604 199.677 230.554 199.8 230.454 199.9C230.36 200 230.244 200.05 230.104 200.05Z" fill="#8A8A8A"/>
</svg>
