<svg width="90" height="97" viewBox="0 0 90 97" fill="none" xmlns="http://www.w3.org/2000/svg">
<g clip-path="url(#clip0_12_707)">
<path d="M17.9171 20.2749C23.4951 20.2749 28.017 15.7362 28.017 10.1374C28.017 4.53869 23.4951 0 17.9171 0C12.339 0 7.81714 4.53869 7.81714 10.1374C7.81714 15.7362 12.339 20.2749 17.9171 20.2749Z" fill="#3D63EB"/>
<path d="M52.8516 41.9384H74.3658L82.252 23.3994" stroke="#6A8BFF" stroke-width="6" stroke-miterlimit="10" stroke-linecap="round" stroke-linejoin="round"/>
<path d="M88.6165 53.6729H48.2168C47.4558 53.6729 46.8333 53.048 46.8333 52.2842V47.7015C46.8333 46.9377 47.4558 46.3128 48.2168 46.3128H88.6165C89.3775 46.3128 90.0001 46.9377 90.0001 47.7015V52.2842C90.0001 53.048 89.3775 53.6729 88.6165 53.6729Z" fill="#6A8BFF"/>
<path d="M35.4255 86.7815V62.0799C35.4255 58.5616 38.1483 55.703 41.4993 55.703H42.756C46.1071 55.703 48.8298 58.5616 48.8298 62.0799V86.7815C48.8298 90.2998 46.1071 93.1584 42.756 93.1584H41.4993C38.1483 93.1584 35.4255 90.2998 35.4255 86.7815Z" fill="#3D63EB"/>
<path d="M42.7518 66.2405H18.263C15.2192 66.2405 12.7288 63.7409 12.7288 60.6857V60.6163C12.7288 57.5612 15.2192 55.0616 18.263 55.0616H42.821C45.8648 55.0616 48.3552 57.5612 48.3552 60.6163V60.6857C48.286 63.8103 45.7956 66.2405 42.7518 66.2405Z" fill="#3D63EB"/>
<path d="M15.7032 91.6536H14.8039C13.7663 91.6536 12.8669 90.7509 12.8669 89.7094V75.3364C12.8669 74.2949 13.7663 73.3923 14.8039 73.3923H15.7032C16.7409 73.3923 17.6402 74.2949 17.6402 75.3364V89.7094C17.6402 90.7509 16.7409 91.6536 15.7032 91.6536Z" fill="#6A8BFF"/>
<path d="M52.3673 93.32H37.84C36.3873 93.32 35.1421 92.1396 35.1421 90.612V87.5569C35.1421 86.0988 36.3181 84.8489 37.84 84.8489H52.3673C53.82 84.8489 55.0652 86.0293 55.0652 87.5569V90.612C55.0652 92.0701 53.8892 93.32 52.3673 93.32Z" fill="#3D63EB"/>
<path d="M45.2421 43.0494H28.9162C26.91 43.0494 25.2498 41.383 25.2498 39.3694C25.2498 37.3558 26.91 35.6893 28.9162 35.6893H45.1729C47.179 35.6893 48.8393 37.3558 48.8393 39.3694C48.9085 41.383 47.2482 43.0494 45.2421 43.0494Z" fill="#3D63EB"/>
<path d="M8.61694 58.4914V29.9338C8.61694 25.5986 11.5989 22.0891 15.2825 22.0891H17.2705C20.9541 22.0891 23.9361 25.5986 23.9361 29.9338V58.4226C23.9361 62.7578 20.9541 66.2673 17.329 66.2673H15.341C11.5989 66.2673 8.61694 62.7578 8.61694 58.4914Z" fill="#3D63EB"/>
<path d="M25.5266 41.7301L16.8102 30.6206C15.565 29.0236 15.8417 26.8017 17.4328 25.5519L17.9862 25.1353C19.5773 23.8855 21.791 24.1632 23.0362 25.7602L31.7525 36.8697C32.9977 38.4667 32.721 40.6886 31.1299 41.9384L30.6457 42.355C29.0546 43.5354 26.7718 43.3271 25.5266 41.7301Z" fill="#3D63EB"/>
<path d="M87.2329 97H63.3666C61.8447 97 60.6687 95.7502 60.6687 94.292V57.8389C60.6687 56.3114 61.9139 55.131 63.3666 55.131H87.2329C88.7548 55.131 89.9308 56.3808 89.9308 57.8389V94.2226C90 95.7502 88.7548 97 87.2329 97Z" fill="#6A8BFF"/>
<path d="M2.07544 27.2183C2.97475 31.315 2.07544 70.4066 2.07544 70.4066H30.5074" stroke="#6A8BFF" stroke-width="6" stroke-miterlimit="10" stroke-linecap="round" stroke-linejoin="round"/>
<path d="M2.76709 89.7094C2.76709 89.7094 13.7663 76.5863 27.671 89.7094" stroke="#6A8BFF" stroke-width="6" stroke-miterlimit="10" stroke-linecap="round" stroke-linejoin="round"/>
</g>
<defs>
<clipPath id="clip0_12_707">
<rect width="90" height="97" fill="white"/>
</clipPath>
</defs>
</svg>
