<svg width="25" height="26" viewBox="0 0 25 26" fill="none" xmlns="http://www.w3.org/2000/svg">
<path fill-rule="evenodd" clip-rule="evenodd" d="M21.3736 0H0V4.06074H21.0092C21.0728 4.06418 21.1369 4.06593 21.2016 4.06593C22.6772 4.06593 23.8733 3.1569 23.8733 2.03556C23.8733 0.958105 22.769 0.0766718 21.3736 0.00932225V0ZM22.3816 20.1614H0V25.0342H22.0119C22.0748 25.0379 22.1383 25.0398 22.2023 25.0398C23.7474 25.0398 25 23.949 25 22.6034C25 21.3102 23.8432 20.2523 22.3816 20.1718V20.1614ZM0 9.9496H19.1354V9.95859C20.3847 10.0304 21.3734 10.9706 21.3734 12.1199C21.3734 13.316 20.3025 14.2856 18.9815 14.2856C18.9288 14.2856 18.8765 14.2841 18.8247 14.2811H0V9.9496Z" fill="#0E88FE"/>
<path fill-rule="evenodd" clip-rule="evenodd" d="M21.3736 0H0V4.06074H21.0092C21.0728 4.06418 21.1369 4.06593 21.2016 4.06593C22.6772 4.06593 23.8733 3.1569 23.8733 2.03556C23.8733 0.958105 22.769 0.0766718 21.3736 0.00932225V0ZM22.3816 20.1614H0V25.0342H22.0119C22.0748 25.0379 22.1383 25.0398 22.2023 25.0398C23.7474 25.0398 25 23.949 25 22.6034C25 21.3102 23.8432 20.2523 22.3816 20.1718V20.1614ZM0 9.9496H19.1354V9.95859C20.3847 10.0304 21.3734 10.9706 21.3734 12.1199C21.3734 13.316 20.3025 14.2856 18.9815 14.2856C18.9288 14.2856 18.8765 14.2841 18.8247 14.2811H0V9.9496Z" fill="white"/>
</svg>
