<svg width="74" height="74" viewBox="0 0 74 74" fill="none" xmlns="http://www.w3.org/2000/svg">
<g opacity="0.4">
<mask id="mask0_3470_1709" style="mask-type:alpha" maskUnits="userSpaceOnUse" x="0" y="0" width="74" height="74">
<circle cx="37" cy="37" r="37" fill="#3A1C1C"/>
</mask>
<g mask="url(#mask0_3470_1709)">
<rect x="10.7894" y="-21.0965" width="1.94737" height="106.456" fill="white"/>
<rect x="62.0702" y="-21.0965" width="1.94737" height="106.456" fill="white"/>
<rect x="36.4298" y="-21.0965" width="1.94737" height="106.456" fill="white"/>
<rect x="5.59644" y="-21.0965" width="2.27193" height="106.456" fill="white"/>
<rect x="56.8772" y="-21.0965" width="2.27193" height="106.456" fill="white"/>
<rect x="31.2368" y="-21.0965" width="2.27193" height="106.456" fill="white"/>
<rect x="0.403564" y="-21.0965" width="2.27193" height="106.456" fill="white"/>
<rect x="51.6842" y="-21.0965" width="2.27193" height="106.456" fill="white"/>
<rect x="26.0438" y="-21.0965" width="2.27193" height="106.456" fill="white"/>
<rect x="46.4912" y="-21.0965" width="2.27193" height="106.456" fill="white"/>
<rect x="20.8508" y="-21.0965" width="2.27193" height="106.456" fill="white"/>
<rect x="72.1316" y="-21.0965" width="2.27193" height="106.456" fill="white"/>
<rect x="41.2982" y="-21.0965" width="2.27193" height="106.456" fill="white"/>
<rect x="15.6578" y="-21.0965" width="2.27193" height="106.456" fill="white"/>
<rect x="66.9386" y="-21.0965" width="2.27193" height="106.456" fill="white"/>
</g>
</g>
</svg>
