<svg width="210" height="210" viewBox="0 0 210 210" fill="none" xmlns="http://www.w3.org/2000/svg">
<mask id="mask0_3470_1734" style="mask-type:alpha" maskUnits="userSpaceOnUse" x="0" y="0" width="210" height="210">
<circle cx="105" cy="105" r="105" fill="#3A1C1C"/>
</mask>
<g mask="url(#mask0_3470_1734)">
<rect x="29.1057" y="-59.8687" width="5.52632" height="302.105" fill="#5679FF"/>
<rect x="174.632" y="-59.8687" width="5.52632" height="302.105" fill="#5679FF"/>
<rect x="101.869" y="-59.8687" width="5.52632" height="302.105" fill="#5679FF"/>
<rect x="14.3684" y="-59.8687" width="6.44737" height="302.105" fill="#5679FF"/>
<rect x="159.895" y="-59.8687" width="6.44737" height="302.105" fill="#5679FF"/>
<rect x="87.1321" y="-59.8687" width="6.44737" height="302.105" fill="#5679FF"/>
<rect x="-0.368408" y="-59.8687" width="6.44737" height="302.105" fill="#5679FF"/>
<rect x="145.158" y="-59.8687" width="6.44737" height="302.105" fill="#5679FF"/>
<rect x="72.3948" y="-59.8687" width="6.44737" height="302.105" fill="#5679FF"/>
<rect x="130.421" y="-59.8687" width="6.44737" height="302.105" fill="#5679FF"/>
<rect x="57.658" y="-59.8687" width="6.44737" height="302.105" fill="#5679FF"/>
<rect x="203.184" y="-59.8687" width="6.44737" height="302.105" fill="#5679FF"/>
<rect x="115.684" y="-59.8687" width="6.44737" height="302.105" fill="#5679FF"/>
<rect x="42.9211" y="-59.8687" width="6.44737" height="302.105" fill="#5679FF"/>
<rect x="188.448" y="-59.8687" width="6.44737" height="302.105" fill="#5679FF"/>
</g>
</svg>
