<svg width="109" height="105" viewBox="0 0 109 105" fill="none" xmlns="http://www.w3.org/2000/svg">
<g opacity="0.1">
<mask id="mask0_3470_1778" style="mask-type:alpha" maskUnits="userSpaceOnUse" x="0" y="0" width="109" height="105">
<ellipse cx="54.5" cy="52.5" rx="54.5" ry="52.5" transform="rotate(-180 54.5 52.5)" fill="#3A1C1C"/>
</mask>
<g mask="url(#mask0_3470_1778)">
<rect x="101.526" y="134.934" width="2.86842" height="151.053" transform="rotate(-180 101.526 134.934)" fill="#EBEFFF"/>
<rect x="25.991" y="134.934" width="2.86842" height="151.053" transform="rotate(-180 25.991 134.934)" fill="#EBEFFF"/>
<rect x="63.759" y="134.934" width="2.86842" height="151.053" transform="rotate(-180 63.759 134.934)" fill="#EBEFFF"/>
<rect x="109.175" y="134.934" width="3.34649" height="151.053" transform="rotate(-180 109.175 134.934)" fill="#EBEFFF"/>
<rect x="33.6406" y="134.934" width="3.34649" height="151.053" transform="rotate(-180 33.6406 134.934)" fill="#EBEFFF"/>
<rect x="71.4082" y="134.934" width="3.34649" height="151.053" transform="rotate(-180 71.4082 134.934)" fill="#EBEFFF"/>
<rect x="41.2898" y="134.934" width="3.34649" height="151.053" transform="rotate(-180 41.2898 134.934)" fill="#EBEFFF"/>
<rect x="79.0566" y="134.934" width="3.34649" height="151.053" transform="rotate(-180 79.0566 134.934)" fill="#EBEFFF"/>
<rect x="3.52222" y="134.934" width="3.34649" height="151.053" transform="rotate(-180 3.52222 134.934)" fill="#EBEFFF"/>
<rect x="48.9382" y="134.934" width="3.34649" height="151.053" transform="rotate(-180 48.9382 134.934)" fill="#EBEFFF"/>
<rect x="86.7063" y="134.934" width="3.34649" height="151.053" transform="rotate(-180 86.7063 134.934)" fill="#EBEFFF"/>
<rect x="11.1711" y="134.934" width="3.34649" height="151.053" transform="rotate(-180 11.1711 134.934)" fill="#EBEFFF"/>
<rect x="56.5879" y="134.934" width="3.34649" height="151.053" transform="rotate(-180 56.5879 134.934)" fill="#EBEFFF"/>
<rect x="94.3555" y="134.934" width="3.34649" height="151.053" transform="rotate(-180 94.3555 134.934)" fill="#EBEFFF"/>
<rect x="18.8203" y="134.934" width="3.34649" height="151.053" transform="rotate(-180 18.8203 134.934)" fill="#EBEFFF"/>
</g>
</g>
</svg>
