<svg width="306" height="80" viewBox="0 0 306 80" fill="none" xmlns="http://www.w3.org/2000/svg">
<path d="M163.252 52.9585C163.145 48.1685 164.083 43.4175 165.994 39.0811C167.698 35.3357 170.341 32.1659 173.628 29.9219C176.843 27.7837 181.566 26.6724 185.354 26.7194C188.426 26.6441 191.466 27.4007 194.189 28.9185C196.615 30.2349 198.662 32.2267 200.113 34.683V27.5094H214.781V78.5892H200.133V71.3515C198.635 73.7968 196.566 75.7836 194.129 77.116C191.398 78.6422 188.347 79.3991 185.264 79.3151C181.505 79.3533 176.814 78.242 173.628 76.1126C170.348 73.822 167.71 70.6277 165.994 66.868C164.098 62.5149 163.161 57.7573 163.252 52.9585ZM195.7 53.0439C195.7 49.1369 194.7 46.0625 192.699 43.7994C191.8 42.7164 190.693 41.8533 189.453 41.2692C188.214 40.6851 186.87 40.3939 185.515 40.4154C184.152 40.3958 182.801 40.6844 181.551 41.2621C180.301 41.8399 179.179 42.6937 178.26 43.7674C176.313 45.9664 175.339 49.0195 175.339 52.9265C175.339 56.8336 176.313 59.9542 178.26 62.2885C179.176 63.3723 180.297 64.2357 181.55 64.821C182.802 65.4064 184.157 65.7003 185.525 65.6831C186.881 65.7055 188.226 65.4136 189.466 64.8275C190.706 64.2414 191.813 63.3751 192.709 62.2885C194.71 60.0361 195.72 56.951 195.72 53.0439H195.7ZM241.296 79.3151C237.469 79.3904 233.669 78.6124 230.14 77.0306C227.11 75.6927 224.451 73.5503 222.415 70.8071C220.564 68.2065 219.462 65.087 219.244 61.8295H233.742C233.817 62.6778 234.063 63.4987 234.464 64.2357C234.865 64.9728 235.41 65.6086 236.063 66.0994C237.532 67.235 239.313 67.8171 241.126 67.7541C242.596 67.8625 244.062 67.4901 245.328 66.6866C245.802 66.3611 246.191 65.9138 246.46 65.386C246.73 64.8581 246.87 64.2665 246.869 63.6656C246.876 62.9587 246.672 62.2679 246.287 61.6925C245.902 61.117 245.357 60.6866 244.728 60.4631C242.484 59.4425 240.156 58.6456 237.774 58.0825C234.865 57.3931 232.001 56.5052 229.199 55.4245C226.916 54.4582 224.885 52.9204 223.276 50.941C221.524 48.5813 220.638 45.6209 220.784 42.6145C220.76 39.7809 221.538 37.0054 223.016 34.6509C224.694 32.0953 227.014 30.0971 229.71 28.8865C233.049 27.3937 236.646 26.6664 240.265 26.7515C246.269 26.7515 250.988 28.3385 254.423 31.5125C256.154 33.095 257.574 35.0258 258.604 37.1946C259.634 39.3633 260.254 41.7274 260.427 44.1517H246.829C246.75 43.3153 246.511 42.5051 246.127 41.7709C245.743 41.0366 245.223 40.3937 244.598 39.8817C243.202 38.82 241.505 38.307 239.795 38.4299C238.405 38.3284 237.021 38.7023 235.843 39.4974C235.406 39.8059 235.05 40.229 234.81 40.7262C234.57 41.2234 234.454 41.778 234.472 42.3369C234.474 43.0548 234.681 43.755 235.066 44.3443C235.45 44.9335 235.993 45.3839 236.623 45.6355C238.839 46.6048 241.138 47.3413 243.487 47.8346C246.434 48.6003 249.329 49.5775 252.152 50.7595C254.436 51.7198 256.447 53.2981 257.985 55.3391C259.798 57.7107 260.744 60.7031 260.647 63.7616C260.673 66.6511 259.828 69.4729 258.236 71.8106C256.505 74.284 254.158 76.189 251.462 77.3082C248.235 78.7031 244.777 79.3858 241.296 79.3151ZM286.682 79.3151C282.858 79.3905 279.061 78.6124 275.535 77.0306C272.505 75.6927 269.846 73.5503 267.811 70.8071C265.951 68.2113 264.848 65.0892 264.639 61.8295H279.137C279.213 62.6765 279.458 63.4964 279.857 64.2332C280.256 64.97 280.799 65.6065 281.449 66.0994C282.918 67.2335 284.699 67.8155 286.512 67.7541C287.982 67.8652 289.449 67.4927 290.714 66.6866C291.189 66.3616 291.579 65.9147 291.85 65.387C292.121 64.8592 292.264 64.2673 292.265 63.6656C292.269 62.9578 292.063 62.2668 291.677 61.6915C291.29 61.1162 290.743 60.6862 290.114 60.4631C287.873 59.4422 285.548 58.6452 283.17 58.0825C280.258 57.3914 277.391 56.5036 274.585 55.4245C272.305 54.4581 270.277 52.9203 268.671 50.941C266.919 48.5813 266.033 45.6209 266.18 42.6145C266.151 39.7802 266.929 37.0031 268.411 34.6509C270.084 32.0904 272.406 30.091 275.105 28.8865C278.442 27.3946 282.034 26.6672 285.651 26.7515C291.654 26.7515 296.374 28.3385 299.809 31.5125C301.542 33.0919 302.965 35.022 303.996 37.1914C305.026 39.3607 305.644 41.7264 305.812 44.1517H292.225C292.143 43.316 291.903 42.5066 291.519 41.7727C291.136 41.0388 290.617 40.3955 289.994 39.8817C288.611 38.7822 286.913 38.231 285.191 38.3231C283.801 38.2216 282.416 38.5956 281.239 39.3906C280.801 39.6992 280.446 40.1223 280.206 40.6195C279.966 41.1167 279.849 41.6713 279.868 42.2302C279.868 42.9472 280.073 43.6471 280.455 44.2365C280.838 44.8259 281.38 45.2767 282.009 45.5288C284.226 46.4949 286.524 47.2313 288.873 47.7278C291.82 48.4919 294.715 49.4692 297.538 50.6528C299.82 51.6467 301.818 53.2627 303.331 55.3391C305.148 57.7083 306.094 60.7023 305.993 63.7616C306.022 66.65 305.18 69.472 303.591 71.8106C301.861 74.284 299.514 76.189 296.817 77.3082C293.588 78.7042 290.126 79.3869 286.642 79.3151H286.682Z" fill="white"/>
<path d="M60.4039 0H76.2828C76.823 0.000715256 77.3548 0.143263 77.8312 0.415068C78.3075 0.686873 78.7139 1.07958 79.0144 1.55855L99.3358 34.16C99.7236 34.7875 100.291 35.2647 100.953 35.5206C101.616 35.7765 102.338 35.7975 103.012 35.5804C103.687 35.3634 104.278 34.9198 104.697 34.3158C105.116 33.7117 105.341 32.9794 105.339 32.2278V3.5014C105.331 3.03323 105.413 2.56826 105.579 2.135C105.745 1.73077 105.987 1.36734 106.29 1.0675C106.593 0.737411 106.958 0.479158 107.36 0.309575C107.753 0.11563 108.179 0.0102377 108.611 0L123.169 0C124.04 0 124.874 0.368896 125.49 1.02553C126.105 1.68217 126.451 2.57277 126.451 3.5014V75.6643C126.448 76.5911 126.102 77.4789 125.486 78.1333C124.871 78.7876 124.038 79.155 123.169 79.155H107.09C106.55 79.1551 106.018 79.0159 105.539 78.7494C105.065 78.4711 104.66 78.0758 104.359 77.5965L84.2073 45.3046C83.8146 44.6829 83.2452 44.2121 82.5829 43.9615C81.9207 43.7108 81.2005 43.6936 80.5283 43.9123C79.8562 44.131 79.2676 44.5741 78.8492 45.1764C78.4307 45.7788 78.2046 46.5084 78.2039 47.2582V75.6643C78.2001 76.1219 78.1152 76.5747 77.9538 76.9987C77.7752 77.4245 77.5203 77.8089 77.2033 78.1302C76.9021 78.4635 76.5417 78.7295 76.1432 78.9128C75.7447 79.0961 75.316 79.1929 74.882 79.1977H60.4039C59.9851 79.1809 59.5736 79.0757 59.1932 78.8881C58.3926 78.5319 57.7561 77.8528 57.4222 76.9987C57.256 76.5762 57.171 76.1225 57.172 75.6643V3.5014C57.1545 3.03544 57.226 2.57054 57.3822 2.135C57.5509 1.73281 57.7923 1.37005 58.0926 1.0675C58.3986 0.716044 58.7747 0.442432 59.1932 0.266875C59.5764 0.094057 59.9878 0.00337668 60.4039 0V0Z" fill="white"/>
<path d="M159.94 6.31959C155.905 2.10653 149.835 0 141.73 0H107.841C107.4 0.000916732 106.965 0.0958344 106.559 0.279165C106.154 0.462495 105.787 0.730533 105.48 1.0675C105.164 1.39771 104.914 1.79133 104.742 2.22559C104.57 2.65986 104.481 3.12614 104.479 3.59747V75.5896C104.478 76.0582 104.563 76.5225 104.731 76.9557C104.898 77.3889 105.144 77.7825 105.455 78.1139C105.765 78.4452 106.134 78.7078 106.54 78.8865C106.946 79.0652 107.382 79.1564 107.821 79.155H123.62C124.061 79.152 124.498 79.0561 124.905 78.873C125.312 78.6898 125.681 78.4229 125.991 78.0875C126.304 77.7544 126.552 77.3591 126.722 76.9239C126.889 76.4906 126.974 76.0262 126.972 75.5575V19.6633C126.981 18.7125 127.34 17.8037 127.972 17.1333C128.6 16.4653 129.447 16.0828 130.334 16.0659H133.335C137.518 16.0659 140.369 16.9341 141.89 18.6705C142.653 19.5085 143.254 20.4991 143.658 21.5854C144.061 22.6717 144.26 23.8324 144.241 25.0008C144.241 27.5628 143.511 28.641 141.77 30.2743C138.838 34.8858 4.62262 32.8683 2.69153 33.2633C1.93887 33.4139 1.25929 33.8406 0.77045 34.4695C0.273822 35.0922 0.000764324 35.883 1.52075e-05 36.7006V46.2013C-0.00130132 46.6634 0.0828737 47.1213 0.247716 47.5486C0.412557 47.976 0.654825 48.3644 0.960633 48.6916C1.26644 49.0189 1.62978 49.2786 2.02982 49.4557C2.42986 49.6329 2.85874 49.7241 3.29187 49.7241H4.74269C13.7478 49.7241 140.529 51.9872 149.484 46.1159C156.859 44.44 166.004 33.7116 166.004 24.2963C166.004 16.5249 163.983 10.5327 159.94 6.31959Z" fill="white"/>
</svg>
