<svg width="74" height="85" viewBox="0 0 74 85" fill="none" xmlns="http://www.w3.org/2000/svg">
<path d="M37 83C56.33 83 72 67.33 72 48C72 28.67 56.33 13 37 13C17.67 13 2 28.67 2 48C2 67.33 17.67 83 37 83Z" stroke="#364C9C" stroke-width="3" stroke-miterlimit="10"/>
<path d="M36 15C36 15 -4.5 46.9228 36 81" stroke="#364C9C" stroke-width="3" stroke-miterlimit="10"/>
<path d="M36 81C81 48.0985 36 15 36 15V81Z" stroke="#364C9C" stroke-width="3" stroke-miterlimit="10"/>
<path d="M5 36C5 36 34.2299 47.25 69 36" stroke="#364C9C" stroke-width="3" stroke-miterlimit="10"/>
<path d="M3 57C3 57 32.6046 72.75 71 57" stroke="#364C9C" stroke-width="4" stroke-miterlimit="10"/>
<path d="M37.5455 3H35.4545C35.1818 3 35 2.80645 35 2.51613V0.483871C35 0.193548 35.1818 0 35.4545 0H37.5455C37.8182 0 38 0.193548 38 0.483871V2.51613C37.9091 2.80645 37.7273 3 37.5455 3Z" fill="#364C9C"/>
<path d="M53.5455 5H51.4545C51.1818 5 51 4.87097 51 4.67742V3.32258C51 3.12903 51.1818 3 51.4545 3H53.5455C53.8182 3 54 3.12903 54 3.32258V4.67742C54 4.87097 53.8182 5 53.5455 5Z" fill="#364C9C"/>
<path d="M21.5455 5H19.4545C19.1818 5 19 4.87097 19 4.67742V3.32258C19 3.12903 19.1818 3 19.4545 3H21.5455C21.8182 3 22 3.12903 22 3.32258V4.67742C22 4.87097 21.8182 5 21.5455 5Z" fill="#364C9C"/>
</svg>
