<svg width="97" height="25" viewBox="0 0 97 25" fill="none" xmlns="http://www.w3.org/2000/svg">
<path d="M51.4528 16.6911C51.419 15.1814 51.7148 13.6841 52.3169 12.3173C52.8542 11.1369 53.6869 10.1379 54.723 9.43063C55.7364 8.75672 57.2248 8.40647 58.4189 8.42129C59.3871 8.39755 60.3451 8.63601 61.2034 9.11437C61.9679 9.52928 62.613 10.157 63.0703 10.9312V8.67026H67.6934V24.7692H63.0766V22.4881C62.6046 23.2588 61.9524 23.885 61.1845 24.3049C60.3237 24.7859 59.362 25.0245 58.3905 24.998C57.2057 25.01 55.7271 24.6598 54.723 23.9887C53.6893 23.2667 52.8579 22.26 52.3169 21.075C51.7196 19.7031 51.424 18.2036 51.4528 16.6911ZM61.6796 16.7181C61.6796 15.4867 61.3643 14.5177 60.7336 13.8044C60.4505 13.4631 60.1016 13.1911 59.7108 13.007C59.32 12.8229 58.8965 12.7311 58.4693 12.7379C58.0399 12.7317 57.6142 12.8227 57.2201 13.0047C56.826 13.1868 56.4726 13.4559 56.1831 13.7943C55.5692 14.4874 55.2622 15.4497 55.2622 16.6811C55.2622 17.9124 55.5692 18.896 56.1831 19.6317C56.4715 19.9733 56.8249 20.2454 57.2197 20.4299C57.6145 20.6144 58.0416 20.707 58.4725 20.7016C58.9 20.7086 59.3238 20.6166 59.7147 20.4319C60.1056 20.2472 60.4543 19.9742 60.7367 19.6317C61.3674 18.9218 61.6859 17.9495 61.6859 16.7181H61.6796ZM76.0502 24.998C74.8439 25.0218 73.6463 24.7765 72.534 24.278C71.579 23.8563 70.741 23.1811 70.0995 22.3165C69.5159 21.4969 69.1686 20.5137 69.0998 19.487H73.6693C73.6929 19.7544 73.7706 20.0131 73.8969 20.2454C74.0232 20.4777 74.1951 20.6781 74.4009 20.8328C74.8638 21.1907 75.4252 21.3742 75.9965 21.3543C76.4598 21.3885 76.9219 21.2711 77.321 21.0178C77.4702 20.9153 77.5929 20.7743 77.6778 20.6079C77.7626 20.4416 77.807 20.2551 77.8067 20.0657C77.8087 19.8429 77.7445 19.6252 77.6232 19.4438C77.5019 19.2625 77.3299 19.1268 77.1318 19.0564C76.4245 18.7347 75.6908 18.4835 74.9401 18.3061C74.0234 18.0888 73.1207 17.809 72.2376 17.4683C71.5181 17.1638 70.8778 16.6791 70.3707 16.0553C69.8184 15.3116 69.5392 14.3785 69.5855 13.431C69.5778 12.5379 69.8229 11.6632 70.2887 10.9211C70.8175 10.1156 71.5488 9.48584 72.3984 9.10428C73.4509 8.63381 74.5844 8.40456 75.7253 8.43138C77.6174 8.43138 79.1048 8.93157 80.1876 9.93194C80.7328 10.4307 81.1806 11.0392 81.5052 11.7228C81.8299 12.4063 82.0251 13.1514 82.0797 13.9155H77.794C77.7689 13.6519 77.6936 13.3965 77.5727 13.1651C77.4518 12.9337 77.2878 12.7311 77.0908 12.5697C76.651 12.2351 76.1161 12.0734 75.5771 12.1121C75.1389 12.0801 74.7026 12.198 74.3315 12.4486C74.1937 12.5458 74.0816 12.6791 74.006 12.8358C73.9303 12.9926 73.8936 13.1673 73.8995 13.3435C73.9001 13.5698 73.9653 13.7904 74.0865 13.9762C74.2076 14.1619 74.3788 14.3038 74.5775 14.3831C75.2757 14.6886 76.0003 14.9208 76.7408 15.0762C77.6695 15.3175 78.5819 15.6255 79.4717 15.9981C80.1916 16.3007 80.8252 16.7982 81.3102 17.4414C81.8816 18.1889 82.1796 19.132 82.149 20.096C82.1573 21.0067 81.8908 21.896 81.389 22.6328C80.8436 23.4124 80.1039 24.0127 79.2541 24.3655C78.2372 24.8051 77.1472 25.0203 76.0502 24.998ZM90.3545 24.998C89.1492 25.0218 87.9526 24.7765 86.8415 24.278C85.8865 23.8563 85.0484 23.1811 84.4069 22.3165C83.8208 21.4984 83.4731 20.5144 83.4073 19.487H87.9767C88.0004 19.754 88.0778 20.0124 88.2035 20.2446C88.3292 20.4768 88.5003 20.6774 88.7052 20.8328C89.1683 21.1902 89.7295 21.3736 90.3008 21.3543C90.7642 21.3893 91.2265 21.2719 91.6253 21.0178C91.7749 20.9154 91.8981 20.7746 91.9835 20.6082C92.0689 20.4419 92.1138 20.2554 92.1141 20.0657C92.1155 19.8426 92.0506 19.6248 91.9288 19.4435C91.807 19.2622 91.6345 19.1267 91.4361 19.0564C90.7299 18.7346 89.9973 18.4834 89.2476 18.3061C88.33 18.0883 87.4262 17.8084 86.5419 17.4683C85.8233 17.1638 85.184 16.6791 84.6781 16.0553C84.1259 15.3116 83.8467 14.3785 83.8929 13.431C83.8837 12.5377 84.1289 11.6624 84.5962 10.9211C85.1235 10.1141 85.8552 9.48392 86.7059 9.10428C87.7574 8.63408 88.8898 8.40483 90.0296 8.43138C91.9217 8.43138 93.4092 8.93157 94.4919 9.93194C95.0382 10.4297 95.4867 11.038 95.8114 11.7218C96.1362 12.4055 96.3308 13.1511 96.384 13.9155H92.1015C92.0757 13.6521 92 13.397 91.8792 13.1657C91.7583 12.9344 91.5947 12.7316 91.3983 12.5697C90.9626 12.2231 90.4273 12.0494 89.8846 12.0785C89.4464 12.0465 89.0101 12.1643 88.639 12.4149C88.5012 12.5121 88.3891 12.6455 88.3134 12.8022C88.2378 12.9589 88.2011 13.1337 88.2069 13.3099C88.2069 13.5358 88.2715 13.7564 88.3921 13.9422C88.5126 14.128 88.6835 14.27 88.8818 14.3495C89.5804 14.654 90.3048 14.8861 91.0451 15.0426C91.9739 15.2834 92.8864 15.5914 93.776 15.9644C94.4954 16.2777 95.125 16.787 95.6019 17.4414C96.1746 18.1881 96.4727 19.1318 96.4407 20.096C96.4501 21.0063 96.1847 21.8957 95.6839 22.6328C95.1385 23.4124 94.3987 24.0127 93.549 24.3655C92.531 24.8055 91.44 25.0206 90.3418 24.998H90.3545Z" fill="black"/>
<path d="M19.0378 0H24.0425C24.2127 0.000225429 24.3803 0.0451526 24.5304 0.130818C24.6806 0.216484 24.8087 0.340255 24.9034 0.491212L31.3081 10.7663C31.4304 10.9641 31.6091 11.1145 31.8179 11.1951C32.0267 11.2758 32.2543 11.2824 32.4669 11.214C32.6794 11.1456 32.8656 11.0058 32.9978 10.8154C33.1299 10.625 33.2009 10.3942 33.2002 10.1573V1.10354C33.1977 0.955993 33.2235 0.809445 33.2759 0.672893C33.328 0.545491 33.4043 0.430949 33.4998 0.336447C33.5953 0.232412 33.7103 0.151017 33.8372 0.0975695C33.9609 0.0364433 34.0951 0.00322666 34.2314 0L38.8198 0C39.0941 0 39.3572 0.116266 39.5512 0.323221C39.7452 0.530176 39.8541 0.810866 39.8541 1.10354V23.8473C39.8533 24.1394 39.744 24.4193 39.5501 24.6255C39.3562 24.8317 39.0936 24.9475 38.8198 24.9475H33.7521C33.5819 24.9475 33.4142 24.9037 33.2633 24.8197C33.1139 24.7319 32.9863 24.6074 32.8912 24.4563L26.54 14.2788C26.4163 14.0828 26.2368 13.9345 26.0281 13.8555C25.8193 13.7765 25.5924 13.771 25.3805 13.84C25.1687 13.9089 24.9832 14.0486 24.8513 14.2384C24.7194 14.4282 24.6481 14.6582 24.6479 14.8945V23.8473C24.6467 23.9916 24.62 24.1343 24.5691 24.2679C24.5128 24.4021 24.4325 24.5232 24.3326 24.6245C24.2376 24.7296 24.1241 24.8134 23.9985 24.8712C23.8728 24.9289 23.7377 24.9595 23.601 24.961H19.0378C18.9059 24.9557 18.7762 24.9225 18.6563 24.8634C18.4039 24.7511 18.2033 24.5371 18.0981 24.2679C18.0457 24.1347 18.0189 23.9917 18.0193 23.8473V1.10354C18.0137 0.956688 18.0362 0.810165 18.0855 0.672893C18.1387 0.546133 18.2147 0.431804 18.3094 0.336447C18.4058 0.225678 18.5244 0.139443 18.6563 0.0841116C18.7771 0.0296442 18.9067 0.00106424 19.0378 0V0Z" fill="black"/>
<path d="M50.4088 1.99195C49.1369 0.664104 47.2238 0.000183105 44.6694 0.000183105H33.9885C33.8497 0.000472034 33.7123 0.0303875 33.5845 0.0881682C33.4567 0.145949 33.341 0.230427 33.2443 0.33663C33.1449 0.440704 33.0659 0.564763 33.0118 0.70163C32.9576 0.838497 32.9295 0.985457 32.9289 1.13401V23.824C32.9285 23.9717 32.9555 24.118 33.0083 24.2545C33.061 24.3911 33.1386 24.5151 33.2365 24.6195C33.3344 24.724 33.4507 24.8067 33.5786 24.8631C33.7066 24.9194 33.8438 24.9481 33.9822 24.9477H38.9616C39.1008 24.9467 39.2384 24.9165 39.3667 24.8588C39.4949 24.8011 39.6112 24.7169 39.709 24.6112C39.8075 24.5063 39.8857 24.3817 39.9392 24.2445C39.9919 24.1079 40.0187 23.9616 40.018 23.8139V6.19753C40.0209 5.89785 40.1341 5.61142 40.3334 5.40015C40.5314 5.18961 40.7981 5.06903 41.0776 5.0637H42.0237C43.3418 5.0637 44.2406 5.33735 44.7199 5.88463C44.9605 6.14872 45.1498 6.46093 45.277 6.80331C45.4042 7.1457 45.4667 7.51152 45.461 7.87976C45.461 8.68723 45.2308 9.02704 44.6821 9.5418C43.7581 10.9953 1.45693 10.3594 0.848298 10.4839C0.61108 10.5313 0.396893 10.6658 0.242825 10.864C0.0863011 11.0603 0.000240894 11.3095 4.79299e-06 11.5672V14.5616C-0.000410139 14.7072 0.0261195 14.8515 0.0780732 14.9862C0.130027 15.1209 0.206383 15.2433 0.302766 15.3465C0.399148 15.4496 0.513662 15.5314 0.639744 15.5873C0.765825 15.6431 0.900996 15.6719 1.03751 15.6719H1.49477C4.33292 15.6719 44.291 16.3851 47.1134 14.5347C49.4375 14.0064 52.3199 10.6252 52.3199 7.6577C52.3199 5.20837 51.6828 3.31979 50.4088 1.99195Z" fill="black"/>
</svg>
