<svg width="87" height="101" viewBox="0 0 87 101" fill="none" xmlns="http://www.w3.org/2000/svg">
<path fill-rule="evenodd" clip-rule="evenodd" d="M0.475342 24.0926C0.475342 22.7118 1.59463 21.5926 2.97534 21.5926H73.9076C73.9081 21.5926 73.9083 21.5926 73.9083 24.0926C74.2326 21.6137 74.2335 21.6138 74.2344 21.6139L74.2365 21.6142L74.2414 21.6148L74.2539 21.6165L74.29 21.6216C74.3189 21.6257 74.3574 21.6314 74.4048 21.6387C74.4995 21.6534 74.6303 21.6749 74.792 21.7044C75.1148 21.7633 75.5643 21.8549 76.0989 21.9894C77.158 22.2558 78.6016 22.7032 80.0721 23.4282C82.9456 24.8451 86.5246 27.6695 86.5246 32.7456V91.2811H84.0246C86.5246 91.2811 86.5246 91.2827 86.5246 91.2842L86.5246 91.2944L86.5245 91.3101L86.5239 91.3489C86.5233 91.378 86.5223 91.4135 86.5206 91.4551C86.5172 91.5381 86.511 91.6457 86.4998 91.7745C86.4774 92.0312 86.4346 92.3771 86.3521 92.7842C86.1888 93.5908 85.8602 94.6859 85.1882 95.8093C83.7585 98.1996 81.0105 100.314 76.2667 100.498C76.2344 100.499 76.202 100.5 76.1696 100.5H28.0875C26.7068 100.5 25.5875 99.3807 25.5875 98C25.5875 96.6193 26.7068 95.5 28.0875 95.5H76.1187C79.1954 95.3686 80.3658 94.1311 80.8972 93.2427C81.2071 92.7246 81.3695 92.1972 81.4516 91.7918C81.4919 91.5929 81.5104 91.4353 81.5187 91.3402C81.5224 91.2975 81.524 91.2684 81.5246 91.2551V32.7456C81.5246 30.4921 80.0455 28.9899 77.8608 27.9127C76.8022 27.3907 75.7168 27.0491 74.8791 26.8383C74.4653 26.7342 74.1244 26.6652 73.894 26.6231C73.8251 26.6105 73.7665 26.6004 73.719 26.5926H2.97534C1.59463 26.5926 0.475342 25.4733 0.475342 24.0926ZM81.5248 91.2502C81.5249 91.2454 81.525 91.2459 81.5248 91.2514L81.5248 91.2502ZM73.9083 24.0926L74.2326 21.6137C74.1251 21.5996 74.016 21.5926 73.9076 21.5926L73.9083 24.0926Z" fill="white"/>
<path d="M45.3447 31.4223H24.7551C23.4459 31.4223 22.3748 30.5061 22.3748 29.3863V17.0684C22.3748 15.9486 23.4459 15.0323 24.7551 15.0323H45.4637C46.7728 15.0323 47.844 15.9486 47.844 17.0684V29.3863C47.725 30.5061 46.6538 31.4223 45.3447 31.4223Z" fill="white"/>
<path d="M70.576 65.0166H49.8674C48.5582 65.0166 47.4871 64.1003 47.4871 62.9805V39.7699C47.4871 38.6501 48.5582 37.7339 49.8674 37.7339H70.576C71.8851 37.7339 72.9563 38.6501 72.9563 39.7699V62.9805C72.9563 64.1003 71.8851 65.0166 70.576 65.0166Z" fill="white"/>
<path fill-rule="evenodd" clip-rule="evenodd" d="M31 0.5C31.8284 0.5 32.5 1.17157 32.5 2V15.9306C32.5 16.7591 31.8284 17.4306 31 17.4306C30.1716 17.4306 29.5 16.7591 29.5 15.9306V2C29.5 1.17157 30.1716 0.5 31 0.5Z" fill="white"/>
<path fill-rule="evenodd" clip-rule="evenodd" d="M39 0.5C39.8284 0.5 40.5 1.17157 40.5 2V15.9306C40.5 16.7591 39.8284 17.4306 39 17.4306C38.1716 17.4306 37.5 16.7591 37.5 15.9306V2C37.5 1.17157 38.1716 0.5 39 0.5Z" fill="white"/>
<path d="M60 55.2035C62.2091 55.2035 64 53.6717 64 51.782C64 49.8924 62.2091 48.3606 60 48.3606C57.7909 48.3606 56 49.8924 56 51.782C56 53.6717 57.7909 55.2035 60 55.2035Z" fill="#77787B"/>
<path fill-rule="evenodd" clip-rule="evenodd" d="M68 65.0099C68 65.0099 68 65.0099 68 65.0099C68 61.0018 64.4183 57.7525 60 57.7525C55.5817 57.7525 52 61.0018 52 65.0099C52 65.0099 52 65.0099 52 65.0099H68Z" fill="#77787B"/>
<path d="M47 73.2673C47 72.715 47.4477 72.2673 48 72.2673H72C72.5523 72.2673 73 72.715 73 73.2673V75.5363C73 76.0886 72.5523 76.5363 72 76.5363H48C47.4477 76.5363 47 76.0886 47 75.5363V73.2673Z" fill="white"/>
<path d="M37 84.367C37 83.8147 37.4477 83.367 38 83.367H72C72.5523 83.367 73 83.8147 73 84.367V86.6361C73 87.1884 72.5523 87.6361 72 87.6361H38C37.4477 87.6361 37 87.1884 37 86.6361V84.367Z" fill="white"/>
</svg>
