<svg width="87" height="101" viewBox="0 0 87 101" fill="none" xmlns="http://www.w3.org/2000/svg">
<path fill-rule="evenodd" clip-rule="evenodd" d="M0.5 24.0925C0.5 22.7118 1.61929 21.5925 3 21.5925H73.9322C73.9327 21.5925 73.933 21.5925 73.933 24.0925C74.2573 21.6137 74.2582 21.6138 74.2591 21.6139L74.2612 21.6142L74.2661 21.6148L74.2786 21.6165L74.3147 21.6216C74.3436 21.6257 74.382 21.6313 74.4294 21.6387C74.5242 21.6534 74.655 21.6748 74.8167 21.7044C75.1395 21.7633 75.589 21.8549 76.1236 21.9894C77.1826 22.2558 78.6263 22.7031 80.0967 23.4282C82.9702 24.8451 86.5493 27.6695 86.5493 32.7456V91.2811H84.0493C86.5493 91.2811 86.5493 91.2826 86.5493 91.2842L86.5492 91.2943L86.5491 91.31L86.5485 91.3488C86.548 91.3779 86.547 91.4135 86.5453 91.455C86.5419 91.538 86.5357 91.6456 86.5245 91.7744C86.5021 92.0312 86.4592 92.3771 86.3768 92.7842C86.2134 93.5908 85.8848 94.6859 85.2129 95.8093C83.7832 98.1996 81.0351 100.314 76.2914 100.498C76.259 100.499 76.2266 100.5 76.1943 100.5H28.1122C26.7315 100.5 25.6122 99.3807 25.6122 98C25.6122 96.6192 26.7315 95.5 28.1122 95.5H76.1433C79.2201 95.3685 80.3905 94.1311 80.9219 93.2427C81.2318 92.7246 81.3941 92.1972 81.4763 91.7917C81.5165 91.5928 81.5351 91.4353 81.5434 91.3401C81.5471 91.2975 81.5487 91.2684 81.5493 91.2551V32.7456C81.5493 30.4921 80.0701 28.9899 77.8855 27.9127C76.8269 27.3907 75.7415 27.0491 74.9037 26.8383C74.4899 26.7342 74.1491 26.6651 73.9186 26.6231C73.8498 26.6105 73.7911 26.6004 73.7437 26.5925H3C1.61929 26.5925 0.5 25.4732 0.5 24.0925ZM81.5495 91.2502C81.5496 91.2454 81.5496 91.2459 81.5494 91.2514L81.5495 91.2502ZM73.933 24.0925L74.2573 21.6137C74.1497 21.5996 74.0407 21.5925 73.9322 21.5925L73.933 24.0925Z" fill="#77787B"/>
<path d="M45.3693 31.4223H24.7797C23.4705 31.4223 22.3994 30.5061 22.3994 29.3863V17.0684C22.3994 15.9486 23.4705 15.0323 24.7797 15.0323H45.4883C46.7975 15.0323 47.8686 15.9486 47.8686 17.0684V29.3863C47.7496 30.5061 46.6785 31.4223 45.3693 31.4223Z" fill="#77787B"/>
<path d="M70.6006 65.0165H49.892C48.5829 65.0165 47.5117 64.1003 47.5117 62.9805V39.7699C47.5117 38.6501 48.5829 37.7339 49.892 37.7339H70.6006C71.9098 37.7339 72.9809 38.6501 72.9809 39.7699V62.9805C72.9809 64.1003 71.9098 65.0165 70.6006 65.0165Z" fill="#77787B"/>
<path fill-rule="evenodd" clip-rule="evenodd" d="M31.0247 0.5C31.8531 0.5 32.5247 1.17157 32.5247 2V15.9306C32.5247 16.7591 31.8531 17.4306 31.0247 17.4306C30.1962 17.4306 29.5247 16.7591 29.5247 15.9306V2C29.5247 1.17157 30.1962 0.5 31.0247 0.5Z" fill="#77787B"/>
<path fill-rule="evenodd" clip-rule="evenodd" d="M39.0247 0.5C39.8531 0.5 40.5247 1.17157 40.5247 2V15.9306C40.5247 16.7591 39.8531 17.4306 39.0247 17.4306C38.1962 17.4306 37.5247 16.7591 37.5247 15.9306V2C37.5247 1.17157 38.1962 0.5 39.0247 0.5Z" fill="#77787B"/>
<path d="M60.0247 55.2035C62.2338 55.2035 64.0247 53.6717 64.0247 51.782C64.0247 49.8924 62.2338 48.3606 60.0247 48.3606C57.8155 48.3606 56.0247 49.8924 56.0247 51.782C56.0247 53.6717 57.8155 55.2035 60.0247 55.2035Z" fill="#C4C4C4"/>
<path fill-rule="evenodd" clip-rule="evenodd" d="M68.0247 65.01C68.0247 65.01 68.0247 65.0099 68.0247 65.0099C68.0247 61.0018 64.4429 57.7526 60.0247 57.7526C55.6064 57.7526 52.0247 61.0018 52.0247 65.0099C52.0247 65.0099 52.0247 65.01 52.0247 65.01H68.0247Z" fill="#C4C4C4"/>
<path d="M47.0247 73.2673C47.0247 72.715 47.4724 72.2673 48.0247 72.2673H72.0247C72.5769 72.2673 73.0247 72.715 73.0247 73.2673V75.5363C73.0247 76.0886 72.5769 76.5363 72.0247 76.5363H48.0247C47.4724 76.5363 47.0247 76.0886 47.0247 75.5363V73.2673Z" fill="#77787B"/>
<path d="M37.0247 84.367C37.0247 83.8147 37.4724 83.367 38.0247 83.367H72.0247C72.5769 83.367 73.0247 83.8147 73.0247 84.367V86.6361C73.0247 87.1884 72.5769 87.6361 72.0247 87.6361H38.0247C37.4724 87.6361 37.0247 87.1884 37.0247 86.6361V84.367Z" fill="#77787B"/>
</svg>
